<svg width="69" height="61" viewBox="0 0 69 61" fill="none" xmlns="http://www.w3.org/2000/svg">
<path d="M26.351 60.4289C32.6141 59.8141 55.4405 58.0954 57.1733 53.8207C59.3096 48.5529 68.344 20.0008 68.344 20.0008C68.344 20.0008 71.3175 0.795965 62.0517 0C58.0467 0.795965 54.4453 2.89909 52.9298 10.0316C52.1399 13.7508 47.9598 28.7 44.6079 45.2925C44.6079 45.2925 20.2963 52.8084 18.5071 52.1915C16.719 51.5737 16.6385 49.8842 15.2237 47.8424C13.8088 45.8017 12.7874 43.1824 11.6644 43.9008C10.5414 44.6193 11.2468 47.9732 11.6644 49.5662C12.081 51.1591 11.0587 52.6232 11.0587 52.6232C11.0587 52.6232 9.99403 52.2258 9.01089 51.9501C8.47958 51.8011 0.117436 46.9197 0.117436 46.9197C0.117436 46.9197 -0.68257 52.2268 1.8935 54.829C5.12767 58.5693 9.72839 59.959 13.9276 60.5658C18.7829 61.2672 20.089 61.0438 26.351 60.4289Z" fill="#FFA8A7"/>
</svg>
