<svg width="110" height="228" viewBox="0 0 110 228" fill="none" xmlns="http://www.w3.org/2000/svg">
<path d="M1.79609 227.31C0.803279 226.737 0 225.282 0 224.061V62.9729C0 61.7514 0.857421 60.2662 1.91542 59.6555L104.489 0.478621C105.547 -0.132112 107.209 -0.162198 108.201 0.410427C109.194 0.983051 109.998 2.43818 109.998 3.65965L109.999 164.748C109.999 165.969 109.142 167.454 108.084 168.065L5.50862 227.241C4.45062 227.852 2.78891 227.883 1.79609 227.31Z" fill="#FAFAFA"/>
<path d="M5.50865 227.241L108.085 168.064C109.143 167.453 110 165.968 110 164.747L109.999 3.65865C109.999 2.43719 109.142 1.94178 108.084 2.55251L5.50764 61.7294C4.44964 62.3401 3.59222 63.8253 3.59222 65.0468L3.59322 226.135C3.59322 227.357 4.45065 227.852 5.50865 227.241Z" fill="#F0F0F0"/>
<path d="M5.25794 227.367C4.20495 227.855 2.71372 227.845 1.79712 227.309C0.803301 226.733 0.00403978 225.281 0.00403978 224.063V62.9769C0.00403978 62.3632 0.218649 61.6903 0.559617 61.0856L4.15681 63.1614C3.80581 63.7561 3.59121 64.4381 3.59121 65.0428V226.138C3.59121 227.26 4.32229 227.766 5.25794 227.367Z" fill="#E0E0E0"/>
<path d="M20.3507 53.1671L92.388 11.6072V28.2143L20.3517 69.8033L20.3507 53.1671Z" fill="#E0E0E0"/>
<path d="M14.108 80.277L37.4011 66.8289C37.9316 66.523 38.3608 66.7406 38.3608 67.3142C38.3608 67.8889 37.9306 68.6019 37.4011 68.9078L14.108 82.3559C13.5775 82.6618 13.1483 82.4441 13.1483 81.8705C13.1483 81.2969 13.5775 80.5829 14.108 80.277Z" fill="#E0E0E0"/>
<path d="M14.108 84.4368L37.4011 70.9887C37.9316 70.6828 38.3608 70.9004 38.3608 71.474C38.3608 72.0487 37.9306 72.7617 37.4011 73.0676L14.108 86.5157C13.5775 86.8216 13.1483 86.605 13.1483 86.0303C13.1483 85.4557 13.5775 84.7427 14.108 84.4368Z" fill="#E0E0E0"/>
<path d="M14.108 88.5956L37.4011 75.1475C37.9316 74.8416 38.3608 75.0582 38.3608 75.6328C38.3608 76.2075 37.9306 76.9205 37.4011 77.2273L14.108 90.6755C13.5775 90.9814 13.1483 90.7637 13.1483 90.1901C13.1483 89.6165 13.5775 88.9015 14.108 88.5956Z" fill="#E0E0E0"/>
<path d="M14.108 92.7554L37.4011 79.3073C37.9316 79.0014 38.3608 79.219 38.3608 79.7926C38.3608 80.3673 37.9306 81.0803 37.4011 81.3861L14.108 94.8343C13.5775 95.1402 13.1483 94.9225 13.1483 94.3489C13.1483 93.7743 13.5775 93.0613 14.108 92.7554Z" fill="#E0E0E0"/>
<path d="M76.6413 67.0475L99.9344 53.5993C100.465 53.2935 100.894 53.5111 100.894 54.0847C100.894 54.6593 100.464 55.3723 99.9334 55.6792L76.6403 69.1274C76.1098 69.4332 75.6806 69.2156 75.6806 68.642C75.6806 68.0684 76.1108 67.3533 76.6413 67.0475Z" fill="#E0E0E0"/>
<path d="M76.6413 71.2073L99.9344 57.7591C100.465 57.4533 100.894 57.6709 100.894 58.2445C100.894 58.8191 100.464 59.5322 99.9334 59.838L76.6403 73.2862C76.1098 73.592 75.6806 73.3744 75.6806 72.8008C75.6816 72.2262 76.1108 71.5131 76.6413 71.2073Z" fill="#E0E0E0"/>
<path d="M76.6413 75.366L99.9344 61.9179C100.465 61.612 100.894 61.8296 100.894 62.4033C100.894 62.9779 100.464 63.6909 99.9334 63.9968L76.6403 77.4449C76.1098 77.7508 75.6806 77.5342 75.6806 76.9596C75.6816 76.3859 76.1108 75.6719 76.6413 75.366Z" fill="#E0E0E0"/>
<path d="M76.6413 79.5259L99.9344 66.0777C100.465 65.7719 100.894 65.9885 100.894 66.5631C100.894 67.1377 100.464 67.8508 99.9334 68.1576L76.6403 81.6058C76.1098 81.9116 75.6806 81.694 75.6806 81.1204C75.6806 80.5468 76.1108 79.8317 76.6413 79.5259Z" fill="#E0E0E0"/>
<path d="M14.109 209.207L102.235 158.327C102.765 158.021 103.195 158.239 103.195 158.813C103.195 159.387 102.764 160.1 102.234 160.406L14.109 211.286C13.5785 211.591 13.1492 211.374 13.1492 210.8C13.1492 210.227 13.5785 209.513 14.109 209.207Z" fill="#E0E0E0"/>
<path d="M14.109 213.366L102.235 162.487C102.765 162.181 103.195 162.399 103.195 162.973C103.195 163.547 102.764 164.26 102.234 164.566L14.109 215.445C13.5785 215.751 13.1492 215.534 13.1492 214.96C13.1492 214.386 13.5785 213.672 14.109 213.366Z" fill="#E0E0E0"/>
<path d="M70.7768 47.5592L99.5915 30.923C100.122 30.6171 100.551 30.8347 100.551 31.4084C100.551 31.983 100.121 32.696 99.5905 33.0019L70.7768 49.6381C70.2463 49.9439 69.8171 49.7263 69.8171 49.1527C69.8171 48.5791 70.2473 47.8651 70.7768 47.5592Z" fill="#E0E0E0"/>
<path d="M70.7768 51.719L99.5915 35.0828C100.122 34.7769 100.551 34.9946 100.551 35.5682C100.551 36.1428 100.121 36.8558 99.5905 37.1627L70.7768 53.7989C70.2463 54.1048 69.8171 53.8882 69.8171 53.3135C69.8171 52.7379 70.2473 52.0249 70.7768 51.719Z" fill="#E0E0E0"/>
<path d="M70.7768 55.8778L99.5915 39.2416C100.122 38.9358 100.551 39.1534 100.551 39.727C100.551 40.3016 100.121 41.0147 99.5905 41.3205L70.7768 57.9567C70.2463 58.2626 69.8171 58.045 69.8171 57.4713C69.8171 56.8977 70.2473 56.1837 70.7768 55.8778Z" fill="#E0E0E0"/>
<path d="M70.7768 60.0366L99.5915 43.4004C100.122 43.0945 100.551 43.3122 100.551 43.8858C100.551 44.4604 100.121 45.1734 99.5905 45.4793L70.7768 62.1155C70.2463 62.4214 69.8171 62.2038 69.8171 61.6301C69.8171 61.0565 70.2473 60.3435 70.7768 60.0366Z" fill="#E0E0E0"/>
<path d="M14.3867 117.548C14.2935 117.602 14.2122 117.596 14.144 117.53C14.0769 117.464 14.0428 117.36 14.0428 117.216V104.517C14.0428 104.373 14.0769 104.229 14.144 104.084C14.2122 103.94 14.2925 103.841 14.3867 103.787L16.0595 102.821C16.1538 102.767 16.234 102.773 16.3022 102.839C16.3704 102.904 16.4055 103.009 16.4055 103.153V115.852C16.4055 115.996 16.3704 116.141 16.3022 116.284C16.234 116.429 16.1538 116.528 16.0595 116.582L14.3867 117.548Z" fill="#455A64"/>
<path d="M24.001 111.997C23.8566 112.08 23.7382 112.089 23.65 112.023C23.5607 111.956 23.5036 111.899 23.4775 111.848L20.5542 106.812V113.456C20.5542 113.601 20.5201 113.745 20.4519 113.888C20.3837 114.034 20.3035 114.132 20.2092 114.186L18.5365 115.152C18.4432 115.206 18.362 115.2 18.2938 115.134C18.2256 115.069 18.1915 114.964 18.1915 114.82V102.121C18.1915 101.978 18.2256 101.833 18.2938 101.689C18.362 101.544 18.4432 101.445 18.5365 101.391L19.8652 100.624C20.0096 100.54 20.127 100.531 20.2162 100.599C20.3065 100.665 20.3636 100.723 20.3887 100.773L23.313 105.808V99.1646C23.313 99.0212 23.3471 98.8768 23.4153 98.7324C23.4825 98.5879 23.5637 98.4887 23.658 98.4345L25.3297 97.4688C25.424 97.4146 25.5042 97.4206 25.5734 97.4858C25.6406 97.552 25.6757 97.6563 25.6757 97.7997V110.499C25.6757 110.643 25.6406 110.788 25.5734 110.931C25.5052 111.076 25.424 111.175 25.3297 111.229L24.001 111.997Z" fill="#455A64"/>
<path d="M30.1685 108.437C29.8365 108.628 29.6109 108.496 29.4926 108.041L26.8882 97.2591C26.8711 97.1769 26.8601 97.1248 26.8561 97.1007C26.8521 97.0776 26.8501 97.0526 26.8501 97.0265C26.8501 96.9082 26.8771 96.7908 26.9323 96.6745C26.9875 96.5571 27.0537 96.4759 27.1309 96.4318L28.7394 95.5032C28.9099 95.4049 29.0313 95.3908 29.1035 95.46C29.1757 95.5302 29.2198 95.6125 29.2368 95.7077L31.0119 103.331L32.7869 93.6579C32.803 93.5436 32.8481 93.4092 32.9203 93.2558C32.9935 93.1034 33.1138 92.977 33.2853 92.8787L34.8939 91.9501C34.9701 91.906 35.0363 91.911 35.0914 91.9641C35.1466 92.0173 35.1747 92.1025 35.1747 92.2209C35.1747 92.2469 35.1717 92.274 35.1687 92.3021C35.1647 92.3312 35.1536 92.3964 35.1366 92.4986L32.5322 106.288C32.4129 106.88 32.1862 107.274 31.8563 107.464L30.1685 108.437Z" fill="#455A64"/>
<path d="M35.7604 96.5782C35.7854 95.8301 35.8907 95.078 36.0733 94.3238C36.2558 93.5697 36.5155 92.8567 36.8525 92.1838C37.1884 91.5118 37.5976 90.8961 38.0779 90.3355C38.5583 89.7769 39.1149 89.3146 39.7437 88.9506C40.3654 88.5916 40.919 88.4131 41.4044 88.4141C41.8898 88.4161 42.2999 88.5595 42.6359 88.8433C42.9718 89.1281 43.2316 89.5413 43.4141 90.0838C43.5976 90.6263 43.7019 91.2581 43.727 91.9772C43.744 92.5307 43.753 93.1154 43.753 93.7311C43.753 94.3479 43.744 94.9295 43.727 95.4761C43.7019 96.2252 43.5976 96.9764 43.4141 97.7305C43.2316 98.4846 42.9718 99.2017 42.6359 99.8806C42.2999 100.56 41.8898 101.176 41.4044 101.732C40.919 102.287 40.3654 102.745 39.7437 103.104C39.1139 103.468 38.5583 103.65 38.0779 103.652C37.5976 103.654 37.1884 103.511 36.8525 103.22C36.5155 102.929 36.2558 102.512 36.0733 101.97C35.8907 101.427 35.7854 100.796 35.7604 100.076C35.7433 99.5497 35.7343 98.977 35.7343 98.3603C35.7343 97.7465 35.7433 97.1518 35.7604 96.5782ZM41.3643 96.7437C41.3733 96.502 41.3813 96.2363 41.3913 95.9414C41.3994 95.6496 41.4044 95.3507 41.4044 95.0499C41.4044 94.749 41.3994 94.4592 41.3913 94.1824C41.3813 93.9056 41.3743 93.6579 41.3643 93.4403C41.3482 93.1224 41.3031 92.8466 41.2309 92.613C41.1587 92.3803 41.0574 92.2008 40.924 92.0734C40.7926 91.9461 40.6282 91.8799 40.4326 91.8759C40.2361 91.8719 40.0064 91.9441 39.7427 92.0965C39.4789 92.2489 39.2493 92.4415 39.0537 92.6721C38.8582 92.9028 38.6947 93.1575 38.5623 93.4373C38.4309 93.7171 38.3287 94.015 38.2564 94.3308C38.1832 94.6477 38.1391 94.9757 38.1221 95.3136C38.105 95.5463 38.094 95.804 38.09 96.0888C38.086 96.3726 38.084 96.6655 38.084 96.9673C38.084 97.2692 38.086 97.563 38.09 97.8478C38.094 98.1346 38.105 98.3894 38.1221 98.616C38.1562 99.2508 38.3026 99.7101 38.5623 99.9929C38.822 100.276 39.2152 100.265 39.7437 99.9598C40.2722 99.6549 40.6633 99.2127 40.919 98.633C41.1737 98.0524 41.3231 97.4226 41.3643 96.7437Z" fill="#455A64"/>
<path d="M45.5651 99.5466C45.4719 99.6008 45.3906 99.5948 45.3224 99.5286C45.2553 99.4634 45.2212 99.3591 45.2212 99.2147V86.5157C45.2212 86.3723 45.2553 86.2279 45.3224 86.0834C45.3906 85.939 45.4709 85.8398 45.5651 85.7856L47.2379 84.8199C47.3311 84.7657 47.4114 84.7727 47.4806 84.8379C47.5488 84.9031 47.5839 85.0084 47.5839 85.1518V97.8508C47.5839 97.9952 47.5488 98.1396 47.4806 98.283C47.4124 98.4285 47.3311 98.5267 47.2379 98.5809L45.5651 99.5466Z" fill="#455A64"/>
<path d="M51.4268 87.6318C51.4177 87.8073 51.4117 88.047 51.4067 88.3509C51.4037 88.6548 51.4007 88.9676 51.4007 89.2875C51.4007 89.6084 51.4037 89.9223 51.4067 90.2282C51.4117 90.5341 51.4177 90.7697 51.4268 90.9352C51.4438 91.227 51.4819 91.4928 51.5411 91.7335C51.6013 91.9752 51.6945 92.1627 51.8229 92.2981C51.9503 92.4355 52.1117 92.5087 52.3083 92.5197C52.5038 92.5317 52.7455 92.4535 53.0353 92.287C53.3242 92.1196 53.5628 91.93 53.7504 91.7164C53.9369 91.5038 54.0903 91.2882 54.2097 91.0686C54.327 90.85 54.4193 90.6293 54.4845 90.4087C54.5476 90.1881 54.5958 89.9895 54.6299 89.812C54.673 89.5784 54.7201 89.4029 54.7713 89.2895C54.8224 89.1742 54.9197 89.0759 55.0651 88.9917L56.7378 88.026C56.8141 87.9818 56.8802 87.9858 56.9364 88.04C56.9906 88.0931 57.0186 88.1784 57.0186 88.2967C57.0096 88.9696 56.9033 89.6606 56.6997 90.3676C56.4942 91.0756 56.2144 91.7485 55.8563 92.3873C55.4983 93.0261 55.0791 93.6118 54.5988 94.1443C54.1174 94.6778 53.5959 95.1071 53.0353 95.431C52.4226 95.785 51.875 95.9595 51.3947 95.9555C50.9143 95.9514 50.5031 95.805 50.1622 95.5172C49.8222 95.2294 49.5595 94.8132 49.377 94.2697C49.1944 93.7271 49.0891 93.1024 49.0641 92.3964C49.047 91.8699 49.039 91.2972 49.039 90.6805C49.039 90.0647 49.047 89.4701 49.0641 88.8964C49.0811 88.1664 49.1834 87.4223 49.3709 86.6651C49.5575 85.909 49.8192 85.1899 50.1562 84.511C50.4921 83.8331 50.9023 83.2123 51.3887 82.6497C51.873 82.0881 52.4226 81.6298 53.0353 81.2768C53.5959 80.9529 54.1174 80.7794 54.5988 80.7573C55.0791 80.7353 55.4983 80.8366 55.8563 81.0632C56.2144 81.2889 56.4942 81.6378 56.6997 82.1092C56.9033 82.5815 57.0096 83.1491 57.0186 83.813C57.0186 83.9303 56.9906 84.0477 56.9364 84.166C56.8812 84.2833 56.8141 84.3636 56.7378 84.4077L55.0651 85.3734C54.9207 85.4567 54.8224 85.4707 54.7713 85.4156C54.7201 85.3594 54.673 85.2391 54.6299 85.0545C54.5958 84.9161 54.5476 84.7747 54.4845 84.6283C54.4193 84.4819 54.328 84.3676 54.2097 84.2854C54.0893 84.2041 53.9359 84.164 53.7504 84.167C53.5628 84.171 53.3242 84.2553 53.0353 84.4227C52.7455 84.5902 52.5038 84.7918 52.3083 85.0295C52.1117 85.2681 51.9503 85.5279 51.8229 85.8107C51.6945 86.0945 51.6013 86.3913 51.5411 86.7002C51.4819 87.0101 51.4438 87.321 51.4268 87.6318Z" fill="#455A64"/>
<path d="M64.7306 85.3363C64.8228 85.2822 64.9051 85.2882 64.9733 85.3534C65.0414 85.4196 65.0756 85.5239 65.0756 85.6683V87.7512C65.0756 87.8956 65.0414 88.039 64.9733 88.1834C64.9051 88.3288 64.8238 88.4271 64.7306 88.4813L58.6774 91.9752C58.5841 92.0293 58.5039 92.0233 58.4357 91.9571C58.3675 91.8919 58.3334 91.7876 58.3334 91.6432V78.9452C58.3334 78.8018 58.3675 78.6574 58.4357 78.513C58.5029 78.3686 58.5841 78.2693 58.6774 78.2151L64.6273 74.7804C64.7215 74.7262 64.8018 74.7323 64.871 74.7974C64.9392 74.8626 64.9733 74.9679 64.9733 75.1113V77.1952C64.9733 77.3386 64.9392 77.4831 64.871 77.6275C64.8028 77.7719 64.7225 77.8702 64.6273 77.9243L60.6961 80.1947V82.3178L64.3475 80.2098C64.4407 80.1556 64.521 80.1627 64.5892 80.2278C64.6574 80.293 64.6925 80.3983 64.6925 80.5417V82.6246C64.6925 82.7691 64.6584 82.9135 64.5892 83.0579C64.521 83.2023 64.4407 83.3006 64.3475 83.3547L60.6961 85.4627V87.6649L64.7306 85.3363Z" fill="#455A64"/>
<path d="M13.1483 124.501L103.194 72.513V74.5929L13.1483 126.58V124.501Z" fill="#3F72AF"/>
<path opacity="0.2" d="M13.1483 124.501L103.194 72.513V74.5929L13.1483 126.58V124.501Z" fill="black"/>
<path d="M13.1483 178.569L103.194 126.58V128.66L13.1483 180.648V178.569Z" fill="#3F72AF"/>
<path opacity="0.2" d="M13.1483 178.569L103.194 126.58V128.66L13.1483 180.648V178.569Z" fill="black"/>
<path d="M13.1483 130.74L45.5652 112.024V116.183L13.1483 134.899V130.74Z" fill="#3F72AF"/>
<path d="M52.7686 107.865L67.1755 99.5466V103.705L52.7686 112.024V107.865Z" fill="#3F72AF"/>
<path d="M70.7777 97.4678L85.1846 89.1492V93.309L70.7777 101.627V97.4678Z" fill="#3F72AF"/>
<path d="M88.7868 87.0702L103.194 78.7516V82.9114L88.7868 91.229V87.0702Z" fill="#3F72AF"/>
<path d="M13.1483 143.217L103.194 91.229V99.5466L13.1483 151.535V143.217Z" fill="#E6E6E6"/>
<path d="M13.1483 159.853L103.194 107.865V116.184L13.1483 168.171V159.853Z" fill="#E6E6E6"/>
<path d="M16.7515 137.644C16.5208 137.644 16.2982 137.524 16.1748 137.311C15.9913 136.993 16.1006 136.586 16.4185 136.402L41.631 121.846C41.951 121.661 42.3561 121.772 42.5396 122.09C42.7231 122.408 42.6138 122.815 42.2959 122.998L17.0834 137.554C16.9781 137.615 16.8648 137.644 16.7515 137.644Z" fill="#455A64"/>
<path d="M56.3698 112.986C56.2174 112.986 56.0679 112.907 55.9857 112.764C55.8624 112.552 55.9356 112.281 56.1472 112.158L66.9528 105.921C67.1644 105.798 67.4362 105.871 67.5585 106.083C67.6819 106.296 67.6087 106.567 67.3971 106.689L56.5914 112.927C56.5212 112.967 56.445 112.986 56.3698 112.986Z" fill="#455A64"/>
<path d="M56.3698 115.958C56.2174 115.958 56.0679 115.879 55.9857 115.737C55.8624 115.524 55.9356 115.253 56.1472 115.131L66.9528 108.892C67.1644 108.77 67.4362 108.841 67.5585 109.055C67.6819 109.267 67.6087 109.538 67.3971 109.66L56.5914 115.899C56.5212 115.939 56.445 115.958 56.3698 115.958Z" fill="#455A64"/>
<path d="M74.38 104.15C74.2276 104.15 74.0781 104.07 73.9959 103.928C73.8726 103.715 73.9458 103.445 74.1574 103.322L84.962 97.0837C85.1736 96.9613 85.4454 97.0335 85.5667 97.2461C85.6901 97.4587 85.6169 97.7295 85.4053 97.8519L74.6006 104.091C74.5314 104.131 74.4552 104.15 74.38 104.15Z" fill="#455A64"/>
<path d="M92.3881 93.7522C92.2356 93.7522 92.0862 93.673 92.005 93.5306C91.8816 93.318 91.9548 93.0472 92.1664 92.9249L102.972 86.6862C103.184 86.5648 103.455 86.635 103.578 86.8486C103.701 87.0612 103.628 87.332 103.416 87.4543L92.6107 93.693C92.5395 93.7332 92.4633 93.7522 92.3881 93.7522Z" fill="#455A64"/>
<path d="M16.7515 145.961C16.5208 145.961 16.2982 145.842 16.1748 145.628C15.9913 145.31 16.1006 144.903 16.4185 144.72L34.4266 134.322C34.7465 134.138 35.1517 134.249 35.3352 134.566C35.5187 134.884 35.4094 135.291 35.0915 135.475L17.0824 145.872C16.9781 145.933 16.8648 145.961 16.7515 145.961Z" fill="#455A64"/>
<path d="M56.3698 121.303C56.2174 121.303 56.0679 121.224 55.9857 121.082C55.8624 120.869 55.9356 120.598 56.1472 120.476L66.9528 114.238C67.1644 114.117 67.4362 114.188 67.5585 114.401C67.6819 114.613 67.6087 114.884 67.3971 115.007L56.5914 121.244C56.5212 121.284 56.445 121.303 56.3698 121.303Z" fill="#455A64"/>
<path d="M56.3698 124.277C56.2174 124.277 56.0679 124.197 55.9857 124.055C55.8624 123.843 55.9356 123.572 56.1472 123.449L66.9528 117.21C67.1644 117.087 67.4362 117.159 67.5585 117.372C67.6819 117.585 67.6087 117.856 67.3971 117.978L56.5914 124.217C56.5212 124.257 56.445 124.277 56.3698 124.277Z" fill="#455A64"/>
<path d="M74.38 112.467C74.2276 112.467 74.0781 112.388 73.9959 112.246C73.8726 112.033 73.9458 111.762 74.1574 111.64L84.962 105.401C85.1736 105.279 85.4454 105.35 85.5667 105.564C85.6901 105.776 85.6169 106.047 85.4053 106.169L74.6006 112.408C74.5314 112.448 74.4552 112.467 74.38 112.467Z" fill="#455A64"/>
<path d="M92.3881 102.07C92.2356 102.07 92.0862 101.991 92.005 101.848C91.8816 101.636 91.9548 101.365 92.1664 101.242L102.972 95.0038C103.184 94.8814 103.455 94.9526 103.578 95.1662C103.701 95.3788 103.628 95.6496 103.416 95.772L92.6107 102.011C92.5395 102.051 92.4633 102.07 92.3881 102.07Z" fill="#455A64"/>
<path d="M16.7515 154.28C16.5208 154.28 16.2982 154.161 16.1748 153.947C15.9913 153.629 16.1006 153.222 16.4185 153.038L45.2333 136.402C45.5532 136.218 45.9593 136.328 46.1418 136.646C46.3254 136.964 46.216 137.371 45.8981 137.554L17.0834 154.191C16.9781 154.251 16.8648 154.28 16.7515 154.28Z" fill="#455A64"/>
<path d="M56.3698 129.622C56.2174 129.622 56.0679 129.542 55.9857 129.4C55.8624 129.189 55.9356 128.917 56.1472 128.795L66.9528 122.556C67.1644 122.434 67.4362 122.505 67.5585 122.718C67.6819 122.931 67.6087 123.202 67.3971 123.324L56.5914 129.562C56.5212 129.603 56.445 129.622 56.3698 129.622Z" fill="#455A64"/>
<path d="M56.3698 132.594C56.2174 132.594 56.0679 132.515 55.9857 132.373C55.8624 132.16 55.9356 131.889 56.1472 131.767L66.9528 125.528C67.1644 125.404 67.4362 125.478 67.5585 125.69C67.6819 125.902 67.6087 126.173 67.3971 126.296L56.5914 132.534C56.5212 132.575 56.445 132.594 56.3698 132.594Z" fill="#455A64"/>
<path d="M74.38 120.785C74.2276 120.785 74.0781 120.706 73.9959 120.563C73.8726 120.351 73.9458 120.08 74.1574 119.958L84.962 113.719C85.1736 113.597 85.4454 113.668 85.5667 113.881C85.6901 114.094 85.6169 114.365 85.4053 114.487L74.6006 120.726C74.5314 120.766 74.4552 120.785 74.38 120.785Z" fill="#455A64"/>
<path d="M92.3881 110.387C92.2356 110.387 92.0862 110.308 92.005 110.166C91.8816 109.953 91.9548 109.682 92.1664 109.56L102.972 103.321C103.184 103.199 103.455 103.27 103.578 103.484C103.701 103.696 103.628 103.967 103.416 104.09L92.6107 110.328C92.5395 110.368 92.4633 110.387 92.3881 110.387Z" fill="#455A64"/>
<path d="M16.7515 162.597C16.5208 162.597 16.2982 162.478 16.1748 162.265C15.9913 161.947 16.1006 161.539 16.4185 161.356L30.8254 153.038C31.1453 152.854 31.5514 152.964 31.734 153.282C31.9175 153.6 31.8082 154.007 31.4903 154.191L17.0834 162.508C16.9781 162.569 16.8648 162.597 16.7515 162.597Z" fill="#455A64"/>
<path d="M56.3698 137.94C56.2174 137.94 56.0679 137.86 55.9857 137.718C55.8624 137.505 55.9356 137.235 56.1472 137.112L66.9528 130.874C67.1644 130.75 67.4362 130.824 67.5585 131.036C67.6819 131.249 67.6087 131.519 67.3971 131.642L56.5914 137.879C56.5212 137.92 56.445 137.94 56.3698 137.94Z" fill="#455A64"/>
<path d="M56.3698 140.912C56.2174 140.912 56.0679 140.833 55.9857 140.69C55.8624 140.478 55.9356 140.207 56.1472 140.085L66.9528 133.846C67.1644 133.722 67.4362 133.795 67.5585 134.007C67.6819 134.219 67.6087 134.491 67.3971 134.613L56.5914 140.852C56.5212 140.893 56.445 140.912 56.3698 140.912Z" fill="#455A64"/>
<path d="M74.38 129.104C74.2276 129.104 74.0781 129.024 73.9959 128.882C73.8726 128.669 73.9458 128.399 74.1574 128.276L84.962 122.036C85.1736 121.915 85.4454 121.986 85.5667 122.199C85.6901 122.412 85.6169 122.682 85.4053 122.805L74.6006 129.043C74.5314 129.084 74.4552 129.104 74.38 129.104Z" fill="#455A64"/>
<path d="M92.3881 118.706C92.2356 118.706 92.0862 118.627 92.005 118.484C91.8816 118.272 91.9548 118.001 92.1664 117.879L102.972 111.64C103.184 111.517 103.455 111.589 103.578 111.802C103.701 112.015 103.628 112.286 103.416 112.408L92.6107 118.647C92.5395 118.687 92.4633 118.706 92.3881 118.706Z" fill="#455A64"/>
<path d="M16.7515 170.915C16.5208 170.915 16.2982 170.796 16.1748 170.583C15.9913 170.265 16.1006 169.858 16.4185 169.675L41.631 155.117C41.951 154.932 42.3561 155.044 42.5396 155.361C42.7231 155.679 42.6138 156.086 42.2959 156.27L17.0834 170.827C16.9781 170.887 16.8648 170.915 16.7515 170.915Z" fill="#455A64"/>
<path d="M56.3698 146.257C56.2174 146.257 56.0679 146.178 55.9857 146.035C55.8624 145.823 55.9356 145.552 56.1472 145.43L66.9528 139.192C67.1644 139.068 67.4362 139.142 67.5585 139.354C67.6819 139.566 67.6087 139.837 67.3971 139.959L56.5914 146.197C56.5212 146.239 56.445 146.257 56.3698 146.257Z" fill="#455A64"/>
<path d="M56.3698 149.231C56.2174 149.231 56.0679 149.151 55.9857 149.009C55.8624 148.797 55.9356 148.526 56.1472 148.403L66.9528 142.164C67.1644 142.041 67.4362 142.114 67.5585 142.326C67.6819 142.539 67.6087 142.809 67.3971 142.932L56.5914 149.17C56.5212 149.211 56.445 149.231 56.3698 149.231Z" fill="#455A64"/>
<path d="M74.38 137.422C74.2276 137.422 74.0781 137.343 73.9959 137.2C73.8726 136.988 73.9458 136.717 74.1574 136.595L84.962 130.356C85.1736 130.232 85.4454 130.306 85.5667 130.517C85.6901 130.73 85.6169 131.001 85.4053 131.123L74.6006 137.362C74.5314 137.403 74.4552 137.422 74.38 137.422Z" fill="#455A64"/>
<path d="M92.3881 127.024C92.2356 127.024 92.0862 126.944 92.005 126.802C91.8816 126.589 91.9548 126.319 92.1664 126.196L102.972 119.958C103.184 119.835 103.455 119.906 103.578 120.12C103.701 120.333 103.628 120.603 103.416 120.726L92.6107 126.963C92.5395 127.005 92.4633 127.024 92.3881 127.024Z" fill="#455A64"/>
<path d="M74.38 149.898C74.2276 149.898 74.0781 149.819 73.9959 149.677C73.8726 149.464 73.9458 149.193 74.1574 149.071L84.963 142.832C85.1746 142.708 85.4464 142.781 85.5687 142.994C85.6921 143.207 85.6189 143.477 85.4073 143.6L74.6016 149.838C74.5314 149.879 74.4552 149.898 74.38 149.898Z" fill="#455A64"/>
<path d="M92.3891 139.501C92.2367 139.501 92.0872 139.422 92.005 139.279C91.8816 139.067 91.9548 138.796 92.1664 138.674L102.971 132.436C103.183 132.312 103.454 132.385 103.577 132.597C103.7 132.81 103.627 133.081 103.415 133.203L92.6107 139.441C92.5405 139.482 92.4643 139.501 92.3891 139.501Z" fill="#455A64"/>
<path d="M74.38 154.058C74.2276 154.058 74.0781 153.979 73.9959 153.837C73.8726 153.624 73.9458 153.353 74.1574 153.231L84.963 146.992C85.1746 146.869 85.4464 146.942 85.5687 147.154C85.6921 147.366 85.6189 147.637 85.4073 147.759L74.6016 153.998C74.5314 154.039 74.4552 154.058 74.38 154.058Z" fill="#455A64"/>
<path d="M92.3891 143.66C92.2367 143.66 92.0872 143.581 92.005 143.438C91.8816 143.226 91.9548 142.955 92.1664 142.832L102.971 136.595C103.183 136.471 103.454 136.545 103.577 136.756C103.7 136.968 103.627 137.24 103.415 137.362L92.6107 143.6C92.5405 143.641 92.4643 143.66 92.3891 143.66Z" fill="#455A64"/>
<path d="M103.194 141.138L45.5652 174.41V186.886L103.195 153.614L103.194 141.138Z" fill="#3F72AF"/>
<path d="M56.3648 171.117C56.41 171.091 56.4491 171.095 56.4822 171.126C56.5153 171.158 56.5313 171.208 56.5313 171.277V172.283C56.5313 172.352 56.5153 172.421 56.4822 172.491C56.4481 172.561 56.41 172.608 56.3648 172.634L55.2808 173.26V178.123C55.2808 178.194 55.2647 178.262 55.2326 178.331C55.1995 178.402 55.1604 178.448 55.1153 178.474L54.308 178.94C54.2629 178.966 54.2238 178.964 54.1907 178.931C54.1576 178.9 54.1415 178.85 54.1415 178.78V173.916L53.0575 174.541C53.0123 174.567 52.9732 174.564 52.9401 174.533C52.907 174.501 52.891 174.451 52.891 174.382V173.377C52.891 173.308 52.907 173.239 52.9401 173.168C52.9732 173.099 53.0123 173.051 53.0575 173.025L56.3648 171.117Z" fill="#FAFAFA"/>
<path d="M56.8702 173.3C56.8823 172.94 56.9324 172.576 57.0206 172.213C57.1099 171.849 57.2342 171.505 57.3967 171.181C57.5582 170.857 57.7557 170.559 57.9884 170.289C58.221 170.02 58.4878 169.797 58.7917 169.622C59.0915 169.449 59.3593 169.363 59.5929 169.363C59.8266 169.365 60.0252 169.434 60.1866 169.57C60.3481 169.707 60.4745 169.907 60.5627 170.169C60.651 170.431 60.7011 170.736 60.7131 171.083C60.7211 171.349 60.7252 171.631 60.7252 171.929C60.7252 172.227 60.7211 172.507 60.7131 172.769C60.7011 173.131 60.651 173.493 60.5627 173.857C60.4745 174.221 60.3491 174.567 60.1866 174.894C60.0242 175.221 59.8266 175.519 59.5929 175.788C59.3593 176.055 59.0915 176.274 58.7917 176.448C58.4878 176.623 58.22 176.712 57.9884 176.715C57.7567 176.715 57.5592 176.645 57.3967 176.505C57.2353 176.365 57.1099 176.164 57.0206 175.901C56.9324 175.639 56.8823 175.336 56.8702 174.988C56.8622 174.734 56.8582 174.458 56.8582 174.161C56.8572 173.863 56.8622 173.577 56.8702 173.3ZM59.5729 173.379C59.5769 173.264 59.5819 173.134 59.5849 172.993C59.5889 172.852 59.5919 172.708 59.5919 172.563C59.5919 172.417 59.5889 172.279 59.5849 172.146C59.5819 172.012 59.5769 171.893 59.5729 171.788C59.5649 171.635 59.5438 171.502 59.5087 171.388C59.4736 171.277 59.4245 171.189 59.3603 171.128C59.2971 171.068 59.2169 171.035 59.1236 171.032C59.0284 171.03 58.917 171.065 58.7907 171.14C58.6633 171.213 58.553 171.305 58.4577 171.415C58.3635 171.527 58.2832 171.651 58.22 171.786C58.1569 171.921 58.1077 172.064 58.0716 172.217C58.0365 172.37 58.0155 172.529 58.0075 172.69C57.9984 172.801 57.9934 172.928 57.9924 173.064C57.9904 173.202 57.9894 173.342 57.9894 173.487C57.9894 173.633 57.9904 173.775 57.9924 173.912C57.9944 174.05 57.9994 174.173 58.0075 174.283C58.0235 174.589 58.0937 174.811 58.22 174.947C58.3444 175.084 58.5349 175.078 58.7897 174.931C59.0444 174.784 59.2329 174.57 59.3573 174.291C59.4816 174.01 59.5528 173.707 59.5729 173.379Z" fill="#FAFAFA"/>
<path d="M64.525 166.406C64.5701 166.38 64.6092 166.384 64.6423 166.415C64.6754 166.446 64.6914 166.497 64.6914 166.566V167.572C64.6914 167.641 64.6754 167.71 64.6423 167.779C64.6092 167.848 64.5701 167.896 64.525 167.923L63.4399 168.547V173.412C63.4399 173.481 63.4238 173.551 63.3918 173.62C63.3587 173.69 63.3195 173.737 63.2744 173.763L62.4671 174.229C62.422 174.256 62.3829 174.253 62.3498 174.22C62.3167 174.189 62.3007 174.139 62.3007 174.069V169.205L61.2166 169.831C61.1725 169.857 61.1324 169.855 61.0993 169.824C61.0662 169.791 61.0501 169.741 61.0501 169.672V168.667C61.0501 168.597 61.0662 168.528 61.0993 168.457C61.1324 168.388 61.1725 168.34 61.2166 168.314L64.525 166.406Z" fill="#FAFAFA"/>
<path d="M67.0933 164.923C67.1755 164.875 67.2377 164.875 67.2808 164.919C67.3239 164.963 67.354 165.017 67.3701 165.075L68.7129 170.274C68.7289 170.327 68.737 170.37 68.737 170.402C68.737 170.459 68.7239 170.515 68.6958 170.572C68.6698 170.627 68.6377 170.667 68.6006 170.688L67.8244 171.137C67.7431 171.184 67.684 171.19 67.6489 171.158C67.6148 171.124 67.5927 171.085 67.5847 171.038L67.4122 170.35L65.7735 171.296L65.6011 172.183C65.593 172.238 65.571 172.303 65.5369 172.377C65.5018 172.451 65.4426 172.513 65.3614 172.559L64.5852 173.007C64.5481 173.028 64.516 173.026 64.4899 173C64.4618 172.974 64.4488 172.934 64.4488 172.877C64.4488 172.845 64.4568 172.792 64.4729 172.72L65.8157 165.973C65.8317 165.894 65.8618 165.807 65.9049 165.712C65.948 165.618 66.0102 165.547 66.0924 165.499L67.0933 164.923ZM66.0955 169.642L67.0933 169.066L66.5949 167.078L66.0955 169.642Z" fill="#FAFAFA"/>
<path d="M72.2539 167.064C72.299 167.038 72.3381 167.04 72.3712 167.073C72.4033 167.104 72.4193 167.154 72.4193 167.225V168.229C72.4193 168.3 72.4033 168.369 72.3712 168.438C72.3381 168.507 72.299 168.555 72.2539 168.581L69.4028 170.227C69.3567 170.254 69.3175 170.251 69.2855 170.218C69.2524 170.187 69.2363 170.137 69.2363 170.068V163.942C69.2363 163.873 69.2524 163.804 69.2855 163.735C69.3175 163.665 69.3567 163.617 69.4028 163.591L70.2091 163.126C70.2552 163.1 70.2933 163.103 70.3264 163.135C70.3595 163.167 70.3765 163.217 70.3765 163.286V168.15L72.2539 167.064Z" fill="#FAFAFA"/>
<path d="M85.1755 154.352C85.3771 154.291 85.5536 154.28 85.706 154.316C85.8574 154.352 85.9848 154.42 86.0881 154.518C86.1904 154.616 86.2686 154.737 86.3217 154.881C86.3749 155.024 86.406 155.168 86.413 155.316C86.417 155.389 86.402 155.459 86.3669 155.527C86.3318 155.595 86.2927 155.642 86.2465 155.668L85.8163 155.918C85.7461 155.958 85.694 155.968 85.6589 155.947C85.6238 155.926 85.5927 155.888 85.5636 155.835C85.5024 155.713 85.4082 155.63 85.2828 155.585C85.1585 155.539 84.9719 155.59 84.7262 155.732C84.6199 155.793 84.5176 155.868 84.4204 155.96C84.3241 156.05 84.2399 156.148 84.1687 156.257C84.0965 156.365 84.0403 156.478 84.0002 156.596C83.9581 156.716 83.939 156.834 83.939 156.954C83.939 157.1 83.961 157.205 84.0052 157.27C84.0503 157.337 84.1235 157.374 84.2248 157.382C84.3251 157.39 84.4545 157.378 84.6129 157.343C84.7714 157.307 84.9639 157.263 85.1886 157.209C85.4343 157.148 85.6428 157.126 85.8143 157.137C85.9848 157.149 86.1242 157.201 86.2335 157.293C86.3418 157.386 86.42 157.519 86.4672 157.694C86.5143 157.868 86.5374 158.087 86.5374 158.344C86.5374 158.592 86.5073 158.84 86.4461 159.09C86.3849 159.34 86.2957 159.584 86.1784 159.823C86.061 160.059 85.9186 160.285 85.7501 160.497C85.5817 160.707 85.3911 160.897 85.1765 161.064V161.708C85.1765 161.778 85.1605 161.846 85.1284 161.916C85.0953 161.987 85.0562 162.033 85.011 162.059L84.5126 162.348C84.4665 162.375 84.4274 162.371 84.3953 162.339C84.3622 162.308 84.3462 162.258 84.3462 162.187V161.544C84.1606 161.606 83.9881 161.632 83.8257 161.621C83.6642 161.611 83.5218 161.565 83.4005 161.483C83.2791 161.401 83.1818 161.282 83.1076 161.125C83.0344 160.97 82.9933 160.773 82.9843 160.539C82.9803 160.465 82.9953 160.395 83.0314 160.327C83.0665 160.26 83.1056 160.213 83.1508 160.187L83.582 159.937C83.6522 159.897 83.7053 159.885 83.7424 159.901C83.7785 159.918 83.8096 159.958 83.8337 160.018C83.8628 160.084 83.8979 160.147 83.939 160.205C83.9791 160.263 84.0343 160.304 84.1055 160.327C84.1747 160.349 84.2619 160.351 84.3672 160.332C84.4715 160.313 84.6019 160.259 84.7573 160.169C84.8807 160.097 85 160.013 85.1143 159.92C85.2307 159.825 85.3309 159.719 85.4162 159.603C85.5024 159.487 85.5726 159.364 85.6258 159.236C85.6789 159.108 85.706 158.969 85.706 158.824C85.706 158.685 85.6769 158.588 85.6198 158.533C85.5616 158.478 85.4753 158.452 85.358 158.457C85.2407 158.46 85.0963 158.485 84.9238 158.527C84.7503 158.569 84.5517 158.612 84.3251 158.654C84.1195 158.697 83.941 158.71 83.7866 158.694C83.6321 158.68 83.5058 158.625 83.4055 158.532C83.3042 158.439 83.229 158.303 83.1808 158.126C83.1317 157.949 83.1066 157.718 83.1066 157.434C83.1066 157.188 83.1377 156.941 83.1989 156.698C83.2611 156.454 83.3453 156.216 83.4546 155.986C83.5639 155.755 83.6933 155.541 83.8457 155.343C83.9972 155.143 84.1636 154.967 84.3441 154.813V154.169C84.3441 154.099 84.3602 154.03 84.3933 153.96C84.4254 153.891 84.4645 153.844 84.5106 153.817L85.009 153.528C85.0542 153.502 85.0933 153.506 85.1264 153.537C85.1595 153.568 85.1745 153.619 85.1745 153.688V154.352H85.1755Z" fill="#FAFAFA"/>
<path d="M89.4557 151.881C89.6572 151.821 89.8327 151.81 89.9852 151.846C90.1366 151.881 90.264 151.949 90.3673 152.048C90.4706 152.146 90.5488 152.267 90.6009 152.41C90.6551 152.553 90.6852 152.697 90.6932 152.845C90.6972 152.918 90.6822 152.988 90.646 153.056C90.612 153.124 90.5718 153.17 90.5257 153.197L90.0955 153.446C90.0253 153.487 89.9731 153.496 89.938 153.475C89.904 153.454 89.8719 153.417 89.8438 153.363C89.7816 153.24 89.6883 153.157 89.563 153.113C89.4376 153.068 89.2511 153.118 89.0054 153.26C88.8991 153.321 88.7968 153.397 88.7005 153.489C88.6043 153.579 88.52 153.677 88.4488 153.784C88.3766 153.894 88.3205 154.006 88.2794 154.123C88.2382 154.243 88.2182 154.362 88.2182 154.481C88.2182 154.627 88.2402 154.732 88.2854 154.798C88.3305 154.865 88.4037 154.901 88.505 154.91C88.6053 154.917 88.7346 154.905 88.8931 154.87C89.0505 154.834 89.2431 154.791 89.4687 154.736C89.7144 154.676 89.923 154.653 90.0935 154.665C90.264 154.677 90.4044 154.729 90.5127 154.82C90.622 154.912 90.7002 155.046 90.7463 155.222C90.7935 155.396 90.8175 155.614 90.8175 155.872C90.8175 156.119 90.7865 156.367 90.7253 156.618C90.6641 156.868 90.5749 157.112 90.4575 157.35C90.3412 157.588 90.1978 157.813 90.0303 158.024C89.8618 158.235 89.6713 158.425 89.4567 158.591V159.236C89.4567 159.307 89.4406 159.375 89.4085 159.445C89.3754 159.515 89.3353 159.563 89.2912 159.588L88.7928 159.877C88.7467 159.903 88.7076 159.9 88.6755 159.868C88.6414 159.837 88.6253 159.787 88.6253 159.715V159.071C88.4398 159.135 88.2673 159.16 88.1048 159.15C87.9434 159.14 87.802 159.093 87.6796 159.011C87.5593 158.93 87.461 158.811 87.3878 158.653C87.3146 158.497 87.2725 158.301 87.2644 158.066C87.2594 157.993 87.2745 157.922 87.3106 157.854C87.3457 157.787 87.3848 157.74 87.4309 157.714L87.8622 157.464C87.9313 157.424 87.9855 157.412 88.0216 157.429C88.0587 157.445 88.0888 157.485 88.1139 157.546C88.143 157.612 88.1771 157.675 88.2182 157.733C88.2593 157.791 88.3144 157.831 88.3846 157.854C88.4548 157.877 88.5411 157.879 88.6464 157.86C88.7507 157.84 88.882 157.787 89.0375 157.697C89.1608 157.625 89.2792 157.542 89.3945 157.447C89.5098 157.352 89.6101 157.246 89.6964 157.13C89.7826 157.014 89.8518 156.892 89.9059 156.763C89.9591 156.635 89.9852 156.497 89.9852 156.352C89.9852 156.213 89.9561 156.115 89.8999 156.06C89.8418 156.006 89.7545 155.98 89.6372 155.984C89.5198 155.988 89.3755 156.012 89.203 156.055C89.0305 156.096 88.8309 156.14 88.6053 156.181C88.3987 156.224 88.2202 156.238 88.0667 156.222C87.9113 156.207 87.7849 156.152 87.6846 156.059C87.5834 155.967 87.5092 155.83 87.46 155.654C87.4109 155.477 87.3868 155.246 87.3868 154.962C87.3868 154.715 87.4169 154.469 87.4781 154.225C87.5402 153.981 87.6255 153.743 87.7338 153.514C87.8431 153.283 87.9735 153.069 88.1249 152.871C88.2763 152.672 88.4438 152.496 88.6233 152.34V151.697C88.6233 151.627 88.6393 151.558 88.6734 151.487C88.7055 151.419 88.7447 151.371 88.7908 151.345L89.2892 151.057C89.3333 151.031 89.3734 151.034 89.4065 151.065C89.4396 151.097 89.4547 151.148 89.4547 151.217L89.4557 151.881Z" fill="#FAFAFA"/>
<path d="M93.7357 149.41C93.9373 149.35 94.1138 149.338 94.2662 149.375C94.4177 149.41 94.545 149.477 94.6473 149.576C94.7506 149.674 94.8278 149.795 94.882 149.939C94.9351 150.081 94.9662 150.226 94.9742 150.374C94.9773 150.447 94.9632 150.517 94.9271 150.585C94.893 150.653 94.8539 150.699 94.8078 150.726L94.3776 150.974C94.3063 151.015 94.2552 151.025 94.2201 151.003C94.186 150.982 94.1539 150.945 94.1248 150.892C94.0636 150.77 93.9704 150.686 93.844 150.642C93.7187 150.597 93.5332 150.646 93.2875 150.788C93.1812 150.85 93.0789 150.926 92.9816 151.017C92.8853 151.107 92.8011 151.205 92.7299 151.313C92.6577 151.422 92.6015 151.534 92.5604 151.652C92.5203 151.771 92.4992 151.89 92.4992 152.01C92.4992 152.156 92.5213 152.261 92.5664 152.326C92.6115 152.393 92.6837 152.429 92.785 152.438C92.8853 152.446 93.0147 152.434 93.1731 152.398C93.3316 152.363 93.5231 152.319 93.7488 152.264C93.9945 152.205 94.2031 152.181 94.3725 152.193C94.544 152.205 94.6834 152.257 94.7927 152.349C94.901 152.442 94.9793 152.575 95.0264 152.752C95.0735 152.926 95.0966 153.143 95.0966 153.402C95.0966 153.648 95.0665 153.897 95.0053 154.148C94.9442 154.398 94.8549 154.643 94.7366 154.88C94.6192 155.118 94.4778 155.344 94.3084 155.555C94.1409 155.765 93.9493 155.956 93.7347 156.123V156.767C93.7347 156.837 93.7187 156.906 93.6866 156.976C93.6535 157.045 93.6144 157.093 93.5693 157.119L93.0708 157.407C93.0247 157.433 92.9856 157.431 92.9535 157.398C92.9204 157.367 92.9044 157.317 92.9044 157.246V156.602C92.7189 156.666 92.5464 156.691 92.3839 156.68C92.2224 156.67 92.08 156.623 91.9587 156.541C91.8373 156.46 91.7401 156.341 91.6658 156.184C91.5926 156.027 91.5505 155.831 91.5425 155.596C91.5385 155.523 91.5535 155.452 91.5896 155.384C91.6237 155.317 91.6628 155.271 91.709 155.244L92.1402 154.995C92.2104 154.955 92.2635 154.943 92.3006 154.96C92.3367 154.976 92.3678 155.015 92.3929 155.077C92.421 155.143 92.4571 155.205 92.4972 155.264C92.5393 155.323 92.5935 155.363 92.6647 155.386C92.7339 155.409 92.8211 155.411 92.9264 155.392C93.0307 155.372 93.1611 155.318 93.3165 155.228C93.4399 155.156 93.5592 155.073 93.6736 154.979C93.7899 154.884 93.8902 154.778 93.9754 154.661C94.0617 154.546 94.1308 154.423 94.185 154.295C94.2381 154.166 94.2652 154.029 94.2652 153.884C94.2652 153.745 94.2362 153.647 94.179 153.592C94.1208 153.538 94.0346 153.512 93.9172 153.515C93.7999 153.52 93.6555 153.543 93.483 153.586C93.3105 153.628 93.111 153.671 92.8853 153.712C92.6797 153.755 92.5012 153.769 92.3468 153.753C92.1924 153.737 92.066 153.683 91.9647 153.59C91.8644 153.498 91.7892 153.36 91.7401 153.184C91.6909 153.007 91.6658 152.777 91.6658 152.493C91.6658 152.245 91.6959 152 91.7581 151.756C91.8203 151.511 91.9055 151.274 92.0148 151.045C92.1231 150.813 92.2535 150.599 92.406 150.4C92.5574 150.202 92.7239 150.026 92.9044 149.871V149.227C92.9044 149.157 92.9204 149.088 92.9535 149.018C92.9856 148.95 93.0247 148.901 93.0708 148.875L93.5693 148.587C93.6144 148.561 93.6535 148.563 93.6866 148.594C93.7197 148.627 93.7347 148.677 93.7347 148.746L93.7357 149.41Z" fill="#FAFAFA"/>
<path d="M98.0169 146.939C98.2185 146.879 98.394 146.867 98.5464 146.904C98.6978 146.939 98.8252 147.006 98.9285 147.105C99.0308 147.203 99.109 147.324 99.1622 147.468C99.2153 147.611 99.2464 147.755 99.2534 147.903C99.2575 147.976 99.2424 148.046 99.2073 148.114C99.1732 148.182 99.1331 148.228 99.087 148.255L98.6567 148.502C98.5865 148.545 98.5344 148.554 98.4993 148.532C98.4652 148.511 98.4331 148.474 98.404 148.42C98.3428 148.298 98.2496 148.215 98.1232 148.17C97.9989 148.125 97.8123 148.174 97.5667 148.316C97.4603 148.378 97.3581 148.454 97.2608 148.545C97.1655 148.635 97.0813 148.733 97.0091 148.841C96.9369 148.95 96.8807 149.062 96.8406 149.18C96.7995 149.299 96.7794 149.418 96.7794 149.538C96.7794 149.684 96.8015 149.789 96.8466 149.854C96.8917 149.921 96.9639 149.957 97.0652 149.965C97.1665 149.973 97.2949 149.961 97.4533 149.925C97.6118 149.89 97.8043 149.846 98.029 149.791C98.2747 149.732 98.4833 149.708 98.6537 149.72C98.8242 149.732 98.9636 149.784 99.0729 149.875C99.1812 149.968 99.2595 150.101 99.3066 150.278C99.3537 150.451 99.3768 150.669 99.3768 150.928C99.3768 151.174 99.3467 151.423 99.2845 151.673C99.2234 151.924 99.1341 152.169 99.0168 152.406C98.8994 152.644 98.757 152.87 98.5876 153.08C98.4201 153.291 98.2285 153.482 98.0149 153.648V154.292C98.0149 154.362 97.9989 154.431 97.9658 154.5C97.9327 154.57 97.8936 154.618 97.8485 154.644L97.35 154.932C97.3039 154.958 97.2648 154.956 97.2337 154.923C97.2006 154.892 97.1846 154.841 97.1846 154.771V154.127C96.999 154.191 96.8266 154.216 96.6641 154.205C96.5026 154.195 96.3602 154.147 96.2389 154.066C96.1185 153.985 96.0203 153.866 95.9461 153.709C95.8728 153.552 95.8317 153.357 95.8227 153.121C95.8187 153.047 95.8337 152.977 95.8699 152.909C95.905 152.842 95.944 152.796 95.9892 152.769L96.4204 152.52C96.4906 152.479 96.5437 152.468 96.5809 152.485C96.617 152.501 96.6481 152.54 96.6731 152.602C96.7022 152.668 96.7373 152.729 96.7784 152.789C96.8195 152.848 96.8737 152.888 96.9449 152.911C97.0141 152.934 97.1013 152.936 97.2066 152.917C97.3109 152.897 97.4413 152.843 97.5967 152.753C97.7201 152.681 97.8394 152.598 97.9547 152.504C98.0701 152.409 98.1704 152.303 98.2566 152.186C98.3428 152.071 98.413 151.948 98.4652 151.82C98.5193 151.691 98.5454 151.554 98.5454 151.409C98.5454 151.27 98.5164 151.172 98.4592 151.117C98.402 151.063 98.3148 151.037 98.1974 151.04C98.0801 151.045 97.9357 151.069 97.7632 151.111C97.5897 151.153 97.3912 151.196 97.1645 151.237C96.9589 151.28 96.7804 151.294 96.627 151.278C96.4715 151.263 96.3452 151.208 96.2449 151.115C96.1436 151.023 96.0684 150.885 96.0193 150.709C95.9701 150.532 95.945 150.302 95.945 150.018C95.945 149.77 95.9761 149.525 96.0373 149.281C96.0995 149.036 96.1837 148.799 96.293 148.57C96.4024 148.339 96.5317 148.124 96.6841 147.926C96.8356 147.728 97.0021 147.552 97.1826 147.396V146.752C97.1826 146.682 97.1986 146.613 97.2317 146.543C97.2638 146.475 97.3029 146.426 97.348 146.4L97.8464 146.112C97.8916 146.086 97.9307 146.088 97.9638 146.119C97.9969 146.152 98.0129 146.202 98.0129 146.271V146.939H98.0169Z" fill="#FAFAFA"/>
<path d="M16.7504 191.489C16.598 191.489 16.4486 191.41 16.3674 191.268C16.244 191.055 16.3172 190.784 16.5288 190.662L38.1391 178.185C38.3507 178.06 38.6225 178.134 38.7448 178.346C38.8682 178.558 38.795 178.83 38.5834 178.951L16.9731 191.428C16.9019 191.47 16.8256 191.489 16.7504 191.489Z" fill="#455A64"/>
<path d="M16.7504 195.648C16.598 195.648 16.4486 195.569 16.3674 195.427C16.244 195.215 16.3172 194.943 16.5288 194.822L38.1391 182.344C38.3507 182.221 38.6225 182.293 38.7448 182.506C38.8682 182.719 38.795 182.989 38.5834 183.112L16.9731 195.589C16.9019 195.629 16.8256 195.648 16.7504 195.648Z" fill="#455A64"/>
<path d="M16.7504 199.807C16.598 199.807 16.4486 199.728 16.3674 199.585C16.244 199.373 16.3172 199.102 16.5288 198.98L38.1391 186.502C38.3507 186.379 38.6225 186.452 38.7448 186.664C38.8682 186.876 38.795 187.147 38.5834 187.269L16.9731 199.747C16.9019 199.788 16.8256 199.807 16.7504 199.807Z" fill="#455A64"/>
</svg>
