<svg width="145" height="104" viewBox="0 0 145 104" fill="none" xmlns="http://www.w3.org/2000/svg">
<path d="M0.0657081 37.0941V45.4621C0.153242 45.946 0.314232 46.429 0.578845 46.8837L8.09665 59.8819C9.31306 61.9918 11.9954 64.6742 14.1053 65.8906L77.9413 102.762C80.0512 103.979 83.4519 103.979 85.5617 102.762L143.417 69.3497C144.473 68.749 145 67.9431 145 67.1513V60.2784C145 59.4876 144.472 58.6957 143.417 58.08L79.5813 21.2073C77.4714 19.9908 74.7891 17.3095 73.5737 15.2137L66.07 2.20044C64.8536 0.104665 62.1571 -0.627804 60.0613 0.588609L2.19066 34.0012C1.00342 34.6914 0.255867 35.8485 0.0657081 37.0941Z" fill="#263238"/>
<path d="M81.7242 22.4469L143.416 58.081C144.472 58.6968 144.999 59.4876 144.999 60.2794V67.1523C144.999 67.9441 144.472 68.75 143.416 69.3507L85.5606 102.763C84.4991 103.375 83.1107 103.678 81.7242 103.674V22.4469Z" fill="#37474F"/>
<path d="M0.0656501 38.5892C0.153184 39.0731 0.314174 39.5561 0.578787 40.0108L1.41386 41.4617L8.09659 53.0091C9.313 55.1189 11.9954 57.8013 14.1052 59.0177L77.9412 95.8904C80.0511 97.1068 83.4518 97.1068 85.5617 95.8904L141.278 63.7234L143.417 62.4778C144.473 61.862 145 61.0712 145 60.2794C145 59.4885 144.472 58.6967 143.417 58.081L79.5812 21.2083C77.4714 19.9918 74.789 17.3105 73.5736 15.2147L66.0699 2.20142C64.8535 0.105647 62.1571 -0.626822 60.0613 0.589592L2.1906 34.0022C1.00336 34.6904 0.255809 35.8485 0.0656501 37.0941C-0.0218834 37.578 -0.0218834 38.0911 0.0656501 38.5892Z" fill="#455A64"/>
<path d="M66.9181 16.6686L62.5836 9.49589C61.7465 8.11044 59.9315 7.6436 58.5299 8.45253L10.0314 36.4532C8.62982 37.2621 8.17204 39.0419 9.00914 40.4274L13.3435 47.6001C14.1806 48.9856 15.9957 49.4524 17.3973 48.6435L65.8958 20.6428C67.2974 19.8329 67.7552 18.054 66.9181 16.6686Z" fill="#3F72AF"/>
<path opacity="0.75" d="M66.9181 16.6686L62.5836 9.49589C61.7465 8.11044 59.9315 7.6436 58.5299 8.45253L10.0314 36.4532C8.62982 37.2621 8.17204 39.0419 9.00914 40.4274L13.3435 47.6001C14.1806 48.9856 15.9957 49.4524 17.3973 48.6435L65.8958 20.6428C67.2974 19.8329 67.7552 18.054 66.9181 16.6686Z" fill="white"/>
<path d="M37.9927 55.9912L31.9217 59.4966C31.2557 59.8809 30.1761 59.8809 29.51 59.4966L26.2663 57.6242C25.9433 57.4381 25.7964 57.1966 25.7944 56.9531C25.7944 56.8847 25.7934 55.2739 25.7944 55.2044C25.7974 54.962 25.9443 54.7225 26.2663 54.5374L32.3373 51.032C33.0033 50.6477 34.0829 50.6477 34.7479 51.032L37.9917 52.9044C38.3117 53.0885 38.4585 53.327 38.4626 53.5685C38.4636 53.6389 38.4636 55.2527 38.4626 55.3212C38.4636 55.5636 38.3157 55.8051 37.9927 55.9912Z" fill="#3F72AF"/>
<path opacity="0.2" d="M37.9927 55.9912L31.9217 59.4966C31.2557 59.8809 30.1761 59.8809 29.51 59.4966L26.2663 57.6242C25.9433 57.4381 25.7964 57.1966 25.7944 56.9531C25.7944 56.8847 25.7934 55.2739 25.7944 55.2044C25.7974 54.962 25.9443 54.7225 26.2663 54.5374L32.3373 51.032C33.0033 50.6477 34.0829 50.6477 34.7479 51.032L37.9917 52.9044C38.3117 53.0885 38.4585 53.327 38.4626 53.5685C38.4636 53.6389 38.4636 55.2527 38.4626 55.3212C38.4636 55.5636 38.3157 55.8051 37.9927 55.9912Z" fill="black"/>
<path d="M32.3383 51.032L26.2673 54.5374C25.6012 54.9217 25.6012 55.5455 26.2673 55.9299L29.5111 57.8023C30.1771 58.1866 31.2567 58.1866 31.9228 57.8023L37.9938 54.2969C38.6598 53.9126 38.6598 53.2888 37.9938 52.9044L34.75 51.032C34.0839 50.6467 33.0044 50.6467 32.3383 51.032Z" fill="#3F72AF"/>
<path opacity="0.1" d="M38.4637 53.7858V55.3161C38.4637 55.5576 38.3158 55.8081 37.9908 55.9932L31.9168 59.4986C31.5928 59.6938 31.1562 59.7864 30.7115 59.7864V58.09C31.1562 58.09 31.5828 57.9975 31.9168 57.8023L37.9908 54.2969C38.2413 54.147 38.3993 53.9709 38.4637 53.7858Z" fill="black"/>
<path d="M52.1349 47.8285L46.0639 51.3339C45.3979 51.7182 44.3183 51.7182 43.6522 51.3339L40.4085 49.4615C40.0855 49.2753 39.9386 49.0339 39.9366 48.7904C39.9366 48.722 39.9356 47.1111 39.9366 47.0417C39.9396 46.7992 40.0865 46.5598 40.4085 46.3747L46.4805 42.8693C47.1465 42.4849 48.2261 42.4849 48.8912 42.8693L52.1349 44.7417C52.4549 44.9258 52.6018 45.1643 52.6068 45.4047C52.6078 45.4752 52.6078 47.089 52.6068 47.1574C52.6048 47.4019 52.4579 47.6424 52.1349 47.8285Z" fill="#3F72AF"/>
<path opacity="0.2" d="M52.1349 47.8285L46.0639 51.3339C45.3979 51.7182 44.3183 51.7182 43.6522 51.3339L40.4085 49.4615C40.0855 49.2753 39.9386 49.0339 39.9366 48.7904C39.9366 48.722 39.9356 47.1111 39.9366 47.0417C39.9396 46.7992 40.0865 46.5598 40.4085 46.3747L46.4805 42.8693C47.1465 42.4849 48.2261 42.4849 48.8912 42.8693L52.1349 44.7417C52.4549 44.9258 52.6018 45.1643 52.6068 45.4047C52.6078 45.4752 52.6078 47.089 52.6068 47.1574C52.6048 47.4019 52.4579 47.6424 52.1349 47.8285Z" fill="black"/>
<path d="M46.4795 42.8693L40.4085 46.3747C39.7425 46.759 39.7425 47.3828 40.4085 47.7671L43.6523 49.6396C44.3184 50.0239 45.3979 50.0239 46.064 49.6396L52.135 46.1342C52.8011 45.7499 52.8011 45.1261 52.135 44.7417L48.8912 42.8693C48.2252 42.4849 47.1456 42.4849 46.4795 42.8693Z" fill="#3F72AF"/>
<path opacity="0.1" d="M52.6058 45.6231V47.1534C52.6058 47.3949 52.4579 47.6444 52.1329 47.8305L46.0589 51.3359C45.7349 51.5311 45.2983 51.6236 44.8535 51.6236V49.9273C45.2983 49.9273 45.7249 49.8347 46.0589 49.6396L52.1329 46.1342C52.3834 45.9853 52.5404 45.8092 52.6058 45.6231Z" fill="black"/>
<path d="M66.2761 39.6667L60.2051 43.1721C59.5391 43.5564 58.4595 43.5564 57.7934 43.1721L54.5497 41.2997C54.2267 41.1135 54.0798 40.8721 54.0778 40.6286C54.0778 40.5602 54.0768 38.9493 54.0778 38.8799C54.0808 38.6374 54.2277 38.398 54.5497 38.2129L60.6207 34.7075C61.2867 34.3231 62.3663 34.3231 63.0314 34.7075L66.2751 36.5799C66.5951 36.764 66.742 37.0025 66.747 37.2439C66.748 37.3144 66.748 38.9282 66.747 38.9966C66.747 39.2391 66.5991 39.4796 66.2761 39.6667Z" fill="#3F72AF"/>
<path opacity="0.2" d="M66.2761 39.6667L60.2051 43.1721C59.5391 43.5564 58.4595 43.5564 57.7934 43.1721L54.5497 41.2997C54.2267 41.1135 54.0798 40.8721 54.0778 40.6286C54.0778 40.5602 54.0768 38.9493 54.0778 38.8799C54.0808 38.6374 54.2277 38.398 54.5497 38.2129L60.6207 34.7075C61.2867 34.3231 62.3663 34.3231 63.0314 34.7075L66.2751 36.5799C66.5951 36.764 66.742 37.0025 66.747 37.2439C66.748 37.3144 66.748 38.9282 66.747 38.9966C66.747 39.2391 66.5991 39.4796 66.2761 39.6667Z" fill="black"/>
<path d="M60.6217 34.7065L54.5507 38.2119C53.8847 38.5962 53.8847 39.22 54.5507 39.6044L57.7945 41.4768C58.4606 41.8611 59.5402 41.8611 60.2062 41.4768L66.2772 37.9714C66.9433 37.5871 66.9433 36.9633 66.2772 36.5789L63.0334 34.7065C62.3674 34.3222 61.2878 34.3222 60.6217 34.7065Z" fill="#3F72AF"/>
<path opacity="0.1" d="M66.747 37.4613V38.9916C66.747 39.2331 66.5991 39.4826 66.2741 39.6687L60.2001 43.1741C59.8762 43.3683 59.4395 43.4618 58.9948 43.4618V41.7645C59.4395 41.7645 59.8661 41.6719 60.2001 41.4767L66.2741 37.9714C66.5247 37.8225 66.6826 37.6464 66.747 37.4613Z" fill="black"/>
<path d="M80.4184 31.5041L74.3474 35.0094C73.6813 35.3938 72.6017 35.3938 71.9357 35.0094L68.6919 33.137C68.3689 32.9509 68.222 32.7094 68.22 32.4659C68.22 32.3975 68.219 30.7867 68.22 30.7172C68.223 30.4748 68.3699 30.2353 68.6919 30.0502L74.7629 26.5448C75.429 26.1605 76.5085 26.1605 77.1736 26.5448L80.4173 28.4172C80.7373 28.6014 80.8842 28.8398 80.8892 29.0813C80.8902 29.1517 80.8892 30.7656 80.8892 30.834C80.8882 31.0764 80.7413 31.3179 80.4184 31.5041Z" fill="#3F72AF"/>
<path opacity="0.2" d="M80.4184 31.5041L74.3474 35.0094C73.6813 35.3938 72.6017 35.3938 71.9357 35.0094L68.6919 33.137C68.3689 32.9509 68.222 32.7094 68.22 32.4659C68.22 32.3975 68.219 30.7867 68.22 30.7172C68.223 30.4748 68.3699 30.2353 68.6919 30.0502L74.7629 26.5448C75.429 26.1605 76.5085 26.1605 77.1736 26.5448L80.4173 28.4172C80.7373 28.6014 80.8842 28.8398 80.8892 29.0813C80.8902 29.1517 80.8892 30.7656 80.8892 30.834C80.8882 31.0764 80.7413 31.3179 80.4184 31.5041Z" fill="black"/>
<path d="M74.7629 26.5448L68.6919 30.0502C68.0258 30.4345 68.0258 31.0583 68.6919 31.4427L71.9356 33.3151C72.6017 33.6994 73.6813 33.6994 74.3473 33.3151L80.4183 29.8097C81.0844 29.4254 81.0844 28.8016 80.4183 28.4172L77.1746 26.5448C76.5085 26.1605 75.4289 26.1605 74.7629 26.5448Z" fill="#3F72AF"/>
<path opacity="0.1" d="M80.8892 29.2986V30.8289C80.8892 31.0704 80.7413 31.3199 80.4163 31.5061L74.3423 35.0114C74.0184 35.2066 73.5817 35.2992 73.137 35.2992V33.6018C73.5817 33.6018 74.0083 33.5093 74.3423 33.3141L80.4163 29.8087C80.6669 29.6608 80.8238 29.4837 80.8892 29.2986Z" fill="black"/>
<path d="M52.1611 64.1711L46.0901 67.6764C45.4241 68.0608 44.3445 68.0608 43.6784 67.6764L37.5773 64.154C37.2543 63.9678 37.1074 63.7264 37.1054 63.4829C37.1054 63.4145 37.1044 61.8036 37.1054 61.7342C37.1084 61.4917 37.2553 61.2523 37.5773 61.0672L43.6483 57.5618C44.3143 57.1775 45.3939 57.1775 46.0589 57.5618L52.1601 61.0843C52.4801 61.2684 52.627 61.5068 52.631 61.7483C52.632 61.8187 52.632 63.4326 52.631 63.501C52.631 63.7435 52.4831 63.9839 52.1611 64.1711Z" fill="#E0E0E0"/>
<path d="M43.6483 57.5618L37.5773 61.0672C36.9113 61.4515 36.9113 62.0753 37.5773 62.4597L43.6785 65.9821C44.3445 66.3665 45.4241 66.3665 46.0902 65.9821L52.1612 62.4768C52.8272 62.0924 52.8272 61.4686 52.1612 61.0843L46.06 57.5618C45.3939 57.1775 44.3144 57.1775 43.6483 57.5618Z" fill="#FAFAFA"/>
<path d="M52.6321 61.9647V63.495C52.6321 63.7365 52.4842 63.987 52.1592 64.1721L46.0852 67.6775C45.7612 67.8727 45.3245 67.9652 44.8798 67.9652V66.2689C45.3245 66.2689 45.7511 66.1763 46.0852 65.9811L52.1592 62.4758C52.4087 62.3269 52.5667 62.1508 52.6321 61.9647Z" fill="#EBEBEB"/>
<path d="M52.632 61.9647V61.7604C52.632 61.5753 52.5485 61.3992 52.3815 61.2413C52.632 61.4546 52.7145 61.7242 52.632 61.9647Z" fill="#FAFAFA"/>
<path d="M66.2821 55.9681L60.2111 59.4734C59.545 59.8578 58.4655 59.8578 57.7994 59.4734L51.6982 55.951C51.3752 55.7648 51.2283 55.5234 51.2263 55.2799C51.2263 55.2115 51.2253 53.6006 51.2263 53.5312C51.2293 53.2887 51.3762 53.0493 51.6982 52.8642L57.7692 49.3588C58.4353 48.9744 59.5149 48.9744 60.1799 49.3588L66.2811 52.8813C66.601 53.0654 66.7479 53.3038 66.753 53.5443C66.754 53.6147 66.753 55.2286 66.753 55.297C66.752 55.5415 66.6051 55.7819 66.2821 55.9681Z" fill="#E0E0E0"/>
<path d="M57.7693 49.3598L51.6983 52.8651C51.0322 53.2495 51.0322 53.8733 51.6983 54.2576L57.7995 57.7801C58.4655 58.1644 59.5451 58.1644 60.2112 57.7801L66.2822 54.2747C66.9482 53.8904 66.9482 53.2666 66.2822 52.8823L60.181 49.3598C59.5149 48.9744 58.4354 48.9754 57.7693 49.3598Z" fill="#FAFAFA"/>
<path d="M66.753 53.7626V55.293C66.753 55.5344 66.6051 55.784 66.2801 55.9701L60.2061 59.4754C59.8812 59.6696 59.4455 59.7632 59.0008 59.7632V58.0659C59.4455 58.0659 59.8721 57.9733 60.2061 57.7781L66.2801 54.2727C66.5297 54.1248 66.6876 53.9488 66.753 53.7626Z" fill="#EBEBEB"/>
<path d="M66.7531 53.7627V53.5584C66.7531 53.3733 66.6696 53.1972 66.5026 53.0392C66.7531 53.2535 66.8366 53.5222 66.7531 53.7627Z" fill="#FAFAFA"/>
<path d="M80.4033 47.7661L74.3323 51.2715C73.6662 51.6558 72.5866 51.6558 71.9206 51.2715L65.8194 47.749C65.4964 47.5629 65.3496 47.3214 65.3475 47.0779C65.3475 47.0095 65.3465 45.3987 65.3475 45.3293C65.3506 45.0868 65.4974 44.8473 65.8194 44.6622L71.8904 41.1568C72.5565 40.7725 73.6361 40.7725 74.3011 41.1568L80.4023 44.6793C80.7223 44.8634 80.8691 45.1019 80.8732 45.3433C80.8742 45.4138 80.8742 47.0276 80.8732 47.096C80.8732 47.3395 80.7263 47.58 80.4033 47.7661Z" fill="#E0E0E0"/>
<path d="M71.8904 41.1578L65.8194 44.6632C65.1533 45.0475 65.1533 45.6713 65.8194 46.0557L71.9206 49.5781C72.5866 49.9625 73.6662 49.9625 74.3323 49.5781L80.4032 46.0728C81.0693 45.6884 81.0693 45.0646 80.4032 44.6803L74.3021 41.1578C73.636 40.7725 72.5564 40.7725 71.8904 41.1578Z" fill="#FAFAFA"/>
<path d="M80.8742 45.5607V47.091C80.8742 47.3325 80.7263 47.583 80.4013 47.7681L74.3272 51.2735C74.0033 51.4687 73.5666 51.5613 73.1219 51.5613V49.8639C73.5666 49.8639 73.9932 49.7713 74.3272 49.5761L80.4013 46.0708C80.6518 45.9229 80.8088 45.7468 80.8742 45.5607Z" fill="#EBEBEB"/>
<path d="M80.8741 45.5607V45.3574C80.8741 45.1723 80.7906 44.9962 80.6235 44.8383C80.8741 45.0506 80.9576 45.3202 80.8741 45.5607Z" fill="#FAFAFA"/>
<path d="M64.8565 71.4997L58.7855 75.0051C58.1195 75.3894 57.0399 75.3894 56.3738 75.0051L50.2726 71.4826C49.9497 71.2965 49.8028 71.055 49.8008 70.8115C49.8008 70.7431 49.7998 69.1323 49.8008 69.0629C49.8038 68.8204 49.9507 68.5809 50.2726 68.3958L56.3436 64.8905C57.0097 64.5061 58.0893 64.5061 58.7543 64.8905L64.8555 68.4129C65.1755 68.598 65.3224 68.8355 65.3274 69.077C65.3284 69.1474 65.3274 70.7612 65.3274 70.8296C65.3274 71.0721 65.1795 71.3126 64.8565 71.4997Z" fill="#E0E0E0"/>
<path d="M56.3447 64.8905L50.2737 68.3958C49.6076 68.7802 49.6076 69.404 50.2737 69.7883L56.3749 73.3108C57.0409 73.6951 58.1205 73.6951 58.7866 73.3108L64.8576 69.8054C65.5236 69.4211 65.5236 68.7973 64.8576 68.4129L58.7564 64.8905C58.0903 64.5061 57.0108 64.5061 56.3447 64.8905Z" fill="#FAFAFA"/>
<path d="M65.3274 69.2943V70.8246C65.3274 71.0661 65.1795 71.3156 64.8545 71.5018L58.7805 75.0071C58.4565 75.2013 58.0198 75.2949 57.5751 75.2949V73.5975C58.0198 73.5975 58.4464 73.505 58.7805 73.3098L64.8545 69.8044C65.105 69.6555 65.263 69.4794 65.3274 69.2943Z" fill="#EBEBEB"/>
<path d="M65.3274 69.2943V69.09C65.3274 68.9049 65.2439 68.7288 65.0769 68.5708C65.3274 68.7841 65.4109 69.0528 65.3274 69.2943Z" fill="#FAFAFA"/>
<path d="M78.9786 63.2978L72.9076 66.8031C72.2415 67.1875 71.162 67.1875 70.4959 66.8031L64.3947 63.2807C64.0717 63.0945 63.9249 62.8531 63.9228 62.6096C63.9228 62.5412 63.9218 60.9303 63.9228 60.8609C63.9259 60.6184 64.0728 60.379 64.3947 60.1939L70.4657 56.6885C71.1318 56.3042 72.2113 56.3042 72.8764 56.6885L78.9776 60.211C79.2975 60.3951 79.4444 60.6335 79.4485 60.875C79.4495 60.9454 79.4495 62.5593 79.4485 62.6277C79.4485 62.8702 79.3005 63.1106 78.9786 63.2978Z" fill="#E0E0E0"/>
<path d="M70.4657 56.6885L64.3947 60.1939C63.7286 60.5782 63.7286 61.202 64.3947 61.5863L70.4959 65.1088C71.1619 65.4932 72.2415 65.4932 72.9076 65.1088L78.9785 61.6035C79.6446 61.2191 79.6446 60.5953 78.9785 60.211L72.8774 56.6885C72.2113 56.3042 71.1317 56.3042 70.4657 56.6885Z" fill="#FAFAFA"/>
<path d="M79.4484 61.0923V62.6227C79.4484 62.8642 79.3004 63.1137 78.9755 63.2998L72.9014 66.8052C72.5775 67.0004 72.1408 67.0929 71.6961 67.0929V65.3956C72.1408 65.3956 72.5674 65.303 72.9014 65.1078L78.9755 61.6025C79.226 61.4535 79.384 61.2775 79.4484 61.0923Z" fill="#EBEBEB"/>
<path d="M79.4484 61.0923V60.8881C79.4484 60.703 79.3649 60.5269 79.1979 60.3689C79.4484 60.5822 79.5329 60.8509 79.4484 61.0923Z" fill="#FAFAFA"/>
<path d="M93.0996 55.0958L87.0286 58.6012C86.3625 58.9855 85.2829 58.9855 84.6169 58.6012L78.5157 55.0787C78.1927 54.8926 78.0458 54.6511 78.0438 54.4076C78.0438 54.3392 78.0428 52.7284 78.0438 52.659C78.0468 52.4165 78.1938 52.177 78.5157 51.9919L84.5867 48.4865C85.2528 48.1022 86.3323 48.1022 86.9974 48.4865L93.0986 52.009C93.4185 52.1931 93.5654 52.4316 93.5704 52.672C93.5714 52.7425 93.5704 54.3563 93.5704 54.4247C93.5694 54.6682 93.4215 54.9087 93.0996 55.0958Z" fill="#E0E0E0"/>
<path d="M84.5868 48.4865L78.5158 51.9919C77.8497 52.3762 77.8497 53 78.5158 53.3844L84.6169 56.9068C85.283 57.2912 86.3626 57.2912 87.0286 56.9068L93.0996 53.4015C93.7657 53.0171 93.7657 52.3933 93.0996 52.009L86.9985 48.4865C86.3324 48.1022 85.2528 48.1022 84.5868 48.4865Z" fill="#FAFAFA"/>
<path d="M93.5705 52.8893V54.4197C93.5705 54.6611 93.4226 54.9107 93.0976 55.0968L87.0236 58.6022C86.6997 58.7974 86.263 58.8899 85.8183 58.8899V57.1936C86.263 57.1936 86.6896 57.101 87.0236 56.9058L93.0976 53.4005C93.3472 53.2516 93.5051 53.0755 93.5705 52.8893Z" fill="#EBEBEB"/>
<path d="M93.5705 52.8893V52.6851C93.5705 52.5 93.487 52.3239 93.3199 52.1659C93.5705 52.3802 93.654 52.6489 93.5705 52.8893Z" fill="#FAFAFA"/>
<path d="M77.5528 78.8285L71.4818 82.3338C70.8158 82.7182 69.7362 82.7182 69.0701 82.3338L62.9689 78.8114C62.646 78.6252 62.4991 78.3837 62.497 78.1403C62.497 78.0718 62.496 76.461 62.497 76.3916C62.5001 76.1491 62.647 75.9097 62.9689 75.7245L69.0399 72.2192C69.706 71.8348 70.7856 71.8348 71.4506 72.2192L77.5518 75.7416C77.8717 75.9258 78.0186 76.1642 78.0227 76.4057C78.0237 76.4761 78.0237 78.09 78.0227 78.1584C78.0237 78.4008 77.8758 78.6423 77.5528 78.8285Z" fill="#E0E0E0"/>
<path d="M69.041 72.2192L62.97 75.7245C62.3039 76.1089 62.3039 76.7327 62.97 77.117L69.0712 80.6395C69.7372 81.0238 70.8168 81.0238 71.4829 80.6395L77.5538 77.1341C78.2199 76.7498 78.2199 76.126 77.5538 75.7416L71.4527 72.2192C70.7866 71.8348 69.707 71.8348 69.041 72.2192Z" fill="#FAFAFA"/>
<path d="M78.0237 76.623V78.1533C78.0237 78.3948 77.8758 78.6443 77.5509 78.8305L71.4769 82.3358C71.1529 82.531 70.7162 82.6236 70.2715 82.6236V80.9273C70.7162 80.9273 71.1428 80.8347 71.4769 80.6395L77.5509 77.1341C77.8014 76.9842 77.9594 76.8082 78.0237 76.623Z" fill="#EBEBEB"/>
<path d="M78.0237 76.623V76.4188C78.0237 76.2337 77.9402 76.0576 77.7732 75.8996C78.0237 76.1129 78.1072 76.3816 78.0237 76.623Z" fill="#FAFAFA"/>
<path d="M91.6739 70.6264L85.6029 74.1318C84.9368 74.5161 83.8573 74.5161 83.1912 74.1318L77.09 70.6093C76.767 70.4232 76.6201 70.1817 76.6181 69.9382C76.6181 69.8698 76.6171 68.259 76.6181 68.1896C76.6212 67.9471 76.768 67.7077 77.09 67.5225L83.161 64.0172C83.8271 63.6328 84.9057 63.6328 85.5717 64.0172L91.6729 67.5396C91.9928 67.7237 92.1397 67.9622 92.1437 68.2027C92.1448 68.2731 92.1448 69.8869 92.1437 69.9553C92.1448 70.1988 91.9969 70.4403 91.6739 70.6264Z" fill="#E0E0E0"/>
<path d="M83.1621 64.0172L77.0911 67.5225C76.425 67.9069 76.425 68.5307 77.0911 68.915L83.1922 72.4375C83.8583 72.8218 84.9379 72.8218 85.6039 72.4375L91.6749 68.9321C92.341 68.5478 92.341 67.924 91.6749 67.5396L85.5738 64.0172C84.9077 63.6328 83.8281 63.6328 83.1621 64.0172Z" fill="#FAFAFA"/>
<path d="M92.1448 68.421V69.9513C92.1448 70.1928 91.9969 70.4423 91.672 70.6285L85.5979 74.1338C85.274 74.329 84.8373 74.4216 84.3926 74.4216V72.7242C84.8373 72.7242 85.2639 72.6317 85.5979 72.4365L91.672 68.9311C91.9225 68.7822 92.0804 68.6061 92.1448 68.421Z" fill="#EBEBEB"/>
<path d="M92.1448 68.421V68.2168C92.1448 68.0316 92.0613 67.8556 91.8943 67.6976C92.1448 67.9109 92.2283 68.1795 92.1448 68.421Z" fill="#FAFAFA"/>
<path d="M105.795 62.4245L99.724 65.9298C99.0579 66.3142 97.9783 66.3142 97.3123 65.9298L91.2111 62.4074C90.8881 62.2212 90.7412 61.9798 90.7392 61.7363C90.7392 61.6679 90.7382 60.057 90.7392 59.9876C90.7422 59.7451 90.8891 59.5057 91.2111 59.3205L97.2821 55.8152C97.9481 55.4308 99.0278 55.4308 99.6928 55.8152L105.794 59.3377C106.114 59.5218 106.261 59.7602 106.266 60.0017C106.267 60.0721 106.266 61.686 106.266 61.7544C106.266 61.9969 106.118 62.2373 105.795 62.4245Z" fill="#E0E0E0"/>
<path d="M97.2832 55.8152L91.2122 59.3205C90.5461 59.7049 90.5461 60.3287 91.2122 60.713L97.3133 64.2355C97.9794 64.6199 99.059 64.6199 99.725 64.2355L105.796 60.7301C106.462 60.3458 106.462 59.722 105.796 59.3377L99.6949 55.8152C99.0288 55.4308 97.9492 55.4308 97.2832 55.8152Z" fill="#FAFAFA"/>
<path d="M106.266 60.219V61.7494C106.266 61.9908 106.118 62.2414 105.793 62.4265L99.72 65.9319C99.395 66.126 98.9594 66.2196 98.5147 66.2196V64.5223C98.9594 64.5223 99.386 64.4297 99.72 64.2345L105.793 60.7292C106.044 60.5802 106.202 60.4042 106.266 60.219Z" fill="#EBEBEB"/>
<path d="M106.266 60.219V60.0148C106.266 59.8297 106.182 59.6536 106.015 59.4956C106.266 59.7089 106.349 59.9776 106.266 60.219Z" fill="#FAFAFA"/>
<path d="M90.2492 86.1571L84.1782 89.6624C83.5121 90.0468 82.4325 90.0468 81.7665 89.6624L75.6653 86.14C75.3423 85.9538 75.1954 85.7124 75.1934 85.4689C75.1934 85.4005 75.1924 83.7896 75.1934 83.7202C75.1965 83.4777 75.3433 83.2383 75.6653 83.0531L81.7363 79.5478C82.4024 79.1634 83.4819 79.1634 84.147 79.5478L90.2482 83.0702C90.5681 83.2544 90.715 83.4928 90.7191 83.7333C90.7201 83.8037 90.7201 85.4176 90.7191 85.486C90.7191 85.7295 90.5721 85.9709 90.2492 86.1571Z" fill="#E0E0E0"/>
<path d="M81.7374 79.5478L75.6664 83.0531C75.0003 83.4375 75.0003 84.0613 75.6664 84.4456L81.7675 87.9681C82.4336 88.3524 83.5132 88.3524 84.1792 87.9681L90.2502 84.4627C90.9163 84.0784 90.9163 83.4546 90.2502 83.0702L84.1491 79.5478C83.482 79.1634 82.4024 79.1634 81.7374 79.5478Z" fill="#FAFAFA"/>
<path d="M90.7202 83.9516V85.4819C90.7202 85.7234 90.5723 85.9729 90.2473 86.1591L84.1733 89.6644C83.8483 89.8586 83.4126 89.9522 82.9679 89.9522V88.2549C83.4126 88.2549 83.8392 88.1623 84.1733 87.9671L90.2473 84.4617C90.4978 84.3128 90.6558 84.1368 90.7202 83.9516Z" fill="#EBEBEB"/>
<path d="M90.7201 83.9516V83.7474C90.7201 83.5622 90.6366 83.3862 90.4696 83.2282C90.7201 83.4415 90.8036 83.7102 90.7201 83.9516Z" fill="#FAFAFA"/>
<path d="M104.37 77.9551L98.2993 81.4604C97.6332 81.8448 96.5536 81.8448 95.8876 81.4604L89.7864 77.938C89.4634 77.7519 89.3165 77.5104 89.3145 77.2669C89.3145 77.1985 89.3135 75.5876 89.3145 75.5182C89.3175 75.2757 89.4644 75.0363 89.7864 74.8512L95.8574 71.3458C96.5234 70.9615 97.603 70.9615 98.2681 71.3458L104.369 74.8683C104.689 75.0524 104.836 75.2908 104.841 75.5323C104.842 75.6027 104.841 77.2166 104.841 77.285C104.84 77.5275 104.693 77.769 104.37 77.9551Z" fill="#E0E0E0"/>
<path d="M95.8585 71.3458L89.7875 74.8512C89.1214 75.2355 89.1214 75.8593 89.7875 76.2437L95.8886 79.7661C96.5547 80.1505 97.6343 80.1505 98.3003 79.7661L104.371 76.2608C105.037 75.8764 105.037 75.2526 104.371 74.8683L98.2702 71.3458C97.6041 70.9615 96.5245 70.9615 95.8585 71.3458Z" fill="#FAFAFA"/>
<path d="M104.841 75.7497V77.28C104.841 77.5215 104.693 77.771 104.368 77.9571L98.2942 81.4625C97.9702 81.6577 97.5336 81.7502 97.0889 81.7502V80.0529C97.5336 80.0529 97.9602 79.9603 98.2942 79.7651L104.368 76.2598C104.619 76.1109 104.777 75.9348 104.841 75.7497Z" fill="#EBEBEB"/>
<path d="M104.841 75.7496V75.5454C104.841 75.3602 104.758 75.1842 104.591 75.0262C104.841 75.2395 104.925 75.5081 104.841 75.7496Z" fill="#FAFAFA"/>
<path d="M118.491 69.7531L112.42 73.2585C111.754 73.6428 110.675 73.6428 110.009 73.2585L103.907 69.736C103.585 69.5499 103.438 69.3084 103.436 69.0649C103.436 68.9965 103.435 67.3857 103.436 67.3163C103.439 67.0738 103.586 66.8343 103.907 66.6492L109.978 63.1438C110.645 62.7595 111.724 62.7595 112.389 63.1438L118.49 66.6663C118.81 66.8504 118.957 67.0889 118.961 67.3294C118.962 67.3998 118.962 69.0136 118.961 69.082C118.962 69.3255 118.814 69.567 118.491 69.7531Z" fill="#F28F8F"/>
<path d="M109.979 63.1438L103.908 66.6492C103.242 67.0336 103.242 67.6574 103.908 68.0417L110.01 71.5642C110.676 71.9485 111.755 71.9485 112.421 71.5642L118.492 68.0588C119.158 67.6745 119.158 67.0507 118.492 66.6663L112.391 63.1438C111.725 62.7595 110.646 62.7595 109.979 63.1438Z" fill="#FFA8A7"/>
<path opacity="0.1" d="M118.962 67.5477V69.078C118.962 69.3195 118.814 69.57 118.489 69.7552L112.415 73.2605C112.091 73.4557 111.655 73.5483 111.21 73.5483V71.8519C111.655 71.8519 112.081 71.7594 112.415 71.5642L118.489 68.0588C118.74 67.9089 118.898 67.7328 118.962 67.5477Z" fill="black"/>
<path d="M94.5243 39.5641L88.4533 43.0695C87.7872 43.4538 86.7076 43.4538 86.0416 43.0695L79.9404 39.547C79.6174 39.3609 79.4705 39.1194 79.4685 38.8759C79.4685 38.8075 79.4675 37.1967 79.4685 37.1273C79.4715 36.8848 79.6184 36.6453 79.9404 36.4602L86.0114 32.9549C86.6774 32.5705 87.757 32.5705 88.4221 32.9549L94.5233 36.4773C94.8432 36.6614 94.9901 36.8999 94.9951 37.1414C94.9961 37.2118 94.9951 38.8256 94.9951 38.8941C94.9941 39.1375 94.8472 39.378 94.5243 39.5641Z" fill="#3F72AF"/>
<path opacity="0.3" d="M94.5243 39.5641L88.4533 43.0695C87.7872 43.4538 86.7076 43.4538 86.0416 43.0695L79.9404 39.547C79.6174 39.3609 79.4705 39.1194 79.4685 38.8759C79.4685 38.8075 79.4675 37.1967 79.4685 37.1273C79.4715 36.8848 79.6184 36.6453 79.9404 36.4602L86.0114 32.9549C86.6774 32.5705 87.757 32.5705 88.4221 32.9549L94.5233 36.4773C94.8432 36.6614 94.9901 36.8999 94.9951 37.1414C94.9961 37.2118 94.9951 38.8256 94.9951 38.8941C94.9941 39.1375 94.8472 39.378 94.5243 39.5641Z" fill="black"/>
<path d="M86.0115 32.9558L79.9405 36.4612C79.2744 36.8455 79.2744 37.4693 79.9405 37.8537L86.0416 41.3762C86.7077 41.7605 87.7873 41.7605 88.4533 41.3762L94.5243 37.8708C95.1904 37.4865 95.1904 36.8627 94.5243 36.4783L88.4232 32.9558C87.7571 32.5715 86.6775 32.5715 86.0115 32.9558Z" fill="#3F72AF"/>
<path opacity="0.2" d="M86.0115 32.9558L79.9405 36.4612C79.2744 36.8455 79.2744 37.4693 79.9405 37.8537L86.0416 41.3762C86.7077 41.7605 87.7873 41.7605 88.4533 41.3762L94.5243 37.8708C95.1904 37.4865 95.1904 36.8627 94.5243 36.4783L88.4232 32.9558C87.7571 32.5715 86.6775 32.5715 86.0115 32.9558Z" fill="black"/>
<path opacity="0.1" d="M94.9952 37.3587V38.889C94.9952 39.1305 94.8473 39.381 94.5224 39.5662L88.4483 43.0715C88.1244 43.2667 87.6877 43.3593 87.243 43.3593V41.6629C87.6877 41.6629 88.1143 41.5704 88.4483 41.3752L94.5224 37.8698C94.7729 37.7209 94.9298 37.5449 94.9952 37.3587Z" fill="black"/>
<path d="M107.221 46.8938L101.15 50.3992C100.484 50.7835 99.404 50.7835 98.738 50.3992L92.6368 46.8767C92.3138 46.6905 92.1669 46.4491 92.1649 46.2056C92.1649 46.1372 92.1639 44.5264 92.1649 44.4569C92.1679 44.2145 92.3148 43.975 92.6368 43.7899L98.7078 40.2845C99.3739 39.9002 100.453 39.9002 101.118 40.2845L107.22 43.807C107.54 43.9921 107.687 44.2296 107.692 44.471C107.693 44.5415 107.692 46.1553 107.692 46.2237C107.691 46.4662 107.544 46.7066 107.221 46.8938Z" fill="#3F72AF"/>
<path opacity="0.3" d="M107.221 46.8938L101.15 50.3992C100.484 50.7835 99.404 50.7835 98.738 50.3992L92.6368 46.8767C92.3138 46.6905 92.1669 46.4491 92.1649 46.2056C92.1649 46.1372 92.1639 44.5264 92.1649 44.4569C92.1679 44.2145 92.3148 43.975 92.6368 43.7899L98.7078 40.2845C99.3739 39.9002 100.453 39.9002 101.118 40.2845L107.22 43.807C107.54 43.9921 107.687 44.2296 107.692 44.471C107.693 44.5415 107.692 46.1553 107.692 46.2237C107.691 46.4662 107.544 46.7066 107.221 46.8938Z" fill="black"/>
<path d="M98.7079 40.2845L92.6369 43.7899C91.9708 44.1742 91.9708 44.798 92.6369 45.1824L98.738 48.7048C99.4041 49.0892 100.484 49.0892 101.15 48.7048L107.221 45.1995C107.887 44.8151 107.887 44.1913 107.221 43.807L101.12 40.2845C100.453 39.9002 99.3739 39.9002 98.7079 40.2845Z" fill="#3F72AF"/>
<path opacity="0.2" d="M98.7079 40.2845L92.6369 43.7899C91.9708 44.1742 91.9708 44.798 92.6369 45.1824L98.738 48.7048C99.4041 49.0892 100.484 49.0892 101.15 48.7048L107.221 45.1995C107.887 44.8151 107.887 44.1913 107.221 43.807L101.12 40.2845C100.453 39.9002 99.3739 39.9002 98.7079 40.2845Z" fill="black"/>
<path opacity="0.1" d="M107.692 44.6884V46.2187C107.692 46.4602 107.544 46.7097 107.219 46.8958L101.145 50.4012C100.82 50.5954 100.384 50.6889 99.9394 50.6889V48.9916C100.384 48.9916 100.811 48.899 101.145 48.7038L107.219 45.1985C107.468 45.0496 107.626 44.8735 107.692 44.6884Z" fill="black"/>
<path d="M119.917 54.2224L113.846 57.7278C113.18 58.1121 112.1 58.1121 111.434 57.7278L105.333 54.2053C105.01 54.0192 104.863 53.7777 104.861 53.5342C104.861 53.4658 104.86 51.855 104.861 51.7856C104.864 51.5431 105.011 51.3037 105.333 51.1185L111.404 47.6132C112.07 47.2288 113.15 47.2288 113.815 47.6132L119.916 51.1356C120.236 51.3197 120.383 51.5582 120.388 51.7997C120.389 51.8701 120.388 53.4839 120.388 53.5524C120.387 53.7948 120.239 54.0353 119.917 54.2224Z" fill="#3F72AF"/>
<path opacity="0.3" d="M119.917 54.2224L113.846 57.7278C113.18 58.1121 112.1 58.1121 111.434 57.7278L105.333 54.2053C105.01 54.0192 104.863 53.7777 104.861 53.5342C104.861 53.4658 104.86 51.855 104.861 51.7856C104.864 51.5431 105.011 51.3037 105.333 51.1185L111.404 47.6132C112.07 47.2288 113.15 47.2288 113.815 47.6132L119.916 51.1356C120.236 51.3197 120.383 51.5582 120.388 51.7997C120.389 51.8701 120.388 53.4839 120.388 53.5524C120.387 53.7948 120.239 54.0353 119.917 54.2224Z" fill="black"/>
<path d="M111.404 47.6132L105.333 51.1185C104.667 51.5029 104.667 52.1267 105.333 52.511L111.434 56.0335C112.1 56.4178 113.18 56.4178 113.846 56.0335L119.917 52.5281C120.583 52.1438 120.583 51.52 119.917 51.1356L113.816 47.6132C113.15 47.2288 112.07 47.2288 111.404 47.6132Z" fill="#3F72AF"/>
<path opacity="0.2" d="M111.404 47.6132L105.333 51.1185C104.667 51.5029 104.667 52.1267 105.333 52.511L111.434 56.0335C112.1 56.4178 113.18 56.4178 113.846 56.0335L119.917 52.5281C120.583 52.1438 120.583 51.52 119.917 51.1356L113.816 47.6132C113.15 47.2288 112.07 47.2288 111.404 47.6132Z" fill="black"/>
<path opacity="0.1" d="M120.387 52.017V53.5473C120.387 53.7888 120.239 54.0393 119.914 54.2245L113.84 57.7298C113.516 57.925 113.079 58.0176 112.635 58.0176V56.3212C113.079 56.3212 113.506 56.2287 113.84 56.0335L119.914 52.5281C120.165 52.3782 120.323 52.2021 120.387 52.017Z" fill="black"/>
<path d="M132.612 61.5512L126.541 65.0565C125.875 65.4409 124.796 65.4409 124.13 65.0565L118.029 61.5341C117.706 61.3479 117.559 61.1064 117.557 60.863C117.557 60.7945 117.556 59.1837 117.557 59.1143C117.56 58.8718 117.707 58.6324 118.029 58.4472L124.1 54.9419C124.766 54.5575 125.845 54.5575 126.51 54.9419L132.611 58.4643C132.931 58.6495 133.078 58.8869 133.083 59.1284C133.084 59.1988 133.083 60.8127 133.083 60.8811C133.083 61.1236 132.935 61.365 132.612 61.5512Z" fill="#3F72AF"/>
<path opacity="0.3" d="M132.612 61.5512L126.541 65.0565C125.875 65.4409 124.796 65.4409 124.13 65.0565L118.029 61.5341C117.706 61.3479 117.559 61.1064 117.557 60.863C117.557 60.7945 117.556 59.1837 117.557 59.1143C117.56 58.8718 117.707 58.6324 118.029 58.4472L124.1 54.9419C124.766 54.5575 125.845 54.5575 126.51 54.9419L132.611 58.4643C132.931 58.6495 133.078 58.8869 133.083 59.1284C133.084 59.1988 133.083 60.8127 133.083 60.8811C133.083 61.1236 132.935 61.365 132.612 61.5512Z" fill="black"/>
<path d="M124.101 54.9419L118.03 58.4472C117.364 58.8316 117.364 59.4554 118.03 59.8397L124.131 63.3622C124.797 63.7465 125.876 63.7465 126.543 63.3622L132.614 59.8568C133.28 59.4725 133.28 58.8487 132.614 58.4643L126.512 54.9419C125.846 54.5575 124.767 54.5575 124.101 54.9419Z" fill="#3F72AF"/>
<path opacity="0.2" d="M124.101 54.9419L118.03 58.4472C117.364 58.8316 117.364 59.4554 118.03 59.8397L124.131 63.3622C124.797 63.7465 125.876 63.7465 126.543 63.3622L132.614 59.8568C133.28 59.4725 133.28 58.8487 132.614 58.4643L126.512 54.9419C125.846 54.5575 124.767 54.5575 124.101 54.9419Z" fill="black"/>
<path opacity="0.1" d="M133.083 59.3457V60.8761C133.083 61.1175 132.936 61.3671 132.611 61.5532L126.537 65.0585C126.213 65.2527 125.776 65.3463 125.331 65.3463V63.649C125.776 63.649 126.202 63.5564 126.537 63.3612L132.611 59.8559C132.861 59.7069 133.019 59.5309 133.083 59.3457Z" fill="black"/>
</svg>
