<svg width="54" height="140" viewBox="0 0 54 140" fill="none" xmlns="http://www.w3.org/2000/svg">
<path d="M18.8674 49.9727L20.7849 66.9719L36.5887 63.38L34.5477 40.6857L18.8674 49.9727Z" fill="#FFA8A7"/>
<path d="M52.9802 65.2914C52.1143 60.5334 45.8587 55.5353 40.0038 56.4865C38.6438 56.7075 37.319 56.9315 36.0293 57.1585C35.3272 60.0181 27.4895 61.807 20.0034 60.0442C17.7464 60.6369 10.3176 62.028 8.43931 62.6518C3.05853 64.4387 0.837702 69.7341 0 87.2826C0 87.2826 0.430906 127.021 0.220978 134.937C13.5057 140.544 27.4503 140.694 35.1946 139.184C51.3148 136.04 53.399 129.43 53.399 129.43L50.9994 111.251C50.9994 111.251 54.9388 76.053 52.9802 65.2914Z" fill="#F0F0F0"/>
<path d="M19.4992 55.5785C19.4992 55.5785 24.2753 57.1344 29.4914 55.9753C34.7074 54.8162 35.746 54.0146 35.746 54.0146L35.6365 52.8013C35.6365 52.8013 36.4813 52.75 37.6173 54.318C38.8568 56.0285 39.2806 56.6041 39.2806 56.6041C39.2806 56.6041 38.9733 60.4079 32.8402 62.2681C24.0172 64.9449 17.5707 60.5997 17.5707 60.5997L15.166 61.107C15.166 61.107 17.2452 56.3128 17.875 55.3415C18.5048 54.3692 19.3786 54.5078 19.3786 54.5078L19.4992 55.5785Z" fill="#E0E0E0"/>
<path d="M7.55744 29.1618C7.55744 29.1618 3.54972 35.2437 4.00573 35.8413C4.46275 36.4389 7.41178 36.9773 7.41178 36.9773L7.55744 29.1618Z" fill="#F28F8F"/>
<path d="M9.43277 33.07C6.80014 33.07 4.65767 30.9276 4.65767 28.2939C4.65767 25.6613 6.80014 23.5178 9.43277 23.5178C12.0654 23.5178 14.2079 25.6603 14.2079 28.2939C14.2089 30.9276 12.0664 33.07 9.43277 33.07ZM9.43277 24.5795C7.38472 24.5795 5.71934 26.2449 5.71934 28.2929C5.71934 30.341 7.38472 32.0073 9.43277 32.0073C11.4808 32.0073 13.1462 30.341 13.1462 28.2929C13.1462 26.2449 11.4808 24.5795 9.43277 24.5795Z" fill="#263238"/>
<path d="M18.6865 12.3374C10.5757 14.048 8.23334 17.6137 7.46996 30.4987C6.67143 43.9622 8.04653 48.1939 9.81434 50.0069C11.0086 51.2303 17.6429 51.4513 20.9907 50.5282C25.1802 49.3731 34.6471 46.0183 39.0817 39.2463C44.2967 31.2791 45.6678 20.4804 40.0831 16.0508C32.2244 9.81627 21.9871 11.6413 18.6865 12.3374Z" fill="#FFA8A7"/>
<path d="M18.9729 50.9068L18.5962 48.4269C18.5962 48.4269 14.6929 50.6738 10.2794 50.3122C11.8283 51.0756 15.8661 51.2925 18.9729 50.9068Z" fill="#F28F8F"/>
<path d="M5.10459 27.2955L19.5254 29.1618L18.9438 30.1752L5.10459 28.3793V27.2955Z" fill="#263238"/>
<path d="M6.08491 17.5434C6.66246 17.6529 7.29727 17.5976 7.91701 17.4269C7.38566 18.581 7.88786 20.0485 8.90536 20.8078C9.92286 21.5682 11.3321 21.6757 12.5424 21.291C12.1035 22.0383 11.9589 22.9523 12.1447 23.798C12.5324 25.5618 14.5212 27.0916 16.3463 26.8294C16.4326 28.7138 16.4557 30.5569 18.4676 31.4167C18.4676 31.4167 19.7503 26.4397 23.9438 27.0655C28.1655 27.6953 28.736 33.0771 26.0753 36.3465C23.4336 39.5919 20.9717 38.3815 20.9345 38.3634C21.037 39.2222 21.3424 40.1945 21.5985 40.7409C22.3488 42.341 23.6817 43.7141 25.1452 44.6492C27.5719 46.199 31.212 47.4094 35.2558 47.3863C36.5737 43.5825 38.7312 40.7038 41.0254 37.368C42.8233 34.7535 45.1194 31.7803 46.0234 28.7379C47.0891 25.151 47.1193 21.6074 46.1249 18.594C45.1305 15.5807 43.9533 13.2876 40.6718 12.48C39.9265 8.44519 35.9017 6.31678 32.2405 4.4656C28.5793 2.61442 24.0533 2.57625 20.362 4.36616C19.012 2.93182 17.9463 1.21925 16.065 0.38858C14.5292 -0.289417 12.4912 -0.119667 11.4677 1.21122C10.6511 2.27391 10.6742 3.73638 10.7334 5.07529C9.1846 4.86336 7.56244 4.88344 6.11504 5.47405C4.66764 6.06366 3.42114 7.30213 3.12885 8.83792C2.83656 10.3737 3.70237 12.1345 5.19999 12.5825C4.18751 13.2876 3.73752 14.7018 4.15637 15.862C4.525 16.8724 5.24319 17.3837 6.08491 17.5434Z" fill="#263238"/>
<path d="M18.3812 34.2543L18.5308 28.6224C16.976 28.5812 15.6813 29.8086 15.6401 31.3635C15.5989 32.9184 16.8263 34.2131 18.3812 34.2543Z" fill="#263238"/>
</svg>
