<svg width="53" height="87" viewBox="0 0 53 87" fill="none" xmlns="http://www.w3.org/2000/svg">
<path d="M30.3362 66.6383L19.5625 72.8764L23.8419 82.4964C23.9353 82.7064 24.081 82.8582 24.2509 82.9546C24.7624 83.2441 27.7845 84.9948 27.9524 85.0913C28.4639 85.3878 29.2016 85.1787 29.3976 84.5154L34.0447 68.779L30.3362 66.6383Z" fill="#3F72AF"/>
<path opacity="0.15" d="M30.3362 66.6383L19.5625 72.8764L23.8419 82.4964C23.9353 82.7064 24.081 82.8582 24.2509 82.9546C24.7624 83.2441 27.7845 84.9948 27.9524 85.0913C28.4639 85.3878 29.2016 85.1787 29.3976 84.5154L34.0447 68.779L30.3362 66.6383Z" fill="black"/>
<path d="M23.2709 75.018L27.5513 84.638C27.9241 85.4762 29.1392 85.3958 29.3985 84.5164L34.0457 68.7799L23.2709 75.018Z" fill="#3F72AF"/>
<path d="M45.534 0.249293L1.02308 25.9464C0.459265 26.272 0.000981456 27.064 0.000981456 27.7162V82.9506C0.000981456 83.6019 0.46128 84.3898 1.02811 84.7104L4.68835 86.7626C5.25619 87.0832 6.17376 87.0782 6.73757 86.7526L51.2485 61.0565C51.8123 60.7309 52.2706 59.9379 52.2706 59.2867V4.05125C52.2706 3.4 51.8103 2.61207 51.2435 2.29147L47.5832 0.239243C47.0154 -0.0813559 46.0978 -0.0763306 45.534 0.249293Z" fill="#3F72AF"/>
<path opacity="0.5" d="M52.2565 3.8653C52.1761 3.35073 51.756 3.16682 51.2464 3.45928L6.73957 29.1574C6.45615 29.3222 6.20187 29.6006 6.01795 29.9222L0.32155 26.672C0.505467 26.3655 0.750701 26.1012 1.02507 25.9454L45.536 0.247261C46.0978 -0.0783628 47.0134 -0.0833867 47.5842 0.238217L51.2424 2.28944C51.757 2.5819 52.1861 3.25727 52.2565 3.8653Z" fill="white"/>
<path d="M5.71649 86.1616V30.9272C5.71649 30.276 6.17377 29.483 6.73858 29.1574L51.2495 3.46028C51.8133 3.13465 52.2716 3.39797 52.2716 4.05022V59.2846C52.2716 59.9359 51.8143 60.7288 51.2495 61.0544L6.73858 86.7506C6.17377 87.0772 5.71649 86.8129 5.71649 86.1616Z" fill="#3F72AF"/>
<path opacity="0.15" d="M6.7376 86.7515C6.19389 87.0671 5.20093 87.0782 4.68737 86.7636L1.02915 84.7073C0.463327 84.3908 0 83.6038 0 82.9516V27.7152C0 27.3755 0.127642 27.0026 0.325629 26.672L6.017 29.9222C5.82806 30.2378 5.71551 30.6016 5.71551 30.9272V86.1596C5.71651 86.7556 6.13661 87.1003 6.7376 86.7515Z" fill="black"/>
<path d="M24.4047 33.8568C24.4549 34.9191 24.48 35.8699 24.48 36.707C24.48 37.5452 24.4549 38.4849 24.4047 39.5271C24.278 41.9391 23.664 44.1552 22.5635 46.1732C21.462 48.1923 20.0248 49.7139 18.253 50.737C16.4812 51.7601 15.044 51.8978 13.9435 51.1501C12.842 50.4033 12.229 48.8958 12.1013 46.6305C12.0501 45.6466 12.0249 44.7351 12.0249 43.8969C12.0249 43.0597 12.0501 42.0808 12.1013 40.9592C12.2018 38.5241 12.7847 36.307 13.848 34.3101C14.9113 32.3131 16.3787 30.7735 18.253 29.6921C20.1253 28.6107 21.5947 28.4559 22.658 29.2247C23.7213 29.9946 24.3032 31.5393 24.4047 33.8568ZM35.1945 21.4862C35.3713 21.0329 35.5553 20.655 35.7452 20.3495C35.9352 20.046 36.2075 19.7907 36.5613 19.5867L40.51 17.3073C40.7884 17.1465 41.0095 17.1264 41.1743 17.244C41.3391 17.3646 41.4205 17.5988 41.4205 17.9495C41.4205 18.0279 41.4074 18.1324 41.3833 18.2641C41.3572 18.3967 41.319 18.5344 41.2688 18.6812L22.5132 67.5086C22.3363 67.9619 22.1524 68.3408 21.9625 68.6443C21.7725 68.9498 21.5002 69.2041 21.1464 69.4081L17.1977 71.6885C16.9183 71.8493 16.6972 71.8704 16.5324 71.7508C16.3676 71.6322 16.2862 71.396 16.2862 71.0452C16.2862 70.9679 16.2982 70.8623 16.3234 70.7317C16.3485 70.6 16.3867 70.4603 16.4379 70.3146L35.1945 21.4862ZM17.0198 44.111C17.052 44.7511 17.1595 45.2346 17.3404 45.5592C17.5203 45.8858 17.8249 45.925 18.254 45.6778C18.6811 45.4305 18.9857 45.0396 19.1676 44.5049C19.3475 43.9713 19.455 43.3642 19.4882 42.6859C19.5866 40.4517 19.5866 38.3482 19.4882 36.3774C19.455 35.7382 19.3475 35.2558 19.1676 34.9282C18.9867 34.6025 18.6821 34.5634 18.254 34.8106C17.8259 35.0578 17.5203 35.4498 17.3404 35.9834C17.1595 36.5201 17.052 37.1261 17.0198 37.8035C16.9213 39.8869 16.9213 41.9904 17.0198 44.111ZM46.0626 42.0668C46.1129 43.1291 46.139 44.0788 46.139 44.917C46.139 45.7552 46.1129 46.6958 46.0626 47.738C45.936 50.1491 45.322 52.3651 44.2215 54.3842C43.12 56.4032 41.6828 57.9248 39.911 58.9479C38.1391 59.971 36.702 60.1087 35.6015 59.361C34.501 58.6133 33.8869 57.1068 33.7593 54.8415C33.709 53.8576 33.6839 52.946 33.6839 52.1078C33.6839 51.2697 33.709 50.2908 33.7593 49.1702C33.8608 46.735 34.4437 44.518 35.506 42.521C36.5693 40.5241 38.0366 38.9844 39.911 37.903C41.7833 36.8216 43.2526 36.6658 44.3159 37.4357C45.3792 38.2045 45.9611 39.7492 46.0626 42.0668ZM38.6778 52.3199C38.71 52.9611 38.8175 53.4435 38.9984 53.7691C39.1793 54.0957 39.4838 54.1339 39.912 53.8867C40.3391 53.6395 40.6436 53.2495 40.8265 52.7138C41.0064 52.1792 41.114 51.5732 41.1461 50.8938C41.2456 48.6586 41.2456 46.5561 41.1461 44.5863C41.114 43.9471 41.0064 43.4637 40.8265 43.1371C40.6446 42.8125 40.3401 42.7713 39.912 43.0185C39.4849 43.2657 39.1793 43.6577 38.9984 44.1914C38.8175 44.727 38.71 45.3341 38.6778 46.0104C38.5793 48.0968 38.5793 50.1993 38.6778 52.3199Z" fill="#FAFAFA"/>
</svg>
