<svg width="248" height="143" viewBox="0 0 248 143" fill="none" xmlns="http://www.w3.org/2000/svg">
<path d="M50.6357 142.741V138.152C50.6357 138.01 50.5195 137.894 50.3772 137.894H42.2385V133.304C42.2385 133.162 42.1223 133.046 41.98 133.046H33.8433V128.457C33.8433 128.315 33.7271 128.199 33.5848 128.199H25.4461V123.609C25.4461 123.467 25.3299 123.351 25.1876 123.351H17.0499V118.761C17.0499 118.619 16.9337 118.503 16.7914 118.503H8.65369V113.912C8.65369 113.77 8.53746 113.654 8.39517 113.654H0.258487L0.257486 109.214L188.651 0.446961L188.652 4.84697C188.652 4.98926 188.769 5.10549 188.911 5.10549L197.048 5.1065V9.69589C197.048 9.83818 197.164 9.95445 197.306 9.95445H205.445V14.5438C205.445 14.6861 205.561 14.8024 205.703 14.8024H213.84V19.3918C213.84 19.5341 213.956 19.6503 214.099 19.6503H222.237V24.2397C222.237 24.382 222.353 24.4982 222.496 24.4982H230.632V29.0876C230.632 29.2299 230.749 29.3462 230.891 29.3462H239.03V33.9356C239.03 34.0778 239.146 34.1941 239.288 34.1941H246.719L58.7042 142.743H50.6357V142.741Z" fill="#FAFAFA"/>
<path d="M188.393 0.894839L188.394 4.84694C188.394 5.13252 188.625 5.36399 188.911 5.36399H196.79V9.69488C196.79 9.98047 197.022 10.2119 197.307 10.2119H205.186V14.5428C205.186 14.8284 205.418 15.0598 205.703 15.0598H213.583V19.3907C213.583 19.6763 213.814 19.9078 214.1 19.9078H221.98V24.2377C221.98 24.5233 222.211 24.7547 222.497 24.7547H230.375V29.0856C230.375 29.3712 230.606 29.6026 230.892 29.6026H238.772V33.9335C238.772 34.2191 239.004 34.4506 239.289 34.4506H245.756L58.6341 142.483H50.8943V138.152C50.8943 137.866 50.6628 137.635 50.3772 137.635H42.4971V133.304C42.4971 133.019 42.2656 132.787 41.98 132.787H34.1009V128.456C34.1009 128.171 33.8694 127.939 33.5838 127.939H25.7037V123.608C25.7037 123.323 25.4722 123.091 25.1866 123.091H17.3075V118.76C17.3075 118.475 17.076 118.243 16.7904 118.243H8.91025V113.912C8.91025 113.627 8.67877 113.395 8.39319 113.395H0.514054L0.513052 109.363L188.393 0.894839ZM188.91 0L0 109.067L0.0010015 113.914H8.3962V118.762H16.7924V123.609H25.1876V128.457H33.5848V133.304H41.98V138.152H50.3762V143H58.7714L247.68 33.9325H239.285V29.0856H230.888V24.2377H222.493V19.3907H214.097V14.5428H205.701V9.69586H197.305V4.84794H188.91V0Z" fill="#E0E0E0"/>
<path d="M214.098 34.9667C213.922 34.9667 213.744 34.9226 213.582 34.8284L188.393 20.2846C187.899 19.999 187.729 19.3677 188.014 18.8727C188.3 18.3767 188.931 18.2083 189.426 18.4939L214.615 33.0367C215.109 33.3223 215.279 33.9546 214.993 34.4486C214.802 34.7813 214.455 34.9667 214.098 34.9667Z" fill="#3F72AF"/>
<path d="M214.099 39.1682C214.032 39.1682 213.965 39.1512 213.905 39.1171L180.319 19.7264C180.134 19.6192 180.07 19.3827 180.177 19.1963C180.285 19.0099 180.525 18.9498 180.707 19.054L214.293 38.4447C214.478 38.5519 214.542 38.7885 214.435 38.9748C214.362 39.0981 214.232 39.1682 214.099 39.1682Z" fill="#455A64"/>
<path d="M209.9 41.5912C209.834 41.5912 209.767 41.5742 209.707 41.5401L176.121 22.1494C175.935 22.0421 175.871 21.8047 175.979 21.6193C176.088 21.4329 176.326 21.3738 176.509 21.477L210.094 40.8677C210.28 40.9749 210.344 41.2114 210.237 41.3978C210.164 41.5211 210.033 41.5912 209.9 41.5912Z" fill="#455A64"/>
<path d="M193.108 41.5912C193.041 41.5912 192.974 41.5742 192.914 41.5401L163.529 24.5734C163.344 24.4661 163.28 24.2297 163.387 24.0433C163.496 23.8569 163.735 23.7968 163.917 23.901L193.302 40.8677C193.487 40.9749 193.552 41.2114 193.444 41.3978C193.371 41.5211 193.241 41.5912 193.108 41.5912Z" fill="#455A64"/>
<path d="M205.701 48.8611C205.635 48.8611 205.568 48.8441 205.508 48.81L197.112 43.9631C196.926 43.8559 196.862 43.6184 196.97 43.433C197.079 43.2466 197.318 43.1865 197.5 43.2907L205.896 48.1376C206.081 48.2448 206.145 48.4813 206.038 48.6677C205.965 48.792 205.835 48.8611 205.701 48.8611Z" fill="#455A64"/>
<path d="M188.909 44.0152C188.843 44.0152 188.776 43.9981 188.716 43.964L159.33 26.9973C159.145 26.8901 159.081 26.6526 159.188 26.4672C159.296 26.2808 159.535 26.2207 159.718 26.3249L189.103 43.2917C189.289 43.3989 189.353 43.6364 189.246 43.8217C189.173 43.946 189.042 44.0152 188.909 44.0152Z" fill="#455A64"/>
<path d="M201.503 51.286C201.437 51.286 201.37 51.269 201.309 51.2349L192.914 46.388C192.729 46.2798 192.665 46.0443 192.772 45.8579C192.88 45.6715 193.119 45.6114 193.302 45.7156L201.697 50.5635C201.883 50.6718 201.947 50.9073 201.84 51.0937C201.765 51.2159 201.635 51.286 201.503 51.286Z" fill="#455A64"/>
<path d="M184.71 46.4391C184.644 46.4391 184.577 46.4221 184.517 46.388L155.132 29.4213C154.946 29.3141 154.882 29.0776 154.99 28.8912C155.098 28.7048 155.337 28.6457 155.52 28.7489L184.905 45.7157C185.09 45.8229 185.154 46.0594 185.047 46.2458C184.974 46.37 184.844 46.4391 184.71 46.4391Z" fill="#455A64"/>
<path d="M197.304 53.7101C197.238 53.7101 197.171 53.693 197.111 53.659L188.716 48.812C188.53 48.7038 188.466 48.4673 188.573 48.2819C188.682 48.0956 188.92 48.0364 189.103 48.1397L197.499 52.9866C197.684 53.0948 197.748 53.3303 197.641 53.5167C197.568 53.6409 197.438 53.7101 197.304 53.7101Z" fill="#455A64"/>
<path d="M180.512 48.8641C180.446 48.8641 180.379 48.8471 180.318 48.813L150.933 31.8462C150.748 31.739 150.684 31.5015 150.791 31.3162C150.9 31.1298 151.14 31.0697 151.321 31.1739L180.706 48.1406C180.892 48.2478 180.956 48.4853 180.849 48.6707C180.775 48.794 180.645 48.8641 180.512 48.8641Z" fill="#455A64"/>
<path d="M193.106 56.134C193.04 56.134 192.972 56.117 192.912 56.0829L184.517 51.236C184.332 51.1277 184.268 50.8923 184.375 50.7059C184.484 50.5195 184.723 50.4594 184.905 50.5636L193.3 55.4115C193.485 55.5197 193.55 55.7552 193.442 55.9416C193.369 56.0648 193.239 56.134 193.106 56.134Z" fill="#455A64"/>
<path d="M176.312 51.2881C176.246 51.2881 176.179 51.2711 176.119 51.237L146.735 34.2702C146.549 34.163 146.485 33.9265 146.592 33.7402C146.701 33.5538 146.939 33.4936 147.122 33.5978L176.507 50.5646C176.692 50.6728 176.756 50.9083 176.649 51.0947C176.576 51.218 176.445 51.2881 176.312 51.2881Z" fill="#455A64"/>
<path d="M188.907 58.559C188.841 58.559 188.774 58.542 188.714 58.5079L180.318 53.661C180.133 53.5527 180.069 53.3163 180.176 53.1309C180.284 52.9445 180.523 52.8844 180.706 52.9886L189.101 57.8355C189.287 57.9437 189.351 58.1792 189.244 58.3656C189.171 58.4889 189.04 58.559 188.907 58.559Z" fill="#455A64"/>
<path d="M172.114 53.7121C172.048 53.7121 171.98 53.695 171.92 53.6609L142.535 36.6942C142.35 36.587 142.286 36.3495 142.393 36.1641C142.501 35.9777 142.739 35.9186 142.923 36.0218L172.308 52.9886C172.493 53.0958 172.558 53.3333 172.45 53.5187C172.377 53.6429 172.247 53.7121 172.114 53.7121Z" fill="#455A64"/>
<path d="M184.708 60.9829C184.642 60.9829 184.575 60.9659 184.515 60.9318L176.12 56.0849C175.934 55.9767 175.87 55.7412 175.978 55.5548C176.086 55.3685 176.324 55.3093 176.508 55.4125L184.903 60.2605C185.088 60.3687 185.152 60.6042 185.045 60.7906C184.972 60.9128 184.842 60.9829 184.708 60.9829Z" fill="#455A64"/>
<path d="M167.916 56.136C167.85 56.136 167.783 56.119 167.723 56.0849L138.337 39.1172C138.152 39.0089 138.088 38.7734 138.195 38.587C138.303 38.4007 138.543 38.3405 138.725 38.4448L168.11 55.4125C168.296 55.5208 168.36 55.7562 168.253 55.9426C168.179 56.0669 168.049 56.136 167.916 56.136Z" fill="#455A64"/>
<path d="M180.51 63.4069C180.443 63.4069 180.377 63.3898 180.316 63.3558L171.921 58.5088C171.736 58.4006 171.672 58.1641 171.779 57.9788C171.888 57.7924 172.127 57.7323 172.309 57.8365L180.704 62.6834C180.89 62.7916 180.954 63.0271 180.847 63.2135C180.773 63.3377 180.643 63.4069 180.51 63.4069Z" fill="#455A64"/>
<path d="M163.717 58.56C163.651 58.56 163.584 58.543 163.524 58.5089L134.139 41.5411C133.953 41.4329 133.889 41.1964 133.997 41.0111C134.106 40.8247 134.345 40.7656 134.527 40.8688L163.912 57.8365C164.097 57.9448 164.161 58.1802 164.054 58.3666C163.981 58.4909 163.851 58.56 163.717 58.56Z" fill="#455A64"/>
<path d="M176.311 65.8299C176.246 65.8299 176.179 65.8129 176.118 65.7788L167.722 60.9318C167.536 60.8246 167.472 60.5881 167.579 60.4018C167.689 60.2164 167.926 60.1563 168.109 60.2595L176.506 65.1064C176.691 65.2136 176.755 65.4511 176.648 65.6365C176.575 65.7607 176.445 65.8299 176.311 65.8299Z" fill="#455A64"/>
<path d="M159.519 60.984C159.453 60.984 159.386 60.9669 159.325 60.9329L129.94 43.9661C129.755 43.8589 129.691 43.6224 129.798 43.436C129.906 43.2496 130.145 43.1895 130.328 43.2937L159.713 60.2605C159.899 60.3677 159.963 60.6052 159.855 60.7906C159.782 60.9138 159.652 60.984 159.519 60.984Z" fill="#455A64"/>
<path d="M172.113 68.2539C172.046 68.2539 171.979 68.2368 171.919 68.2028L163.523 63.3558C163.338 63.2486 163.274 63.0111 163.381 62.8257C163.489 62.6393 163.727 62.5792 163.911 62.6834L172.307 67.5304C172.492 67.6376 172.557 67.8741 172.449 68.0605C172.376 68.1847 172.246 68.2539 172.113 68.2539Z" fill="#455A64"/>
<path d="M155.32 63.4079C155.254 63.4079 155.187 63.3909 155.127 63.3568L125.742 46.3901C125.556 46.2828 125.492 46.0463 125.599 45.8599C125.708 45.6736 125.946 45.6134 126.129 45.7177L155.515 62.6844C155.7 62.7916 155.764 63.0281 155.657 63.2145C155.584 63.3377 155.454 63.4079 155.32 63.4079Z" fill="#455A64"/>
<path d="M167.914 70.6788C167.848 70.6788 167.781 70.6618 167.721 70.6277L159.325 65.7808C159.14 65.6725 159.076 65.4371 159.183 65.2507C159.291 65.0643 159.53 65.0042 159.713 65.1084L168.108 69.9553C168.294 70.0635 168.358 70.3 168.251 70.4854C168.177 70.6087 168.047 70.6788 167.914 70.6788Z" fill="#455A64"/>
<path d="M151.122 65.8318C151.055 65.8318 150.988 65.8148 150.928 65.7807L121.543 48.814C121.358 48.7068 121.293 48.4703 121.401 48.2839C121.51 48.0975 121.749 48.0384 121.931 48.1416L151.316 65.1084C151.501 65.2156 151.565 65.4531 151.458 65.6385C151.385 65.7627 151.255 65.8318 151.122 65.8318Z" fill="#455A64"/>
<path d="M163.715 73.1028C163.649 73.1028 163.582 73.0857 163.522 73.0517L155.127 68.2047C154.941 68.0965 154.877 67.86 154.984 67.6746C155.094 67.4883 155.332 67.4291 155.515 67.5323L163.91 72.3793C164.095 72.4875 164.159 72.723 164.052 72.9094C163.979 73.0336 163.849 73.1028 163.715 73.1028Z" fill="#455A64"/>
<path d="M146.923 68.2568C146.857 68.2568 146.79 68.2398 146.73 68.2057L117.344 51.2389C117.159 51.1317 117.095 50.8952 117.202 50.7089C117.31 50.5225 117.549 50.4624 117.732 50.5666L147.117 67.5333C147.303 67.6406 147.367 67.877 147.26 68.0634C147.187 68.1867 147.056 68.2568 146.923 68.2568Z" fill="#455A64"/>
<path d="M159.517 75.5267C159.451 75.5267 159.384 75.5096 159.323 75.4756L150.928 70.6286C150.743 70.5204 150.679 70.2849 150.786 70.0986C150.894 69.9122 151.133 69.8521 151.316 69.9563L159.711 74.8042C159.897 74.9124 159.961 75.1479 159.854 75.3343C159.78 75.4575 159.65 75.5267 159.517 75.5267Z" fill="#455A64"/>
<path d="M142.723 70.6808C142.657 70.6808 142.59 70.6638 142.53 70.6297L113.146 53.663C112.96 53.5548 112.896 53.3183 113.003 53.1329C113.112 52.9465 113.35 52.8864 113.534 52.9906L142.918 69.9573C143.103 70.0646 143.167 70.3021 143.06 70.4875C142.987 70.6107 142.857 70.6808 142.723 70.6808Z" fill="#455A64"/>
<path d="M155.318 77.9507C155.252 77.9507 155.185 77.9337 155.125 77.8996L146.73 73.0527C146.544 72.9445 146.48 72.708 146.587 72.5226C146.696 72.3362 146.934 72.2761 147.117 72.3803L155.513 77.2272C155.698 77.3355 155.762 77.5709 155.655 77.7573C155.582 77.8816 155.451 77.9507 155.318 77.9507Z" fill="#455A64"/>
<path d="M138.526 73.1048C138.46 73.1048 138.393 73.0878 138.332 73.0537L108.947 56.087C108.762 55.9797 108.698 55.7432 108.805 55.5569C108.913 55.3705 109.152 55.3114 109.335 55.4146L138.72 72.3813C138.906 72.4886 138.97 72.725 138.862 72.9114C138.788 73.0347 138.658 73.1048 138.526 73.1048Z" fill="#455A64"/>
<path d="M151.12 80.3757C151.054 80.3757 150.986 80.3587 150.926 80.3246L142.531 75.4777C142.346 75.3695 142.282 75.134 142.389 74.9476C142.498 74.7612 142.737 74.7021 142.919 74.8053L151.314 79.6532C151.499 79.7615 151.564 79.9969 151.456 80.1833C151.383 80.3056 151.253 80.3757 151.12 80.3757Z" fill="#455A64"/>
<path d="M134.327 75.5287C134.261 75.5287 134.194 75.5117 134.134 75.4776L104.749 58.5109C104.563 58.4036 104.499 58.1662 104.606 57.9808C104.715 57.7944 104.955 57.7343 105.136 57.8385L134.522 74.8053C134.707 74.9125 134.771 75.15 134.664 75.3353C134.591 75.4596 134.459 75.5287 134.327 75.5287Z" fill="#455A64"/>
<path d="M146.921 82.7996C146.855 82.7996 146.788 82.7826 146.728 82.7485L138.332 77.9016C138.147 77.7934 138.083 77.5569 138.19 77.3715C138.298 77.1851 138.537 77.125 138.72 77.2292L147.115 82.0762C147.301 82.1844 147.365 82.4199 147.258 82.6062C147.185 82.7305 147.054 82.7996 146.921 82.7996Z" fill="#455A64"/>
<path d="M130.129 77.9538C130.062 77.9538 129.995 77.9367 129.935 77.9027L100.55 60.9349C100.365 60.8267 100.3 60.5912 100.408 60.4048C100.516 60.2184 100.754 60.1593 100.938 60.2625L130.323 77.2303C130.508 77.3385 130.573 77.574 130.465 77.7604C130.392 77.8836 130.262 77.9538 130.129 77.9538Z" fill="#455A64"/>
<path d="M142.722 85.2237C142.655 85.2237 142.589 85.2066 142.529 85.1726L134.133 80.3256C133.947 80.2184 133.883 79.9819 133.991 79.7956C134.099 79.6092 134.337 79.5491 134.521 79.6533L142.917 84.5012C143.102 84.6084 143.166 84.8449 143.059 85.0313C142.986 85.1545 142.856 85.2237 142.722 85.2237Z" fill="#455A64"/>
<path d="M125.93 80.3777C125.864 80.3777 125.797 80.3607 125.737 80.3266L96.3513 63.3588C96.166 63.2506 96.1018 63.0141 96.2091 62.8287C96.3173 62.6423 96.5568 62.5822 96.7391 62.6864L126.124 79.6542C126.31 79.7624 126.374 79.9989 126.267 80.1843C126.193 80.3075 126.063 80.3777 125.93 80.3777Z" fill="#455A64"/>
<path d="M138.524 87.6486C138.458 87.6486 138.391 87.6316 138.33 87.5975L129.934 82.7506C129.749 82.6433 129.685 82.4059 129.792 82.2205C129.9 82.0341 130.139 81.975 130.322 82.0782L138.718 86.9251C138.904 87.0324 138.968 87.2688 138.86 87.4552C138.787 87.5785 138.657 87.6486 138.524 87.6486Z" fill="#455A64"/>
<path d="M121.731 82.8006C121.665 82.8006 121.598 82.7836 121.538 82.7495L92.1528 65.7828C91.9674 65.6756 91.9033 65.4391 92.0105 65.2527C92.1197 65.0663 92.3582 65.0062 92.5406 65.1104L121.926 82.0771C122.111 82.1844 122.175 82.4209 122.068 82.6073C121.995 82.7305 121.865 82.8006 121.731 82.8006Z" fill="#455A64"/>
<path d="M134.325 90.0715C134.259 90.0715 134.192 90.0545 134.132 90.0204L125.737 85.1725C125.551 85.0643 125.487 84.8288 125.594 84.6424C125.704 84.456 125.943 84.3959 126.124 84.5001L134.52 89.347C134.705 89.4553 134.769 89.6917 134.662 89.8771C134.588 90.0014 134.458 90.0715 134.325 90.0715Z" fill="#455A64"/>
<path d="M113.346 87.6416C113.28 87.6416 113.213 87.6245 113.153 87.5905L83.7676 70.6237C83.5822 70.5165 83.5181 70.279 83.6253 70.0936C83.7335 69.9072 83.972 69.8471 84.1554 69.9513L113.541 86.9181C113.726 87.0253 113.79 87.2628 113.683 87.4482C113.61 87.5724 113.479 87.6416 113.346 87.6416Z" fill="#3F72AF"/>
<path d="M125.94 94.9125C125.874 94.9125 125.807 94.8954 125.747 94.8614L117.351 90.0145C117.166 89.9062 117.102 89.6697 117.209 89.4844C117.317 89.298 117.556 89.2378 117.739 89.3421L126.134 94.189C126.32 94.2972 126.384 94.5327 126.277 94.7191C126.204 94.8433 126.073 94.9125 125.94 94.9125Z" fill="#3F72AF"/>
<path d="M104.949 93.1348C104.774 93.1348 104.595 93.0907 104.433 92.9965L87.6405 83.3017C87.1465 83.0161 86.9761 82.3848 87.2617 81.8898C87.5473 81.3958 88.1806 81.2254 88.6736 81.511L105.465 91.2059C105.959 91.4915 106.129 92.1237 105.844 92.6178C105.652 92.9484 105.306 93.1348 104.949 93.1348Z" fill="#3F72AF"/>
<path d="M104.942 107.026C104.876 107.026 104.809 107.009 104.749 106.975L62.7887 82.7496C62.6033 82.6423 62.5392 82.4048 62.6464 82.2195C62.7546 82.0331 62.9931 81.9739 63.1765 82.0772L105.136 106.303C105.322 106.41 105.386 106.647 105.279 106.833C105.205 106.957 105.074 107.026 104.942 107.026Z" fill="#455A64"/>
<path d="M100.652 109.397C100.586 109.397 100.519 109.38 100.459 109.346L58.4989 85.1213C58.3135 85.0141 58.2494 84.7777 58.3566 84.5913C58.4658 84.4049 58.7053 84.3448 58.8867 84.449L100.847 108.674C101.032 108.781 101.096 109.018 100.989 109.204C100.916 109.328 100.786 109.397 100.652 109.397Z" fill="#455A64"/>
<path d="M96.3625 111.768C96.2963 111.768 96.2292 111.751 96.1691 111.717L54.2091 87.4923C54.0237 87.385 53.9596 87.1485 54.0668 86.9622C54.175 86.7758 54.4135 86.7157 54.5969 86.8199L96.5559 111.045C96.7412 111.152 96.8054 111.388 96.6982 111.575C96.626 111.699 96.4957 111.768 96.3625 111.768Z" fill="#455A64"/>
<path d="M92.0736 114.14C92.0075 114.14 91.9404 114.123 91.8803 114.089L49.9203 89.8631C49.7349 89.7559 49.6708 89.5184 49.778 89.333C49.8862 89.1467 50.1247 89.0865 50.3081 89.1908L92.268 113.416C92.4534 113.524 92.5175 113.76 92.4103 113.946C92.3372 114.071 92.2069 114.14 92.0736 114.14Z" fill="#455A64"/>
<path d="M67.1486 128.833C67.0814 128.833 67.0153 128.816 66.9552 128.782L24.9942 104.557C24.8088 104.45 24.7447 104.213 24.8519 104.027C24.9611 103.841 25.2006 103.781 25.382 103.885L67.343 128.109C67.5284 128.217 67.5925 128.454 67.4853 128.64C67.4111 128.763 67.2809 128.833 67.1486 128.833Z" fill="#455A64"/>
<path d="M62.8588 131.204C62.7926 131.204 62.7255 131.187 62.6654 131.153L20.7044 106.927C20.519 106.82 20.4549 106.583 20.5621 106.397C20.6704 106.211 20.9088 106.15 21.0922 106.255L63.0532 130.48C63.2386 130.588 63.3027 130.824 63.1955 131.01C63.1223 131.135 62.992 131.204 62.8588 131.204Z" fill="#455A64"/>
<path d="M75.5638 114.302C75.4976 114.302 75.4305 114.285 75.3704 114.251L50.1828 99.7082C49.9974 99.601 49.9333 99.3645 50.0405 99.1782C50.1487 98.9918 50.3872 98.9317 50.5706 99.0359L75.7582 113.578C75.9436 113.685 76.0077 113.922 75.9005 114.108C75.8273 114.233 75.697 114.302 75.5638 114.302Z" fill="#455A64"/>
<path d="M71.3672 116.669C71.3011 116.669 71.2339 116.652 71.1738 116.618L45.9852 102.076C45.7998 101.969 45.7357 101.731 45.8429 101.546C45.9511 101.36 46.1896 101.301 46.373 101.404L71.5616 115.947C71.747 116.054 71.8111 116.29 71.7039 116.477C71.6308 116.599 71.5005 116.669 71.3672 116.669Z" fill="#455A64"/>
<path d="M67.1687 119.035C67.1025 119.035 67.0354 119.018 66.9753 118.984L41.7877 104.442C41.6023 104.335 41.5381 104.098 41.6454 103.912C41.7536 103.725 41.9921 103.665 42.1755 103.77L67.3631 118.311C67.5484 118.419 67.6126 118.656 67.5053 118.841C67.4322 118.965 67.3019 119.035 67.1687 119.035Z" fill="#455A64"/>
</svg>
