<svg width="61" height="36" viewBox="0 0 61 36" fill="none" xmlns="http://www.w3.org/2000/svg">
<path d="M26.4253 0.687007L60.2002 18.8291L60.7542 19.7014V20.4035C60.7542 20.7541 60.5517 21.0714 60.2002 21.2749L35.0239 35.7704C34.7671 35.9184 34.4387 36 34.0982 36C33.7577 36 33.4293 35.9184 33.1724 35.7704L0 16.6059V15.9038L26.4253 0.687007Z" fill="#263238"/>
<path d="M34.0982 35.2979C34.4387 35.2979 34.7671 35.2163 35.0239 35.0682L60.2002 20.5727C60.5527 20.3692 60.7542 20.0509 60.7542 19.7004C60.7542 19.3498 60.5517 19.0315 60.2002 18.828L27.612 0L0 15.9027L33.1724 35.0672C33.4293 35.2163 33.7577 35.2979 34.0982 35.2979Z" fill="#455A64"/>
</svg>
