<svg width="39" height="24" viewBox="0 0 39 24" fill="none" xmlns="http://www.w3.org/2000/svg">
<path d="M0.106778 16.6566C-0.342578 19.1362 0.577478 20.406 3.80023 22.1811C7.02299 23.9561 12.0371 24.4878 17.2667 22.8521C22.4963 21.2163 24.9637 18.8698 27.1393 18.2792C29.3149 17.6885 34.7224 17.533 36.8696 16.8579C39.0167 16.1819 38.9618 15.0747 38.8988 12.4772L0.106778 16.6566Z" fill="#455A64"/>
<path d="M36.531 0C36.531 0 37.6199 3.08956 38.2278 5.79891C38.7107 7.95216 39.4132 11.5541 38.6884 13.195C37.9635 14.8369 35.0315 15.946 30.4515 16.0019C27.4849 16.0385 22.904 18.145 19.7747 19.975C16.5428 21.8649 12.9968 21.9422 9.53206 21.6046C5.44821 21.2082 1.18035 18.9299 0.488012 17.2565C-0.204321 15.5831 -0.400519 14.3204 9.1183 10.0363C9.20573 9.99662 20.1773 5.69726 24.7197 0.477823L36.531 0Z" fill="#3F72AF"/>
<g opacity="0.4">
<path d="M36.531 0C36.531 0 37.6199 3.08956 38.2278 5.79891C38.7107 7.95216 39.4132 11.5541 38.6884 13.195C37.9635 14.8369 35.0315 15.946 30.4515 16.0019C27.4849 16.0385 22.904 18.145 19.7747 19.975C16.5428 21.8649 12.9968 21.9422 9.53206 21.6046C5.44821 21.2082 1.18035 18.9299 0.488012 17.2565C-0.204321 15.5831 -0.400519 14.3204 9.1183 10.0363C9.20573 9.99662 20.1773 5.69726 24.7197 0.477823L36.531 0Z" fill="black"/>
</g>
<path d="M18.4765 20.6317C18.4765 20.6317 17.4884 12.404 10.7399 10.1806C4.64005 8.17071 -0.560093 12.766 0.106824 16.6566C0.555163 19.2735 8.04985 25.0866 18.4765 20.6317Z" fill="#FAFAFA"/>
<path d="M12.4041 8.60281C12.4041 8.60281 14.5645 8.55909 17.0186 10.5426C18.9838 12.1295 19.0611 13.2092 19.0611 13.2092C19.5155 13.8771 20.9276 13.4776 20.7924 12.3379C20.7924 12.3379 20.2597 8.18902 14.7698 7.44687C14.7698 7.44687 13.2581 7.10225 12.4041 8.60281Z" fill="#FAFAFA"/>
<path d="M16.2003 6.69053C16.2003 6.69053 18.4002 6.44958 20.8554 8.43305C22.8206 10.02 22.8572 11.2969 22.8572 11.2969C23.3127 11.9649 24.7238 11.5653 24.5885 10.4257C24.5885 10.4257 24.0548 6.27674 18.566 5.53561C18.566 5.53561 17.0532 5.19098 16.2003 6.69053Z" fill="#FAFAFA"/>
<path d="M19.9588 4.44375C19.9588 4.44375 22.1375 4.05337 24.7218 5.86401C26.7906 7.31272 26.9147 8.58454 26.9147 8.58454C27.4138 9.21994 28.7955 8.72483 28.582 7.59737C28.582 7.59737 27.7666 3.49421 22.2401 3.12924C22.2401 3.12924 20.7081 2.88931 19.9588 4.44375Z" fill="#FAFAFA"/>
</svg>
