<svg width="5" height="4" viewBox="0 0 5 4" fill="none" xmlns="http://www.w3.org/2000/svg">
<path d="M0 2.28328C0 2.50261 0.0160001 2.72765 0.0502705 2.9527L0.520903 2.68083C0.50491 2.54832 0.498069 2.4158 0.498069 2.28328C0.498069 1.47793 0.747102 0.871348 1.17777 0.622316C1.32399 0.538925 1.48618 0.496658 1.6621 0.496658C1.91456 0.496658 2.19215 0.582326 2.48459 0.749108C3.38019 1.27002 4.15587 2.42037 4.50657 3.6404C4.67564 3.65068 4.8481 3.63011 5.00003 3.58099C4.61849 2.21132 3.74347 0.905611 2.73249 0.318445C2.07907 -0.0562452 1.43934 -0.103082 0.928715 0.192786C0.338121 0.532063 0 1.29515 0 2.28328Z" fill="black"/>
</svg>
