<svg width="319" height="349" viewBox="0 0 319 349" fill="none" xmlns="http://www.w3.org/2000/svg">
<path d="M6.95123 278.214C6.95123 281.126 9.13133 284.744 11.8194 286.297L117.791 347.491C120.479 349.043 124.837 349.043 127.526 347.491L314.13 239.755C316.818 238.203 318.997 234.585 318.997 231.673C318.997 228.761 316.818 225.143 314.13 223.591L208.158 162.396C205.47 160.844 201.112 160.844 198.424 162.396L11.8184 270.132C9.13033 271.684 6.95123 275.302 6.95123 278.214Z" fill="#455A64"/>
<path d="M319 231.674C319 234.588 316.819 238.201 314.131 239.754L127.523 347.495C126.179 348.263 124.415 348.656 122.662 348.656V338.115C124.416 338.115 126.18 337.722 127.523 336.946L314.131 229.213C316.485 227.856 316.779 225.756 315.013 224.212C317.275 225.97 319 229.09 319 231.674Z" fill="#37474F"/>
<path d="M122.66 338.12V348.652C120.895 348.652 119.131 348.27 117.793 347.494L11.8165 286.297C9.12938 284.745 6.94928 281.125 6.94928 278.214C6.94928 275.482 8.87136 272.133 11.3225 270.447C9.14137 272.009 9.31038 274.302 11.8175 275.752L117.794 336.95C119.13 337.727 120.895 338.12 122.66 338.12Z" fill="#263238"/>
<path d="M25.288 270.419L198.498 170.417C199.842 169.641 202.021 169.641 203.365 170.417L208.404 173.065C209.748 173.841 209.748 175.099 208.404 175.875L35.1685 275.861C33.8244 276.637 31.6453 276.637 30.3003 275.861L25.287 273.23C23.944 272.453 23.944 271.195 25.288 270.419Z" fill="#37474F"/>
<path d="M38.8737 278.497L212.081 178.495C213.425 177.719 215.416 177.61 216.528 178.253L261.612 204.283C262.725 204.925 262.537 206.074 261.192 206.85L88.1868 306.716C86.8428 307.492 84.8487 307.604 83.7346 306.966L38.4587 281.058C37.3436 280.42 37.5286 279.273 38.8737 278.497Z" fill="#263238"/>
<path d="M187.53 220.088L192.953 216.957C193.184 216.824 193.218 216.627 193.029 216.518L188.245 213.756C188.056 213.647 187.716 213.667 187.486 213.8L182.063 216.931C181.833 217.064 181.799 217.26 181.988 217.369L186.771 220.132C186.96 220.241 187.299 220.221 187.53 220.088ZM179.963 209.456L174.54 212.587C174.31 212.72 174.276 212.916 174.465 213.025L179.249 215.787C179.438 215.896 179.778 215.876 180.008 215.744L185.431 212.613C185.661 212.48 185.696 212.284 185.507 212.175L180.723 209.413C180.533 209.304 180.193 209.324 179.963 209.456ZM162.441 219.573L153.264 224.872C153.034 225.004 153 225.201 153.188 225.31L157.972 228.072C158.161 228.181 158.501 228.161 158.731 228.028L167.908 222.73C168.139 222.597 168.172 222.401 167.983 222.292L163.2 219.53C163.012 219.42 162.672 219.44 162.441 219.573ZM172.037 214.032L166.613 217.163C166.383 217.296 166.349 217.492 166.538 217.601L171.323 220.364C171.511 220.473 171.851 220.453 172.081 220.321L177.504 217.189C177.735 217.056 177.769 216.86 177.58 216.751L172.796 213.989C172.607 213.88 172.267 213.899 172.037 214.032ZM150.762 226.316L145.338 229.447C145.107 229.58 145.074 229.776 145.262 229.885L150.047 232.647C150.236 232.756 150.575 232.736 150.806 232.604L156.229 229.473C156.459 229.34 156.493 229.144 156.304 229.035L151.521 226.273C151.332 226.164 150.992 226.183 150.762 226.316ZM142.835 230.892L137.412 234.023C137.182 234.156 137.148 234.352 137.336 234.461L142.12 237.223C142.309 237.332 142.648 237.313 142.879 237.179L148.303 234.048C148.533 233.915 148.567 233.719 148.378 233.61L143.593 230.849C143.405 230.74 143.065 230.759 142.835 230.892ZM162.931 242.977L168.354 239.845C168.584 239.712 168.618 239.516 168.429 239.407L163.646 236.645C163.457 236.536 163.117 236.556 162.887 236.689L157.464 239.819C157.233 239.952 157.199 240.148 157.388 240.258L162.172 243.021C162.361 243.13 162.701 243.11 162.931 242.977ZM155.006 247.553L160.429 244.423C160.659 244.29 160.693 244.094 160.504 243.985L155.721 241.223C155.532 241.114 155.192 241.133 154.962 241.266L149.539 244.397C149.309 244.53 149.275 244.726 149.463 244.835L154.247 247.597C154.436 247.706 154.775 247.687 155.006 247.553ZM147.079 252.13L152.503 248.999C152.733 248.866 152.767 248.67 152.578 248.561L147.794 245.799C147.605 245.69 147.265 245.71 147.035 245.843L141.612 248.974C141.381 249.107 141.348 249.303 141.537 249.412L146.32 252.174C146.509 252.282 146.848 252.262 147.079 252.13ZM139.153 256.705L144.576 253.574C144.806 253.441 144.84 253.245 144.651 253.136L139.868 250.374C139.679 250.265 139.34 250.284 139.109 250.418L133.686 253.549C133.456 253.682 133.422 253.878 133.611 253.987L138.395 256.749C138.583 256.858 138.923 256.838 139.153 256.705ZM179.604 224.664L185.027 221.533C185.257 221.4 185.291 221.204 185.103 221.095L180.319 218.333C180.131 218.224 179.791 218.244 179.561 218.376L174.138 221.507C173.907 221.64 173.873 221.836 174.062 221.945L178.845 224.707C179.034 224.817 179.373 224.797 179.604 224.664ZM170.858 238.4L182.955 231.416C183.185 231.283 183.219 231.087 183.03 230.978L170.724 223.873C170.535 223.764 170.194 223.784 169.964 223.917L163.707 227.53C163.476 227.663 163.443 227.859 163.631 227.968L170.471 231.917C170.66 232.026 170.626 232.222 170.395 232.355L165.389 235.245C165.159 235.378 165.125 235.574 165.314 235.683L170.098 238.445C170.287 238.553 170.628 238.533 170.858 238.4ZM134.909 235.468L129.486 238.599C129.256 238.732 129.222 238.928 129.411 239.037L134.194 241.8C134.383 241.909 134.722 241.889 134.953 241.756L140.376 238.624C140.606 238.491 140.64 238.295 140.451 238.186L135.668 235.424C135.479 235.316 135.139 235.335 134.909 235.468ZM126.983 240.044L121.559 243.176C121.328 243.309 121.295 243.505 121.484 243.614L126.268 246.376C126.457 246.485 126.796 246.465 127.027 246.332L132.45 243.201C132.68 243.068 132.714 242.872 132.526 242.763L127.742 240C127.553 239.892 127.213 239.911 126.983 240.044ZM82.9106 288.783C83.0996 288.892 83.4387 288.872 83.6697 288.739L89.0929 285.607C89.3229 285.474 89.3569 285.278 89.1679 285.169L84.3847 282.407C84.1957 282.298 83.8557 282.318 83.6257 282.451L78.2024 285.582C77.9714 285.716 77.9384 285.912 78.1264 286.021L82.9106 288.783ZM63.5728 276.654L58.1495 279.785C57.9195 279.918 57.8855 280.114 58.0745 280.223L62.8578 282.984C63.0468 283.093 63.3858 283.074 63.6168 282.941L69.04 279.81C69.27 279.677 69.304 279.481 69.115 279.372L64.3308 276.611C64.1428 276.502 63.8038 276.521 63.5728 276.654ZM73.3012 285.642C73.4902 285.752 73.8302 285.733 74.0603 285.599L79.4835 282.468C79.7135 282.335 79.7475 282.139 79.5585 282.03L74.7753 279.268C74.5863 279.159 74.2473 279.179 74.0162 279.311L68.593 282.442C68.363 282.575 68.329 282.771 68.518 282.88L73.3012 285.642ZM95.3652 290.674L100.788 287.543C101.019 287.41 101.052 287.214 100.864 287.105L96.0802 284.342C95.8912 284.233 95.5522 284.253 95.3212 284.386L89.8979 287.518C89.6679 287.651 89.6339 287.847 89.8229 287.956L94.6072 290.717C94.7952 290.827 95.1342 290.808 95.3652 290.674ZM86.6798 295.294C86.8678 295.403 87.2078 295.383 87.4378 295.251L92.8611 292.12C93.0911 291.987 93.1251 291.791 92.9371 291.682L88.1529 288.92C87.9639 288.811 87.6248 288.831 87.3938 288.963L81.9706 292.094C81.7406 292.227 81.7066 292.423 81.8956 292.532L86.6798 295.294ZM71.4991 272.078L66.0759 275.209C65.8449 275.342 65.8119 275.538 66.0009 275.647L70.7841 278.409C70.9731 278.518 71.3121 278.498 71.5431 278.365L76.9664 275.234C77.1964 275.101 77.2304 274.905 77.0414 274.796L72.2582 272.034C72.0692 271.925 71.7291 271.945 71.4991 272.078ZM111.13 249.197L105.707 252.328C105.477 252.461 105.443 252.657 105.632 252.766L110.415 255.528C110.604 255.637 110.943 255.617 111.174 255.485L116.597 252.354C116.827 252.221 116.861 252.025 116.673 251.916L111.889 249.154C111.7 249.045 111.361 249.064 111.13 249.197ZM79.4255 267.502L74.0022 270.633C73.7722 270.766 73.7382 270.962 73.9272 271.071L78.7104 273.833C78.8995 273.942 79.2385 273.923 79.4695 273.789L84.8927 270.658C85.1237 270.525 85.1567 270.329 84.9677 270.22L80.1845 267.458C79.9955 267.35 79.6565 267.369 79.4255 267.502ZM119.056 244.621L113.633 247.752C113.403 247.885 113.369 248.081 113.558 248.19L118.341 250.952C118.53 251.061 118.869 251.042 119.1 250.908L124.523 247.777C124.754 247.644 124.787 247.448 124.599 247.339L119.815 244.577C119.626 244.468 119.286 244.488 119.056 244.621ZM103.205 253.773L97.7813 256.904C97.5513 257.037 97.5163 257.233 97.7053 257.342L102.49 260.103C102.678 260.212 103.018 260.193 103.249 260.059L108.672 256.928C108.902 256.795 108.937 256.599 108.748 256.49L103.964 253.728C103.775 253.621 103.435 253.64 103.205 253.773ZM95.2782 258.349L89.8549 261.48C89.6249 261.613 89.5899 261.809 89.7789 261.918L94.5632 264.681C94.7512 264.79 95.0912 264.77 95.3222 264.637L100.745 261.506C100.975 261.373 101.009 261.176 100.82 261.067L96.0372 258.305C95.8482 258.197 95.5082 258.216 95.2782 258.349ZM87.3518 262.925L81.9286 266.057C81.6986 266.19 81.6646 266.387 81.8526 266.495L86.6368 269.257C86.8258 269.366 87.1658 269.346 87.3958 269.213L92.8191 266.082C93.0491 265.949 93.0831 265.753 92.8941 265.644L88.1109 262.882C87.9219 262.773 87.5828 262.792 87.3518 262.925ZM123.3 265.859L128.724 262.727C128.955 262.594 128.988 262.398 128.8 262.289L124.015 259.527C123.826 259.418 123.486 259.438 123.256 259.571L117.833 262.702C117.603 262.836 117.569 263.031 117.758 263.141L122.541 265.903C122.73 266.011 123.07 265.991 123.3 265.859ZM197.484 199.341L192.06 202.472C191.829 202.605 191.796 202.801 191.984 202.91L196.769 205.672C196.958 205.781 197.297 205.761 197.528 205.628L202.951 202.497C203.181 202.364 203.215 202.168 203.027 202.059L198.243 199.297C198.054 199.188 197.715 199.208 197.484 199.341ZM187.888 204.88L182.465 208.011C182.235 208.144 182.201 208.34 182.39 208.449L187.173 211.211C187.362 211.32 187.702 211.3 187.932 211.167L193.356 208.036C193.586 207.903 193.62 207.707 193.432 207.598L188.647 204.836C188.459 204.728 188.119 204.748 187.888 204.88ZM205.41 194.765L199.988 197.897C199.758 198.03 199.724 198.226 199.912 198.335L204.696 201.096C204.885 201.205 205.224 201.186 205.454 201.052L210.877 197.921C211.107 197.788 211.142 197.592 210.953 197.483L206.17 194.72C205.98 194.612 205.641 194.631 205.41 194.765ZM161.249 235.261L166.672 232.131C166.903 231.998 166.936 231.802 166.747 231.692L161.964 228.93C161.775 228.821 161.435 228.841 161.205 228.974L155.782 232.105C155.552 232.238 155.518 232.434 155.706 232.543L160.49 235.305C160.678 235.414 161.018 235.394 161.249 235.261ZM214.094 190.145C213.905 190.036 213.565 190.055 213.335 190.188L207.913 193.319C207.683 193.452 207.649 193.648 207.837 193.757L212.621 196.52C212.809 196.629 213.149 196.609 213.379 196.477L218.803 193.345C219.034 193.212 219.068 193.016 218.879 192.907L214.094 190.145ZM131.227 261.281L136.65 258.15C136.881 258.017 136.914 257.821 136.725 257.712L131.942 254.95C131.753 254.841 131.414 254.861 131.183 254.993L125.76 258.125C125.53 258.258 125.496 258.454 125.685 258.563L130.468 261.325C130.657 261.434 130.997 261.414 131.227 261.281ZM228.427 205.163L233.85 202.032C234.08 201.899 234.114 201.703 233.926 201.594L229.142 198.832C228.953 198.723 228.614 198.742 228.383 198.876L222.96 202.007C222.73 202.14 222.696 202.336 222.885 202.445L227.669 205.207C227.856 205.316 228.196 205.296 228.427 205.163ZM212.977 205.396L218.401 202.264C218.631 202.131 218.665 201.935 218.476 201.826L213.691 199.064C213.503 198.955 213.163 198.974 212.933 199.107L207.51 202.238C207.279 202.371 207.245 202.567 207.434 202.676L212.218 205.438C212.406 205.549 212.747 205.529 212.977 205.396ZM221.618 194.488C221.43 194.379 221.09 194.399 220.859 194.532L215.435 197.664C215.205 197.797 215.171 197.993 215.36 198.102L220.145 200.864C220.333 200.973 220.674 200.953 220.903 200.821L226.326 197.69C226.556 197.557 226.59 197.361 226.402 197.252L221.618 194.488ZM223.287 193.525L235.593 200.631C235.782 200.74 236.121 200.72 236.352 200.587L241.776 197.456C242.006 197.323 242.04 197.127 241.852 197.018L229.544 189.912C229.355 189.803 229.015 189.823 228.785 189.956L223.362 193.087C223.132 193.219 223.098 193.416 223.287 193.525ZM205.007 203.685L199.584 206.816C199.354 206.949 199.32 207.145 199.508 207.254L204.292 210.016C204.481 210.125 204.82 210.106 205.051 209.972L210.474 206.841C210.704 206.708 210.738 206.511 210.549 206.403L205.766 203.641C205.577 203.532 205.237 203.552 205.007 203.685ZM145.352 238.126L139.929 241.258C139.699 241.391 139.665 241.587 139.854 241.696L144.637 244.458C144.826 244.567 145.166 244.548 145.396 244.415L150.82 241.284C151.05 241.151 151.084 240.955 150.895 240.846L146.111 238.083C145.922 237.973 145.582 237.993 145.352 238.126ZM219.742 209.783C219.93 209.892 220.27 209.872 220.501 209.739L225.924 206.608C226.154 206.475 226.188 206.279 225.999 206.17L221.215 203.408C221.027 203.299 220.686 203.319 220.456 203.452L215.032 206.583C214.802 206.716 214.768 206.912 214.956 207.021L219.742 209.783ZM153.279 233.55L147.855 236.681C147.624 236.814 147.591 237.01 147.78 237.119L152.564 239.881C152.753 239.99 153.092 239.971 153.323 239.838L158.746 236.707C158.976 236.574 159.01 236.378 158.821 236.269L154.038 233.507C153.849 233.397 153.509 233.417 153.279 233.55ZM90.837 284.206C91.026 284.315 91.366 284.295 91.596 284.163L97.0193 281.032C97.2493 280.899 97.2833 280.703 97.0943 280.594L92.3101 277.832C92.122 277.723 91.782 277.743 91.552 277.875L86.1288 281.006C85.8988 281.139 85.8648 281.335 86.0528 281.444L90.837 284.206ZM81.9426 274.736L76.5194 277.867C76.2893 278 76.2553 278.196 76.4444 278.305L81.2276 281.067C81.4166 281.176 81.7566 281.156 81.9866 281.024L87.4098 277.893C87.6398 277.76 87.6738 277.564 87.4848 277.455L82.7016 274.693C82.5136 274.583 82.1736 274.603 81.9426 274.736ZM99.5224 279.586L104.946 276.455C105.176 276.322 105.211 276.126 105.022 276.017L100.237 273.255C100.049 273.146 99.7094 273.165 99.4784 273.298L94.0551 276.429C93.8251 276.562 93.7911 276.758 93.9801 276.867L98.7643 279.629C98.9523 279.738 99.2914 279.719 99.5224 279.586ZM107.448 275.011L112.871 271.88C113.102 271.747 113.135 271.551 112.947 271.442L108.163 268.68C107.975 268.571 107.635 268.591 107.404 268.724L101.98 271.855C101.75 271.988 101.716 272.184 101.905 272.293L106.69 275.055C106.878 275.163 107.219 275.143 107.448 275.011ZM115.374 270.434L120.797 267.304C121.028 267.17 121.061 266.975 120.873 266.865L116.089 264.103C115.9 263.994 115.561 264.014 115.33 264.147L109.907 267.278C109.676 267.411 109.643 267.607 109.832 267.716L114.615 270.478C114.804 270.587 115.144 270.567 115.374 270.434ZM89.8689 270.16L84.4457 273.291C84.2157 273.424 84.1817 273.62 84.3697 273.729L89.1539 276.491C89.3429 276.6 89.6819 276.581 89.9129 276.447L95.3362 273.316C95.5672 273.183 95.6002 272.987 95.4122 272.878L90.628 270.116C90.439 270.007 90.1 270.027 89.8689 270.16ZM97.7953 265.584L92.3721 268.715C92.141 268.848 92.107 269.044 92.2961 269.153L97.0803 271.915C97.2693 272.024 97.6093 272.004 97.8393 271.872L103.263 268.741C103.493 268.608 103.527 268.412 103.338 268.303L98.5543 265.541C98.3653 265.431 98.0253 265.451 97.7953 265.584ZM129.5 247.279L124.076 250.409C123.845 250.542 123.812 250.738 124.001 250.848L128.785 253.61C128.974 253.719 129.313 253.699 129.544 253.566L134.967 250.435C135.197 250.302 135.231 250.106 135.043 249.996L130.259 247.235C130.07 247.126 129.731 247.146 129.5 247.279ZM121.573 251.855L116.15 254.986C115.92 255.119 115.885 255.316 116.075 255.424L120.858 258.186C121.047 258.295 121.387 258.275 121.617 258.142L127.041 255.012C127.271 254.879 127.306 254.683 127.117 254.573L122.332 251.811C122.143 251.702 121.804 251.722 121.573 251.855ZM137.426 242.703L132.003 245.834C131.772 245.967 131.739 246.163 131.928 246.272L136.711 249.034C136.9 249.143 137.24 249.123 137.47 248.99L142.893 245.859C143.123 245.726 143.157 245.53 142.968 245.421L138.185 242.659C137.996 242.55 137.656 242.57 137.426 242.703ZM105.722 261.006L100.298 264.138C100.068 264.271 100.033 264.467 100.222 264.576L105.007 267.338C105.195 267.447 105.535 267.428 105.766 267.295L111.189 264.164C111.419 264.031 111.453 263.835 111.265 263.726L106.481 260.963C106.292 260.855 105.952 260.874 105.722 261.006ZM113.647 256.431L108.224 259.562C107.994 259.695 107.96 259.891 108.149 260L112.933 262.762C113.121 262.872 113.461 262.852 113.691 262.719L119.114 259.588C119.344 259.455 119.378 259.259 119.19 259.15L114.406 256.388C114.218 256.278 113.878 256.298 113.647 256.431ZM103.292 286.098L108.715 282.966C108.945 282.833 108.979 282.637 108.791 282.528L104.007 279.766C103.818 279.657 103.479 279.676 103.248 279.81L97.8243 282.941C97.5933 283.074 97.5603 283.27 97.7483 283.38L102.531 286.143C102.721 286.25 103.061 286.231 103.292 286.098ZM61.1897 283.948L56.4055 281.186C56.2165 281.077 55.8764 281.097 55.6464 281.229L50.2232 284.36C49.9932 284.493 49.9592 284.689 50.1482 284.798L54.9314 287.561C55.1204 287.67 55.4604 287.65 55.6904 287.517L61.1137 284.385C61.3447 284.253 61.3777 284.057 61.1897 283.948ZM71.6331 286.607L66.8489 283.844C66.6609 283.735 66.3209 283.754 66.0899 283.888L57.7465 288.706C57.5155 288.839 57.4825 289.035 57.6715 289.144L62.4547 291.905C62.6437 292.014 62.9828 291.995 63.2138 291.862L71.5571 287.045C71.7881 286.912 71.8221 286.716 71.6331 286.607ZM54.1464 278.437L49.3632 275.676C49.1742 275.567 48.8351 275.586 48.6041 275.719L41.9298 279.573C41.6998 279.706 41.6658 279.902 41.8548 280.011L46.638 282.773C46.827 282.882 47.1671 282.862 47.3971 282.729L54.0724 278.875C54.3024 278.743 54.3354 278.546 54.1464 278.437ZM59.2646 275.483C59.4526 275.592 59.7926 275.572 60.0226 275.44L65.4459 272.308C65.6759 272.175 65.7099 271.979 65.5219 271.87L60.7377 269.108C60.5497 268.999 60.2086 269.019 59.9786 269.151L54.5564 272.282C54.3254 272.415 54.2924 272.611 54.4804 272.72L59.2646 275.483ZM81.2426 289.746L76.4594 286.984C76.2703 286.875 75.9303 286.895 75.7003 287.028L65.2709 293.049C65.0409 293.182 65.0068 293.378 65.1959 293.487L69.9791 296.249C70.1681 296.358 70.5071 296.338 70.7381 296.206L81.1676 290.185C81.3976 290.051 81.4316 289.855 81.2426 289.746ZM85.0117 296.257L80.2275 293.496C80.0395 293.387 79.6995 293.406 79.4695 293.539L72.7942 297.393C72.5642 297.526 72.5302 297.722 72.7192 297.831L77.5034 300.593C77.6924 300.702 78.0324 300.682 78.2624 300.549L84.9367 296.695C85.1657 296.562 85.1997 296.366 85.0117 296.257ZM118.196 241.459C118.384 241.568 118.724 241.548 118.954 241.416L124.377 238.284C124.608 238.151 124.642 237.955 124.453 237.846L119.67 235.084C119.481 234.975 119.141 234.995 118.91 235.127L113.488 238.258C113.257 238.391 113.223 238.587 113.412 238.696L118.196 241.459ZM102.343 250.611C102.532 250.72 102.873 250.7 103.103 250.567L108.526 247.436C108.756 247.303 108.79 247.107 108.601 246.998L103.818 244.236C103.629 244.127 103.29 244.147 103.059 244.28L97.6353 247.411C97.4043 247.544 97.3713 247.74 97.5593 247.85L102.343 250.611ZM67.1899 270.907C67.379 271.016 67.719 270.997 67.949 270.864L73.3722 267.733C73.6022 267.6 73.6372 267.404 73.4482 267.295L68.664 264.533C68.476 264.425 68.136 264.444 67.905 264.577L62.4817 267.708C62.2517 267.841 62.2177 268.037 62.4067 268.146L67.1899 270.907ZM110.27 246.035C110.459 246.144 110.798 246.125 111.029 245.991L116.452 242.86C116.682 242.727 116.716 242.531 116.527 242.422L111.744 239.659C111.555 239.55 111.216 239.569 110.985 239.703L105.562 242.835C105.332 242.968 105.298 243.164 105.486 243.273L110.27 246.035ZM94.4171 255.187C94.6061 255.296 94.9462 255.276 95.1762 255.143L100.599 252.012C100.829 251.879 100.863 251.683 100.674 251.574L95.8912 248.812C95.7022 248.703 95.3622 248.722 95.1322 248.856L89.7089 251.987C89.4789 252.12 89.4449 252.316 89.6339 252.425L94.4171 255.187ZM89.4199 296.875C89.2309 296.766 88.8919 296.785 88.6609 296.918L80.3175 301.735C80.0875 301.868 80.0535 302.064 80.2425 302.173L85.0267 304.934C85.2157 305.043 85.5548 305.024 85.7858 304.89L94.1291 300.073C94.3591 299.94 94.3931 299.744 94.2041 299.635L89.4199 296.875ZM83.0426 261.754C83.2316 261.863 83.5717 261.843 83.8017 261.71L89.2249 258.579C89.4559 258.446 89.4889 258.25 89.2999 258.14L84.5167 255.378C84.3277 255.269 83.9887 255.289 83.7577 255.422L78.3344 258.553C78.1034 258.686 78.0704 258.882 78.2584 258.991L83.0426 261.754ZM75.1163 266.331C75.3053 266.44 75.6443 266.421 75.8753 266.288L81.2986 263.156C81.5286 263.023 81.5626 262.827 81.3746 262.718L76.5904 259.956C76.4014 259.847 76.0613 259.867 75.8313 260L70.4081 263.131C70.1781 263.265 70.1441 263.46 70.3331 263.57L75.1163 266.331ZM236.262 212.096C236.073 211.987 235.734 212.006 235.503 212.139L222.155 219.847C221.924 219.98 221.89 220.176 222.079 220.286L226.863 223.047C227.051 223.156 227.391 223.136 227.622 223.003L240.971 215.295C241.201 215.162 241.235 214.966 241.046 214.857L236.262 212.096ZM218.741 222.212C218.552 222.103 218.213 222.122 217.982 222.255L212.558 225.386C212.327 225.519 212.294 225.715 212.483 225.824L217.267 228.586C217.456 228.695 217.796 228.675 218.026 228.542L223.449 225.411C223.679 225.278 223.713 225.082 223.524 224.973L218.741 222.212ZM111.217 281.521L116.64 278.39C116.87 278.257 116.904 278.06 116.715 277.952L111.932 275.19C111.743 275.081 111.404 275.101 111.173 275.234L105.75 278.365C105.52 278.498 105.486 278.694 105.675 278.803L110.458 281.565C110.647 281.674 110.987 281.654 111.217 281.521ZM202.889 231.364C202.7 231.255 202.361 231.275 202.13 231.408L196.707 234.539C196.477 234.672 196.443 234.868 196.632 234.977L201.415 237.739C201.604 237.848 201.943 237.828 202.174 237.696L207.597 234.565C207.827 234.432 207.861 234.236 207.673 234.127L202.889 231.364ZM244.189 207.519C244 207.41 243.66 207.43 243.43 207.562L238.006 210.693C237.776 210.826 237.742 211.022 237.931 211.131L242.715 213.893C242.904 214.002 243.244 213.982 243.474 213.85L248.897 210.719C249.128 210.586 249.161 210.39 248.973 210.281L244.189 207.519ZM256.898 205.705L244.591 198.599C244.402 198.49 244.063 198.51 243.832 198.643L238.408 201.774C238.178 201.907 238.144 202.103 238.333 202.212L250.64 209.318C250.829 209.427 251.168 209.407 251.399 209.275L256.822 206.144C257.053 206.01 257.086 205.814 256.898 205.705ZM173.27 248.464C173.082 248.355 172.741 248.375 172.511 248.508L165.836 252.361C165.606 252.494 165.572 252.69 165.76 252.799L170.545 255.56C170.734 255.669 171.073 255.65 171.304 255.517L177.978 251.664C178.208 251.531 178.243 251.335 178.054 251.226L173.27 248.464ZM193.295 236.903C193.105 236.794 192.765 236.814 192.535 236.947L184.192 241.765C183.962 241.898 183.928 242.094 184.116 242.203L188.9 244.965C189.088 245.074 189.428 245.054 189.659 244.921L198.003 240.103C198.233 239.97 198.267 239.774 198.078 239.665L193.295 236.903ZM154.915 259.061C154.726 258.952 154.387 258.972 154.156 259.105L109.519 284.876C109.289 285.009 109.254 285.205 109.443 285.314L114.227 288.077C114.415 288.186 114.755 288.167 114.986 288.034L159.623 262.262C159.854 262.129 159.887 261.933 159.699 261.823L154.915 259.061ZM107.775 286.278C107.586 286.168 107.246 286.188 107.016 286.321L100.34 290.175C100.11 290.308 100.076 290.504 100.265 290.613L105.049 293.375C105.238 293.484 105.578 293.464 105.808 293.331L112.483 289.477C112.713 289.344 112.747 289.148 112.558 289.039L107.775 286.278ZM164.092 253.763C163.903 253.654 163.564 253.674 163.333 253.806L156.659 257.659C156.428 257.793 156.394 257.988 156.583 258.097L161.367 260.858C161.555 260.968 161.895 260.948 162.126 260.815L168.8 256.961C169.03 256.828 169.064 256.632 168.875 256.523L164.092 253.763ZM98.5973 291.577C98.4093 291.468 98.0693 291.488 97.8383 291.621L91.164 295.474C90.933 295.607 90.9 295.803 91.089 295.912L95.8722 298.674C96.0612 298.783 96.4002 298.763 96.6312 298.631L103.306 294.777C103.536 294.644 103.57 294.448 103.382 294.339L98.5973 291.577ZM182.448 243.166C182.259 243.057 181.92 243.076 181.689 243.209L175.014 247.062C174.784 247.195 174.75 247.391 174.939 247.5L179.723 250.262C179.911 250.371 180.252 250.352 180.481 250.219L187.156 246.366C187.386 246.233 187.42 246.037 187.231 245.928L182.448 243.166ZM210.815 226.788C210.626 226.679 210.286 226.699 210.056 226.832L204.633 229.963C204.403 230.096 204.369 230.292 204.558 230.401L209.341 233.163C209.53 233.272 209.869 233.252 210.1 233.119L215.523 229.988C215.754 229.855 215.787 229.659 215.598 229.549L210.815 226.788ZM228.024 214.083L233.447 210.952C233.678 210.819 233.712 210.623 233.523 210.514L228.739 207.753C228.55 207.644 228.211 207.663 227.98 207.797L222.557 210.928C222.327 211.061 222.293 211.257 222.482 211.366L227.266 214.128C227.454 214.235 227.794 214.216 228.024 214.083ZM195.457 215.511L200.88 212.38C201.11 212.247 201.144 212.051 200.956 211.942L196.172 209.181C195.983 209.072 195.644 209.091 195.413 209.224L189.989 212.355C189.758 212.488 189.725 212.684 189.914 212.793L194.698 215.554C194.887 215.664 195.226 215.644 195.457 215.511ZM174.627 244.912L190.479 235.759C190.709 235.626 190.743 235.43 190.554 235.321L185.771 232.559C185.582 232.451 185.243 232.47 185.012 232.603L169.159 241.756C168.929 241.889 168.895 242.085 169.084 242.194L173.868 244.955C174.057 245.065 174.396 245.046 174.627 244.912ZM219.339 218.703C219.527 218.812 219.868 218.792 220.097 218.659L225.52 215.527C225.751 215.394 225.784 215.198 225.596 215.089L220.812 212.327C220.623 212.218 220.284 212.238 220.054 212.371L214.63 215.502C214.4 215.635 214.366 215.831 214.555 215.94L219.339 218.703ZM212.574 214.315L217.998 211.184C218.228 211.051 218.262 210.855 218.073 210.746L213.289 207.984C213.1 207.875 212.76 207.895 212.53 208.027L207.107 211.158C206.876 211.291 206.842 211.487 207.031 211.596L211.815 214.358C212.004 214.468 212.344 214.448 212.574 214.315ZM166.7 249.489L172.124 246.358C172.354 246.225 172.388 246.029 172.199 245.92L167.415 243.158C167.226 243.049 166.887 243.068 166.656 243.201L161.233 246.332C161.003 246.465 160.969 246.661 161.158 246.77L165.941 249.532C166.13 249.641 166.469 249.621 166.7 249.489ZM201.818 228.819C202.007 228.928 202.347 228.908 202.577 228.775L208 225.644C208.23 225.511 208.264 225.315 208.076 225.206L203.292 222.444C203.103 222.335 202.764 222.354 202.533 222.487L197.11 225.618C196.88 225.751 196.846 225.947 197.035 226.056L201.818 228.819ZM127.07 272.369L132.493 269.238C132.723 269.105 132.757 268.909 132.568 268.8L127.784 266.038C127.596 265.929 127.256 265.948 127.025 266.081L121.601 269.212C121.371 269.345 121.337 269.541 121.525 269.65L126.31 272.412C126.5 272.522 126.84 272.502 127.07 272.369ZM134.996 267.793L140.419 264.662C140.649 264.529 140.683 264.333 140.494 264.224L135.71 261.461C135.522 261.352 135.182 261.372 134.952 261.505L129.529 264.637C129.299 264.77 129.265 264.966 129.453 265.075L134.237 267.837C134.426 267.946 134.765 267.927 134.996 267.793ZM119.143 276.945L124.566 273.814C124.796 273.681 124.83 273.485 124.641 273.376L119.858 270.615C119.669 270.506 119.33 270.525 119.099 270.658L113.676 273.789C113.445 273.922 113.412 274.118 113.6 274.227L118.384 276.989C118.573 277.097 118.913 277.078 119.143 276.945ZM150.848 258.64L156.271 255.509C156.502 255.376 156.536 255.18 156.347 255.071L151.564 252.309C151.376 252.2 151.035 252.22 150.805 252.352L145.381 255.483C145.151 255.616 145.117 255.812 145.306 255.921L150.09 258.683C150.278 258.793 150.618 258.773 150.848 258.64ZM142.922 263.216L148.346 260.085C148.576 259.952 148.61 259.756 148.422 259.647L143.637 256.885C143.449 256.776 143.108 256.795 142.878 256.929L137.455 260.06C137.225 260.193 137.191 260.389 137.38 260.498L142.164 263.261C142.352 263.369 142.691 263.35 142.922 263.216ZM158.774 254.064L164.197 250.933C164.427 250.8 164.461 250.604 164.273 250.495L159.489 247.733C159.3 247.624 158.961 247.643 158.73 247.776L153.307 250.907C153.077 251.04 153.043 251.236 153.232 251.345L158.015 254.107C158.204 254.217 158.544 254.197 158.774 254.064ZM202.572 190.717C202.761 190.826 203.101 190.806 203.331 190.674L208.754 187.543C208.984 187.41 209.018 187.214 208.829 187.105L207.556 186.369C207.367 186.26 207.027 186.28 206.797 186.413L201.374 189.544C201.145 189.677 201.11 189.873 201.299 189.982L202.572 190.717ZM163.028 215.575C163.216 215.684 163.556 215.665 163.787 215.532L169.21 212.401C169.44 212.268 169.474 212.072 169.285 211.963L164.502 209.202C164.313 209.092 163.973 209.112 163.743 209.245L158.32 212.376C158.09 212.509 158.056 212.705 158.244 212.814L163.028 215.575ZM178.88 206.423C179.068 206.532 179.408 206.512 179.638 206.379L185.061 203.248C185.292 203.115 185.325 202.919 185.137 202.809L180.353 200.047C180.164 199.938 179.825 199.958 179.594 200.091L174.171 203.222C173.941 203.355 173.907 203.551 174.096 203.66L178.88 206.423ZM153.349 221.164C153.538 221.273 153.877 221.254 154.108 221.12L159.531 217.989C159.761 217.855 159.795 217.659 159.606 217.55L154.823 214.788C154.634 214.679 154.294 214.699 154.064 214.832L148.641 217.964C148.411 218.097 148.377 218.293 148.565 218.402L153.349 221.164ZM170.954 210.999C171.142 211.108 171.483 211.088 171.713 210.955L177.136 207.824C177.366 207.691 177.4 207.495 177.211 207.386L172.427 204.624C172.239 204.515 171.899 204.534 171.669 204.667L166.245 207.798C166.014 207.931 165.98 208.127 166.169 208.236L170.954 210.999ZM137.497 230.316C137.686 230.424 138.026 230.405 138.256 230.272L143.679 227.141C143.909 227.008 143.943 226.812 143.755 226.703L138.971 223.942C138.782 223.833 138.442 223.852 138.212 223.986L132.789 227.117C132.558 227.25 132.525 227.446 132.714 227.555L137.497 230.316ZM145.423 225.739C145.612 225.848 145.952 225.828 146.182 225.695L151.606 222.564C151.836 222.431 151.87 222.235 151.681 222.126L146.897 219.364C146.708 219.255 146.369 219.275 146.138 219.408L140.715 222.539C140.484 222.672 140.451 222.868 140.639 222.977L145.423 225.739ZM186.719 199.87C186.908 199.979 187.248 199.959 187.478 199.826L192.901 196.695C193.131 196.562 193.165 196.366 192.976 196.257L191.702 195.522C191.513 195.413 191.174 195.433 190.944 195.565L185.521 198.697C185.29 198.83 185.257 199.026 185.445 199.135L186.719 199.87ZM210.498 186.141C210.687 186.25 211.026 186.231 211.257 186.098L216.681 182.967C216.911 182.834 216.945 182.638 216.756 182.529L215.482 181.794C215.293 181.686 214.954 181.705 214.723 181.838L209.3 184.969C209.07 185.102 209.036 185.298 209.225 185.407L210.498 186.141ZM220.547 191.943C220.736 192.052 221.075 192.033 221.306 191.9L226.729 188.769C226.959 188.636 226.993 188.44 226.805 188.331L222.021 185.569C221.833 185.46 221.493 185.479 221.262 185.612L215.838 188.743C215.608 188.876 215.574 189.072 215.763 189.181L220.547 191.943ZM235.95 209.507L241.374 206.376C241.604 206.243 241.639 206.047 241.45 205.938L236.665 203.176C236.477 203.067 236.136 203.087 235.906 203.219L230.483 206.35C230.253 206.483 230.219 206.679 230.408 206.788L235.191 209.55C235.379 209.66 235.719 209.64 235.95 209.507ZM194.646 195.294C194.835 195.403 195.174 195.384 195.405 195.251L200.828 192.119C201.058 191.986 201.092 191.79 200.903 191.681L199.63 190.946C199.441 190.837 199.101 190.856 198.871 190.989L193.448 194.12C193.218 194.253 193.184 194.449 193.373 194.558L194.646 195.294ZM129.571 234.891C129.76 235 130.1 234.981 130.33 234.848L135.753 231.717C135.983 231.584 136.018 231.388 135.829 231.279L131.045 228.517C130.856 228.408 130.517 228.428 130.286 228.56L124.862 231.692C124.632 231.825 124.598 232.021 124.787 232.13L129.571 234.891Z" fill="#455A64"/>
<path d="M153.838 275.822L154.951 276.464L184.485 293.513L237.01 263.187L238.103 262.564L207.456 244.874L153.838 275.822Z" fill="#263238"/>
<path d="M236.52 263.47L207.456 246.703L155.44 276.746L184.485 293.513L236.52 263.47Z" fill="#37474F"/>
<path d="M2.38511 270.306C0.00600054 268.628 0.000999495 266.392 0.000999495 263.287L0 116.914C0 113.81 2.1791 110.036 4.86721 108.484L191.471 0.746939C194.16 -0.805129 196.639 0.31992 199.161 1.77498C201.683 3.23105 203.291 4.48711 203.291 7.59124V153.965C203.291 157.069 201.112 160.843 198.424 162.395L11.8185 270.132C7.74934 272.875 4.97522 272.133 2.38511 270.306Z" fill="#455A64"/>
<path d="M11.8185 270.134C7.75029 272.873 4.97117 272.132 2.38606 270.303C0.00995251 268.628 0.00195321 266.388 0.00195321 263.287V116.916C0.00195321 115.361 0.549977 113.646 1.42001 112.123L8.37132 116.167C7.49328 117.681 6.95326 119.397 6.95326 120.944V267.323C6.95326 270.424 9.12735 271.68 11.8185 270.134Z" fill="#263238"/>
<path d="M6.95136 120.948V267.322C6.95136 270.426 9.13045 271.684 11.8186 270.132L198.424 162.396C201.112 160.844 203.291 157.07 203.291 153.966V7.59122C203.291 4.48708 201.112 3.22902 198.424 4.78109L11.8186 112.517C9.13045 114.069 6.95136 117.844 6.95136 120.948Z" fill="#37474F"/>
<path d="M14.4366 118.132L194.348 14.2875C195.961 13.3565 197.268 14.1115 197.268 15.9736V149.365C197.268 151.229 195.96 153.493 194.348 154.424L14.4366 258.266C12.8236 259.197 11.5165 258.442 11.5165 256.58V123.19C11.5155 121.327 12.8236 119.063 14.4366 118.132Z" fill="#263238"/>
<path d="M14.4366 118.132C12.8236 119.063 11.5165 121.328 11.5165 123.19V255.713L190.369 152.482C191.982 151.551 193.289 149.285 193.289 147.423V14.8985L14.4366 118.132Z" fill="#3F72AF"/>
<path opacity="0.7" d="M14.4366 118.132C12.8236 119.063 11.5165 121.328 11.5165 123.19V255.713L190.369 152.482C191.982 151.551 193.289 149.285 193.289 147.423V14.8985L14.4366 118.132Z" fill="white"/>
<path d="M24.916 238.811C23.983 238.811 23.426 238.05 23.426 236.775V133.669L185.357 40.1777L185.358 142.831C185.358 144.871 183.92 147.361 182.153 148.381L26.2381 238.399C25.7711 238.669 25.314 238.811 24.916 238.811Z" fill="#FAFAFA"/>
<path d="M184.964 40.8587L184.965 142.831C184.965 144.714 183.587 147.1 181.957 148.042L26.0411 238.059C25.6341 238.294 25.2441 238.418 24.9151 238.418C23.925 238.418 23.818 237.269 23.818 236.775V133.896L184.964 40.8587ZM185.749 39.4976L23.033 133.443V236.776C23.033 238.314 23.799 239.204 24.9151 239.204C25.3721 239.204 25.8881 239.055 26.4341 238.739L182.349 148.721C184.227 147.637 185.75 144.999 185.75 142.83L185.749 39.4976Z" fill="#E0E0E0"/>
<path d="M23.033 133.443V148.168L185.748 54.2253L185.749 39.4976L23.033 133.443Z" fill="#3F72AF"/>
<path d="M125.131 80.2714L125.131 83.4416C125.131 84.0896 125.591 84.3546 126.152 84.0306L176.179 55.1473V49.6211L126.152 78.5043C125.59 78.8284 125.131 79.6234 125.131 80.2714Z" fill="#FAFAFA"/>
<path d="M181.54 46.526C182.103 46.201 182.56 46.464 182.56 47.115V50.2851C182.56 50.9362 182.103 51.7272 181.54 52.0522L176.179 55.1473V49.6211L181.54 46.526Z" fill="#455A64"/>
<path d="M181.143 50.8722L180.545 50.6851C180.607 50.4311 180.641 50.1701 180.641 49.9151C180.641 49.3031 180.442 48.8381 180.096 48.6381C179.838 48.4901 179.529 48.5041 179.224 48.6811C178.554 49.0681 178.029 50.1601 178.029 51.1672C178.029 51.7792 178.228 52.2442 178.574 52.4442C178.691 52.5122 178.819 52.5452 178.953 52.5452C179.112 52.5452 179.28 52.4972 179.445 52.4012C179.848 52.1682 180.195 51.6792 180.411 51.1082L181.01 51.2952C181.032 51.3022 181.054 51.3052 181.076 51.3052C181.171 51.3052 181.258 51.2442 181.288 51.1492C181.325 51.0332 181.26 50.9082 181.143 50.8722ZM179.224 52.0182C179.058 52.1142 178.914 52.1292 178.796 52.0602C178.597 51.9452 178.473 51.6032 178.473 51.1672C178.473 50.3321 178.918 49.3691 179.446 49.0641C179.543 49.0081 179.633 48.9791 179.715 48.9791C179.772 48.9791 179.826 48.9931 179.874 49.0211C180.073 49.1361 180.197 49.4781 180.197 49.9141C180.197 50.7502 179.752 51.7132 179.224 52.0182Z" fill="#FAFAFA"/>
<path d="M23.033 126.317C23.033 124.148 24.5561 121.511 26.4341 120.426L182.348 30.4092C184.226 29.3242 185.749 30.2042 185.749 32.3733V39.4986L23.033 133.443V126.317Z" fill="#37474F"/>
<path d="M166.607 43.1728C165.726 43.6818 165.012 44.9189 165.012 45.9359C165.012 46.953 165.726 47.366 166.607 46.857C167.488 46.3479 168.202 45.1109 168.202 44.0938C168.202 43.0758 167.488 42.6638 166.607 43.1728Z" fill="#3F72AF"/>
<path d="M172.191 39.9577C171.31 40.4667 170.596 41.7038 170.596 42.7208C170.596 43.7379 171.31 44.1509 172.191 43.6419C173.072 43.1328 173.786 41.8958 173.786 40.8787C173.786 39.8607 173.072 39.4487 172.191 39.9577Z" fill="#3F72AF"/>
<path d="M177.773 36.7415C176.892 37.2506 176.178 38.4876 176.178 39.5047C176.178 40.5227 176.892 40.9347 177.773 40.4257C178.654 39.9167 179.368 38.6796 179.368 37.6626C179.368 36.6455 178.654 36.2335 177.773 36.7415Z" fill="#3F72AF"/>
<path d="M24.916 238.811C23.983 238.811 23.426 238.05 23.426 236.775V148.394L54.5483 130.427V222.055L26.2381 238.399C25.7711 238.669 25.314 238.811 24.916 238.811Z" fill="#F5F5F5"/>
<path d="M54.1554 131.108V221.829L26.0421 238.06C25.6351 238.295 25.2461 238.419 24.9161 238.419C23.926 238.419 23.819 237.27 23.819 236.776V148.622L54.1554 131.108ZM54.9404 129.748L23.033 148.169V236.777C23.033 238.315 23.799 239.205 24.9151 239.205C25.3721 239.205 25.8881 239.056 26.4341 238.74L54.9404 222.283V129.748Z" fill="#E0E0E0"/>
<path d="M33.6265 149.423L48.8902 140.6C49.4532 140.274 49.9102 140.538 49.9102 141.189V142.517C49.9102 143.168 49.4532 143.959 48.8902 144.285L33.6255 153.108C33.0625 153.434 32.6054 153.17 32.6054 152.519V151.191C32.6064 150.54 33.0635 149.748 33.6265 149.423Z" fill="#E0E0E0"/>
<path d="M29.4153 153.032V154.36C29.4153 155.011 28.9583 155.802 28.3953 156.127L27.2452 156.791C26.6822 157.116 26.2252 156.853 26.2252 156.202V154.874C26.2252 154.223 26.6822 153.432 27.2452 153.107L28.3953 152.443C28.9583 152.118 29.4153 152.382 29.4153 153.032Z" fill="#3F72AF"/>
<path d="M33.6265 156.763L48.8902 147.94C49.4532 147.614 49.9102 147.878 49.9102 148.529V149.858C49.9102 150.509 49.4532 151.3 48.8902 151.626L33.6255 160.448C33.0625 160.774 32.6054 160.51 32.6054 159.859V158.531C32.6064 157.88 33.0635 157.089 33.6265 156.763Z" fill="#E0E0E0"/>
<path d="M29.4153 160.373V161.701C29.4153 162.352 28.9583 163.143 28.3953 163.468L27.2452 164.132C26.6822 164.457 26.2252 164.194 26.2252 163.543V162.215C26.2252 161.564 26.6822 160.773 27.2452 160.448L28.3953 159.784C28.9583 159.458 29.4153 159.722 29.4153 160.373Z" fill="#3F72AF"/>
<path d="M33.6265 164.104L48.8902 155.282C49.4532 154.956 49.9102 155.22 49.9102 155.871V157.199C49.9102 157.85 49.4532 158.641 48.8902 158.967L33.6255 167.789C33.0625 168.115 32.6054 167.851 32.6054 167.2V165.872C32.6064 165.221 33.0635 164.43 33.6265 164.104Z" fill="#E0E0E0"/>
<path d="M29.4153 167.713V169.041C29.4153 169.692 28.9583 170.483 28.3953 170.808L27.2452 171.472C26.6822 171.798 26.2252 171.534 26.2252 170.883V169.555C26.2252 168.904 26.6822 168.113 27.2452 167.788L28.3953 167.124C28.9583 166.799 29.4153 167.063 29.4153 167.713Z" fill="#3F72AF"/>
<path d="M33.6265 188.446L48.8902 179.624C49.4532 179.298 49.9102 179.562 49.9102 180.213V181.541C49.9102 182.192 49.4532 182.983 48.8902 183.309L33.6255 192.131C33.0625 192.457 32.6054 192.193 32.6054 191.542V190.214C32.6064 189.564 33.0635 188.772 33.6265 188.446Z" fill="#E0E0E0"/>
<path d="M29.4153 192.056V193.384C29.4153 194.035 28.9583 194.826 28.3953 195.151L27.2452 195.816C26.6822 196.141 26.2252 195.878 26.2252 195.226V193.898C26.2252 193.247 26.6822 192.456 27.2452 192.131L28.3953 191.467C28.9583 191.142 29.4153 191.405 29.4153 192.056Z" fill="#3F72AF"/>
<path d="M33.6265 194.948L48.8902 186.126C49.4532 185.8 49.9102 186.064 49.9102 186.715V188.043C49.9102 188.694 49.4532 189.485 48.8902 189.811L33.6255 198.634C33.0625 198.96 32.6054 198.696 32.6054 198.045V196.717C32.6064 196.066 33.0635 195.274 33.6265 194.948Z" fill="#E0E0E0"/>
<path d="M29.4153 198.558V199.886C29.4153 200.537 28.9583 201.328 28.3953 201.653L27.2452 202.317C26.6822 202.642 26.2252 202.379 26.2252 201.728V200.4C26.2252 199.749 26.6822 198.958 27.2452 198.633L28.3953 197.969C28.9583 197.644 29.4153 197.908 29.4153 198.558Z" fill="#3F72AF"/>
<path d="M33.6265 201.45L48.8902 192.627C49.4532 192.301 49.9102 192.565 49.9102 193.216V194.544C49.9102 195.195 49.4532 195.987 48.8902 196.313L33.6255 205.135C33.0625 205.461 32.6054 205.197 32.6054 204.546V203.218C32.6064 202.567 33.0635 201.776 33.6265 201.45Z" fill="#E0E0E0"/>
<path d="M29.4153 205.06V206.388C29.4153 207.039 28.9583 207.83 28.3953 208.155L27.2452 208.819C26.6822 209.144 26.2252 208.881 26.2252 208.23V206.902C26.2252 206.251 26.6822 205.46 27.2452 205.135L28.3953 204.471C28.9583 204.145 29.4153 204.409 29.4153 205.06Z" fill="#3F72AF"/>
<path d="M32.6064 172.116V174.407L34.5895 172.116H32.6064Z" fill="#3F72AF"/>
<path d="M35.7965 171.644C35.7965 172.069 36.1015 172.238 36.4775 172.022L49.2301 164.679C49.6061 164.463 49.9111 163.938 49.9111 163.507C49.9111 163.076 49.6061 162.903 49.2311 163.12L36.4785 170.483C36.1015 170.699 35.7965 171.219 35.7965 171.644Z" fill="#E0E0E0"/>
<path d="M32.6064 175.8V178.09L34.5895 175.8H32.6064Z" fill="#3F72AF"/>
<path d="M35.7965 175.328C35.7965 175.753 36.1015 175.922 36.4775 175.705L49.2301 168.361C49.6061 168.145 49.9111 167.62 49.9111 167.189C49.9111 166.758 49.6061 166.584 49.2311 166.801L36.4785 174.165C36.1015 174.383 35.7965 174.903 35.7965 175.328Z" fill="#E0E0E0"/>
<path d="M32.6064 179.482V181.773L34.5895 179.482H32.6064Z" fill="#3F72AF"/>
<path d="M35.7965 179.011C35.7965 179.436 36.1015 179.605 36.4775 179.388L49.2301 172.044C49.6061 171.828 49.9111 171.303 49.9111 170.872C49.9111 170.441 49.6061 170.268 49.2311 170.484L36.4785 177.848C36.1015 178.065 35.7965 178.586 35.7965 179.011Z" fill="#E0E0E0"/>
<path d="M32.6064 183.165V185.456L34.5895 183.165H32.6064Z" fill="#3F72AF"/>
<path d="M35.7965 182.694C35.7965 183.119 36.1015 183.288 36.4775 183.072L49.2301 175.729C49.6061 175.513 49.9111 174.988 49.9111 174.557C49.9111 174.126 49.6061 173.953 49.2311 174.17L36.4785 181.533C36.1015 181.748 35.7965 182.269 35.7965 182.694Z" fill="#E0E0E0"/>
<path d="M64.5119 135.91V155.106C64.5119 155.909 65.0759 156.235 65.7709 155.833L86.8789 143.645C87.5739 143.243 88.1379 142.267 88.1379 141.464V125.678C88.1379 124.875 87.5739 124.549 86.8789 124.951L74.6303 132.023C73.9353 132.425 73.3713 132.099 73.3713 131.296V130.794C73.3713 129.991 72.8072 129.665 72.1122 130.067L65.7709 133.728C65.0749 134.13 64.5119 135.107 64.5119 135.91Z" fill="#3F72AF"/>
<path d="M68.66 158.727V159.956C68.66 160.558 69.083 160.802 69.605 160.501L85.4377 151.36C85.9598 151.059 86.3828 150.326 86.3828 149.723V148.494C86.3828 147.892 85.9598 147.648 85.4377 147.949L69.605 157.091C69.083 157.393 68.66 158.125 68.66 158.727Z" fill="#E0E0E0"/>
<path d="M93.8581 119.058V138.254C93.8581 139.057 94.4222 139.383 95.1172 138.981L116.225 126.793C116.92 126.391 117.484 125.415 117.484 124.612V108.826C117.484 108.023 116.92 107.697 116.225 108.099L103.977 115.17C103.282 115.572 102.718 115.246 102.718 114.443V113.941C102.718 113.138 102.153 112.813 101.458 113.214L95.1172 116.875C94.4222 117.278 93.8581 118.255 93.8581 119.058Z" fill="#3F72AF"/>
<path d="M98.0074 141.875V143.104C98.0074 143.706 98.4304 143.95 98.9524 143.649L114.785 134.508C115.307 134.207 115.73 133.474 115.73 132.872V131.643C115.73 131.041 115.307 130.797 114.785 131.098L98.9524 140.239C98.4294 140.541 98.0074 141.273 98.0074 141.875Z" fill="#E0E0E0"/>
<path d="M64.5119 174.474V193.669C64.5119 194.472 65.0759 194.798 65.7709 194.396L86.8789 182.209C87.5739 181.808 88.1379 180.831 88.1379 180.028V164.242C88.1379 163.439 87.5739 163.113 86.8789 163.515L74.6303 170.586C73.9353 170.988 73.3713 170.662 73.3713 169.859V169.357C73.3713 168.554 72.8072 168.229 72.1122 168.63L65.7709 172.291C65.0749 172.694 64.5119 173.671 64.5119 174.474Z" fill="#3F72AF"/>
<path d="M68.66 197.292V198.521C68.66 199.123 69.083 199.367 69.605 199.066L85.4377 189.924C85.9598 189.623 86.3828 188.89 86.3828 188.288V187.059C86.3828 186.457 85.9598 186.213 85.4377 186.514L69.605 195.655C69.083 195.956 68.66 196.69 68.66 197.292Z" fill="#E0E0E0"/>
<path d="M93.8581 157.623V176.819C93.8581 177.622 94.4222 177.947 95.1172 177.546L116.225 165.358C116.92 164.956 117.484 163.98 117.484 163.177V147.39C117.484 146.587 116.92 146.261 116.225 146.663L103.977 153.735C103.282 154.137 102.718 153.811 102.718 153.008V152.506C102.718 151.703 102.153 151.377 101.458 151.779L95.1172 155.44C94.4222 155.843 93.8581 156.82 93.8581 157.623Z" fill="#3F72AF"/>
<path d="M98.0074 180.44V181.669C98.0074 182.271 98.4304 182.515 98.9524 182.214L114.785 173.072C115.307 172.771 115.73 172.039 115.73 171.436V170.207C115.73 169.605 115.307 169.36 114.785 169.662L98.9524 178.804C98.4294 179.105 98.0074 179.838 98.0074 180.44Z" fill="#E0E0E0"/>
<path d="M123.549 101.28V120.476C123.549 121.279 124.113 121.605 124.808 121.203L145.916 109.016C146.611 108.614 147.175 107.638 147.175 106.835V91.0479C147.175 90.2449 146.611 89.9189 145.916 90.3209L133.667 97.3922C132.971 97.7942 132.408 97.4682 132.408 96.6652V96.1631C132.408 95.3601 131.844 95.0341 131.149 95.4361L124.808 99.0973C124.113 99.5003 123.549 100.477 123.549 101.28Z" fill="#3F72AF"/>
<path d="M127.354 125.023V126.252C127.354 126.855 127.777 127.099 128.299 126.798L144.132 117.656C144.655 117.355 145.077 116.622 145.077 116.02V114.791C145.077 114.189 144.654 113.944 144.132 114.246L128.299 123.387C127.777 123.689 127.354 124.421 127.354 125.023Z" fill="#E0E0E0"/>
<path d="M152.551 85.3546V104.55C152.551 105.354 153.115 105.68 153.81 105.278L174.918 93.09C175.613 92.688 176.177 91.7119 176.177 90.9089V75.1232C176.177 74.3202 175.613 73.9941 174.918 74.3962L162.669 81.4675C161.974 81.8695 161.41 81.5435 161.41 80.7404V80.2384C161.41 79.4354 160.846 79.1094 160.151 79.5114L153.81 83.1725C153.115 83.5756 152.551 84.5516 152.551 85.3546Z" fill="#3F72AF"/>
<path d="M156.7 108.173V109.402C156.7 110.004 157.123 110.248 157.644 109.947L173.478 100.805C174 100.504 174.422 99.7713 174.422 99.1693V97.9402C174.422 97.3382 173.999 97.0942 173.478 97.3952L157.644 106.537C157.123 106.838 156.7 107.57 156.7 108.173Z" fill="#E0E0E0"/>
<path d="M127.354 163.573V164.802C127.354 165.404 127.777 165.648 128.299 165.347L144.132 156.206C144.654 155.905 145.076 155.172 145.076 154.57V153.341C145.076 152.739 144.653 152.495 144.132 152.796L128.299 161.937C127.777 162.239 127.354 162.971 127.354 163.573Z" fill="#E0E0E0"/>
<path d="M127.751 136.595L144.172 127.113C144.923 126.679 145.532 127.031 145.532 127.898V146.858C145.532 147.726 144.923 148.781 144.172 149.214L127.751 158.696C127 159.13 126.391 158.778 126.391 157.911V138.951C126.39 138.083 126.999 137.028 127.751 136.595Z" fill="#FAFAFA" stroke="#EBEBEB" stroke-width="0.7854" stroke-miterlimit="10"/>
<path d="M146.104 129.674L142.444 131.787C141.693 132.221 141.084 133.276 141.084 134.143V138.369C141.084 139.237 141.693 139.588 142.444 139.154L146.104 137.041C146.855 136.607 147.464 135.552 147.464 134.685V130.459C147.464 129.592 146.855 129.24 146.104 129.674Z" fill="#3F72AF"/>
<path d="M129.003 138.642L137.229 133.909C137.605 133.693 137.91 133.869 137.91 134.303V134.565C137.91 134.999 137.605 135.526 137.23 135.743L129.003 140.485C128.627 140.702 128.323 140.526 128.323 140.092V139.821C128.322 139.386 128.627 138.858 129.003 138.642Z" fill="#EBEBEB"/>
<path d="M129.003 142.321L137.229 137.588C137.605 137.372 137.91 137.548 137.91 137.982V138.244C137.91 138.678 137.605 139.205 137.23 139.422L129.003 144.164C128.627 144.381 128.323 144.205 128.323 143.771V143.5C128.322 143.065 128.627 142.538 129.003 142.321Z" fill="#EBEBEB"/>
<path d="M129.003 146.001L137.229 141.268C137.605 141.052 137.91 141.228 137.91 141.662V141.924C137.91 142.358 137.605 142.885 137.23 143.102L129.003 147.844C128.627 148.061 128.323 147.885 128.323 147.451V147.18C128.322 146.744 128.627 146.217 129.003 146.001Z" fill="#EBEBEB"/>
<path d="M129.003 149.68L142.669 141.801C143.045 141.585 143.35 141.761 143.35 142.195V142.457C143.35 142.891 143.045 143.418 142.67 143.635L129.003 151.523C128.627 151.74 128.323 151.563 128.323 151.13V150.858C128.322 150.423 128.627 149.896 129.003 149.68Z" fill="#EBEBEB"/>
<path d="M129.003 153.36L142.669 145.481C143.045 145.265 143.35 145.441 143.35 145.875V146.137C143.35 146.571 143.045 147.098 142.67 147.315L129.003 155.203C128.627 155.42 128.323 155.244 128.323 154.81V154.539C128.322 154.104 128.627 153.576 129.003 153.36Z" fill="#EBEBEB"/>
<path d="M156.068 146.996V148.225C156.068 148.827 156.491 149.071 157.013 148.77L172.847 139.629C173.369 139.328 173.792 138.595 173.792 137.993V136.764C173.792 136.162 173.369 135.918 172.847 136.219L157.013 145.36C156.491 145.661 156.068 146.393 156.068 146.996Z" fill="#E0E0E0"/>
<path d="M156.465 120.017L172.887 110.537C173.638 110.103 174.247 110.455 174.247 111.322V130.282C174.247 131.149 173.638 132.204 172.887 132.638L156.465 142.119C155.714 142.553 155.105 142.201 155.105 141.334V122.373C155.105 121.505 155.714 120.451 156.465 120.017Z" fill="#FAFAFA" stroke="#EBEBEB" stroke-width="0.7854" stroke-miterlimit="10"/>
<path d="M174.819 113.097L171.159 115.21C170.408 115.644 169.798 116.699 169.798 117.566V121.792C169.798 122.66 170.408 123.011 171.159 122.577L174.819 120.464C175.57 120.03 176.179 118.975 176.179 118.108V113.882C176.18 113.014 175.571 112.663 174.819 113.097Z" fill="#3F72AF"/>
<path d="M157.717 122.064L165.943 117.331C166.319 117.115 166.624 117.291 166.624 117.725V117.987C166.624 118.421 166.319 118.948 165.943 119.165L157.717 123.907C157.341 124.124 157.037 123.948 157.037 123.514V123.243C157.036 122.808 157.341 122.281 157.717 122.064Z" fill="#EBEBEB"/>
<path d="M157.717 125.744L165.943 121.011C166.319 120.795 166.624 120.971 166.624 121.405V121.667C166.624 122.101 166.319 122.628 165.943 122.845L157.717 127.587C157.341 127.804 157.037 127.628 157.037 127.194V126.923C157.036 126.487 157.341 125.96 157.717 125.744Z" fill="#EBEBEB"/>
<path d="M157.717 129.424L165.943 124.69C166.319 124.474 166.624 124.65 166.624 125.084V125.346C166.624 125.78 166.319 126.307 165.943 126.524L157.717 131.267C157.341 131.484 157.037 131.308 157.037 130.874V130.603C157.036 130.167 157.341 129.64 157.717 129.424Z" fill="#EBEBEB"/>
<path d="M157.717 133.103L171.384 125.223C171.76 125.007 172.065 125.183 172.065 125.617V125.879C172.065 126.313 171.76 126.84 171.385 127.058L157.717 134.945C157.341 135.162 157.037 134.986 157.037 134.552V134.281C157.036 133.847 157.341 133.319 157.717 133.103Z" fill="#EBEBEB"/>
<path d="M157.717 136.782L171.384 128.903C171.76 128.687 172.065 128.863 172.065 129.297V129.559C172.065 129.993 171.76 130.52 171.385 130.737L157.717 138.624C157.341 138.841 157.037 138.665 157.037 138.231V137.96C157.036 137.526 157.341 136.999 157.717 136.782Z" fill="#EBEBEB"/>
</svg>
