<svg width="59" height="34" viewBox="0 0 59 34" fill="none" xmlns="http://www.w3.org/2000/svg">
<path d="M0 15.2124L4.58445 17.8578L5.3029 18.2724L32.2602 33.8491C32.6104 34.0503 33.1769 34.0503 33.525 33.8491L54.9651 21.5115C55.2509 21.3535 55.5165 21.1986 55.7651 21.0496C57.0591 20.2607 57.8389 19.5574 58.338 18.8067C58.3581 18.7745 58.3793 18.7453 58.3994 18.7131C58.4397 18.6517 58.4658 18.5874 58.4779 18.523C58.5363 18.2422 58.3491 17.9735 58.0342 17.881C57.4183 17.6968 56.4865 17.3698 55.6363 16.8818C55.6242 16.8757 55.6161 16.8697 55.6041 16.8647L26.4149 0L0 15.2124Z" fill="#FAFAFA"/>
</svg>
