<svg width="5" height="4" viewBox="0 0 5 4" fill="none" xmlns="http://www.w3.org/2000/svg">
<path opacity="0.1" d="M4.74968 2.45383C5.08338 2.64867 5.08338 2.96476 4.74968 3.15959C4.41493 3.35443 3.87083 3.35443 3.53298 3.15959C3.19616 2.96476 3.19616 2.64867 3.53298 2.45383C3.87187 2.259 4.41597 2.259 4.74968 2.45383Z" fill="black"/>
<path d="M0 2.07144C0 2.27042 0.0155446 2.47458 0.0445627 2.67874L0.471529 2.4321C0.45702 2.31188 0.450813 2.19165 0.450813 2.07144C0.450813 1.3408 0.676741 0.790503 1.06745 0.564577C1.2001 0.488923 1.34728 0.450577 1.50688 0.450577C1.73591 0.450577 1.98775 0.528297 2.25306 0.679605C3.06556 1.15218 3.76924 2.1958 4.0874 3.30263C4.24078 3.31196 4.39728 3.29331 4.53511 3.24874C4.18897 2.00615 3.3951 0.821587 2.47792 0.288899C1.88513 -0.0510267 1.30479 -0.093518 0.841535 0.174899C0.306774 0.482697 0 1.17499 0 2.07144Z" fill="#3F72AF"/>
<path d="M0.08805 2.91299C0.0911591 2.94615 0.100507 2.98243 0.108797 3.0187L0.186505 2.97102L0.08805 2.91299Z" fill="#263238"/>
</svg>
