<svg width="204" height="271" viewBox="0 0 204 271" fill="none" xmlns="http://www.w3.org/2000/svg">
<path d="M170.022 164.047V173.354L8.75692 266.448V266.457L3.79427 269.317C1.70057 268.112 0 265.037 0 262.458V105.659C0 105.398 0.0930322 105.117 0.234079 104.865C0.383129 104.613 0.5892 104.389 0.813275 104.258L37.5665 83.0359C38.0157 82.7838 40.6315 83.8772 41.0617 84.1383L41.3418 84.2973C41.5569 84.4284 41.7899 84.6334 41.987 84.8675C42.2021 85.1196 42.3791 85.3907 42.4542 85.6428L45.7813 95.249L165.414 23.9852C165.844 23.7422 166.536 23.7332 166.985 23.9572L169.208 25.2467C169.432 25.3777 169.629 25.5928 169.779 25.8448C169.929 26.0969 170.012 26.387 170.012 26.6481V59.392L170.022 164.047Z" fill="#3F72AF"/>
<path opacity="0.5" d="M170.022 164.047V173.354L8.75692 266.448V266.457L3.79427 269.317C1.70057 268.112 0 265.037 0 262.458V105.659C0 105.398 0.0930322 105.117 0.234079 104.865C0.383129 104.613 0.5892 104.389 0.813275 104.258L37.5665 83.0359C38.0157 82.7838 40.6315 83.8772 41.0617 84.1383L41.3418 84.2973C41.5569 84.4284 41.7899 84.6334 41.987 84.8675C42.2021 85.1196 42.3791 85.3907 42.4542 85.6428L45.7813 95.249L165.414 23.9852C165.844 23.7422 166.536 23.7332 166.985 23.9572L169.208 25.2467C169.432 25.3777 169.629 25.5928 169.779 25.8448C169.929 26.0969 170.012 26.387 170.012 26.6481V59.392L170.022 164.047Z" fill="black"/>
<path d="M170.022 173.354L3.79423 269.317V106.912L41.987 84.8675C42.202 85.1196 42.3791 85.3907 42.4541 85.6428L45.7812 95.249L46.4164 97.0716L169.779 25.8449C169.929 26.0969 170.012 26.387 170.012 26.6481L170.022 173.354Z" fill="#3F72AF"/>
<path opacity="0.35" d="M170.022 173.354L3.79423 269.317V106.912L41.987 84.8675C42.202 85.1196 42.3791 85.3907 42.4541 85.6428L45.7812 95.249L46.4164 97.0716L169.779 25.8449C169.929 26.0969 170.012 26.387 170.012 26.6481L170.022 173.354Z" fill="black"/>
<path d="M41.988 84.8675L3.79526 106.912L0.235064 104.864C0.385114 104.612 0.590184 104.387 0.814259 104.257L37.5675 83.0349C38.0157 82.7828 38.7359 82.7828 39.165 83.0439L41.3418 84.2973C41.5578 84.4284 41.7909 84.6344 41.988 84.8675Z" fill="#3F72AF"/>
<path opacity="0.2" d="M41.988 84.8675L3.79526 106.912L0.235064 104.864C0.385114 104.612 0.590184 104.387 0.814259 104.257L37.5675 83.0349C38.0157 82.7828 38.7359 82.7828 39.165 83.0439L41.3418 84.2973C41.5578 84.4284 41.7909 84.6344 41.988 84.8675Z" fill="black"/>
<path d="M169.779 25.8458L46.4165 97.0726L45.7813 95.25L165.415 23.9852C165.845 23.7422 166.537 23.7332 166.985 23.9572L169.208 25.2476C169.432 25.3777 169.63 25.5928 169.779 25.8458Z" fill="#3F72AF"/>
<path opacity="0.2" d="M169.779 25.8458L46.4165 97.0726L45.7813 95.25L165.415 23.9852C165.845 23.7422 166.537 23.7332 166.985 23.9572L169.208 25.2476C169.432 25.3777 169.63 25.5928 169.779 25.8458Z" fill="black"/>
<path d="M51.217 226.736C50.2277 226.165 49.4244 224.713 49.4244 223.495V62.8102C49.4244 61.5918 50.2797 60.1103 51.3351 59.5011L153.661 0.477422C154.717 -0.131781 156.374 -0.161791 157.363 0.409399C158.354 0.980589 159.156 2.43207 159.156 3.64948L159.157 164.334C159.157 165.552 158.302 167.034 157.246 167.643L54.9203 226.668C53.8649 227.277 52.2074 227.307 51.217 226.736Z" fill="#FAFAFA"/>
<path d="M54.9203 226.668L157.247 167.643C158.303 167.034 159.158 165.552 159.158 164.334L159.157 3.64948C159.157 2.43108 158.302 1.93792 157.246 2.54712L54.9193 61.5708C53.8639 62.18 53.0086 63.6615 53.0086 64.8799L53.0096 225.564C53.0096 226.783 53.8649 227.277 54.9203 226.668Z" fill="#F0F0F0"/>
<path d="M65.3207 67.9499L144.4 22.2887C145.33 21.7515 146.084 22.1867 146.084 23.261V23.9323C146.084 25.0066 145.329 26.3121 144.4 26.8492L65.3187 72.5105C64.3884 73.0476 63.6351 72.6125 63.6351 71.5381V70.8669C63.6371 69.7935 64.3914 68.4871 65.3207 67.9499Z" fill="#E0E0E0"/>
<path d="M65.3207 79.3387L144.4 33.6775C145.33 33.1403 146.084 33.5754 146.084 34.6498V35.321C146.084 36.3954 145.329 37.7008 144.4 38.238L65.3187 83.8992C64.3884 84.4364 63.6351 84.0012 63.6351 82.9269V82.2557C63.6371 81.1813 64.3914 79.8759 65.3207 79.3387Z" fill="#E0E0E0"/>
<path d="M65.3207 90.7265L144.4 45.0653C145.33 44.5281 146.084 44.9633 146.084 46.0376V46.7088C146.084 47.7832 145.329 49.0886 144.4 49.6258L65.3187 95.287C64.3884 95.8242 63.6351 95.3891 63.6351 94.3147V93.6435C63.6371 92.5701 64.3914 91.2637 65.3207 90.7265Z" fill="#E0E0E0"/>
<path d="M65.3207 102.115L144.4 56.4541C145.33 55.9169 146.084 56.3521 146.084 57.4264V58.0976C146.084 59.172 145.329 60.4774 144.4 61.0146L65.3187 106.676C64.3884 107.213 63.6351 106.778 63.6351 105.704V105.032C63.6371 103.958 64.3914 102.651 65.3207 102.115Z" fill="#E0E0E0"/>
<path d="M65.3207 113.503L144.4 67.8419C145.33 67.3047 146.084 67.7398 146.084 68.8142V69.4854C146.084 70.5598 145.329 71.8652 144.4 72.4024L65.3187 118.064C64.3884 118.601 63.6351 118.166 63.6351 117.091V116.42C63.6371 115.346 64.3914 114.04 65.3207 113.503Z" fill="#E0E0E0"/>
<path d="M65.3207 124.975L144.4 79.3137C145.33 78.7765 146.084 79.2117 146.084 80.286V80.9573C146.084 82.0316 145.329 83.337 144.4 83.8742L65.3187 129.535C64.3884 130.073 63.6351 129.637 63.6351 128.563V127.892C63.6371 126.818 64.3914 125.511 65.3207 124.975Z" fill="#E0E0E0"/>
<path d="M65.3207 136.363L144.4 90.7015C145.33 90.1643 146.084 90.5994 146.084 91.6738V92.345C146.084 93.4194 145.329 94.7248 144.4 95.262L65.3187 140.923C64.3884 141.46 63.6351 141.025 63.6351 139.951V139.28C63.6371 138.205 64.3914 136.9 65.3207 136.363Z" fill="#E0E0E0"/>
<path d="M65.3207 147.751L144.4 102.089C145.33 101.552 146.084 101.987 146.084 103.062V103.733C146.084 104.807 145.329 106.113 144.4 106.65L65.3187 152.311C64.3884 152.848 63.6351 152.413 63.6351 151.339V150.667C63.6371 149.594 64.3914 148.288 65.3207 147.751Z" fill="#E0E0E0"/>
<path d="M65.3207 159.139L144.4 113.478C145.33 112.941 146.084 113.376 146.084 114.45V115.122C146.084 116.196 145.329 117.501 144.4 118.039L65.3187 163.7C64.3884 164.237 63.6351 163.802 63.6351 162.728V162.056C63.6371 160.982 64.3914 159.677 65.3207 159.139Z" fill="#E0E0E0"/>
<path d="M65.3207 170.527L144.4 124.866C145.33 124.329 146.084 124.764 146.084 125.838V126.509C146.084 127.584 145.329 128.889 144.4 129.426L65.3187 175.088C64.3884 175.625 63.6351 175.19 63.6351 174.115V173.444C63.6371 172.37 64.3914 171.064 65.3207 170.527Z" fill="#E0E0E0"/>
<path d="M65.3207 181.966L144.4 136.305C145.33 135.768 146.084 136.203 146.084 137.277V137.948C146.084 139.023 145.329 140.328 144.4 140.865L65.3187 186.526C64.3884 187.064 63.6351 186.628 63.6351 185.554V184.883C63.6371 183.809 64.3914 182.502 65.3207 181.966Z" fill="#E0E0E0"/>
<path d="M65.3207 193.354L144.4 147.692C145.33 147.155 146.084 147.59 146.084 148.665V149.336C146.084 150.41 145.329 151.716 144.4 152.253L65.3187 197.914C64.3884 198.451 63.6351 198.016 63.6351 196.942V196.271C63.6371 195.196 64.3914 193.891 65.3207 193.354Z" fill="#E0E0E0"/>
<path d="M65.3207 204.742L144.4 159.079C145.33 158.542 146.084 158.977 146.084 160.052V160.723C146.084 161.797 145.329 163.103 144.4 163.64L65.3187 209.301C64.3884 209.838 63.6351 209.403 63.6351 208.329V207.657C63.6371 206.585 64.3914 205.279 65.3207 204.742Z" fill="#E0E0E0"/>
<path d="M54.6702 226.793C53.6208 227.279 52.1323 227.269 51.219 226.735C50.2277 226.161 49.4304 224.712 49.4304 223.497V62.8142C49.4304 62.202 49.6445 61.5308 49.9846 60.9276L53.5728 62.9983C53.2227 63.5915 53.0086 64.2717 53.0086 64.8749V225.567C53.0076 226.686 53.7369 227.191 54.6702 226.793Z" fill="#E0E0E0"/>
<path d="M65.5839 235.03C64.5935 234.458 63.7923 233.007 63.7923 231.788V71.105C63.7923 69.8865 64.6475 68.4051 65.7029 67.7959L168.029 8.77218C169.084 8.16298 170.742 8.13297 171.731 8.70416C172.722 9.27535 173.524 10.7268 173.524 11.9452L173.525 172.63C173.525 173.848 172.67 175.33 171.614 175.939L69.2871 234.964C68.2307 235.571 66.5732 235.602 65.5839 235.03Z" fill="#FAFAFA"/>
<path d="M69.2861 234.962L171.613 175.937C172.669 175.328 173.524 173.846 173.524 172.628L173.523 11.9432C173.523 10.7248 172.668 10.2306 171.612 10.8398L69.2851 69.8655C68.2298 70.4747 67.3745 71.9562 67.3745 73.1746L67.3755 233.859C67.3755 235.077 68.2308 235.571 69.2861 234.962Z" fill="#F0F0F0"/>
<path d="M79.6875 76.2447L158.767 30.5835C159.697 30.0463 160.451 30.4814 160.451 31.5558V32.227C160.451 33.3014 159.697 34.6068 158.767 35.144L79.6855 80.8062C78.7552 81.3434 78.002 80.9082 78.002 79.8339V79.1627C78.003 78.0873 78.7572 76.7809 79.6875 76.2447Z" fill="#E0E0E0"/>
<path d="M79.6875 87.6325L158.767 41.9712C159.697 41.4341 160.451 41.8692 160.451 42.9436V43.6148C160.451 44.6891 159.697 45.9946 158.767 46.5318L79.6855 92.193C78.7552 92.7301 78.002 92.295 78.002 91.2206V90.5494C78.003 89.4761 78.7572 88.1696 79.6875 87.6325Z" fill="#E0E0E0"/>
<path d="M79.6875 99.0202L158.767 53.359C159.697 52.8218 160.451 53.257 160.451 54.3313V55.0026C160.451 56.0769 159.697 57.3824 158.767 57.9195L79.6855 103.581C78.7552 104.118 78.002 103.683 78.002 102.608V101.937C78.003 100.864 78.7572 99.5574 79.6875 99.0202Z" fill="#E0E0E0"/>
<path d="M79.6875 110.409L158.767 64.7478C159.697 64.2106 160.451 64.6458 160.451 65.7201V66.3914C160.451 67.4657 159.697 68.7711 158.767 69.3083L79.6855 114.97C78.7552 115.507 78.002 115.072 78.002 113.997V113.326C78.003 112.252 78.7572 110.946 79.6875 110.409Z" fill="#E0E0E0"/>
<path d="M79.6875 121.797L158.767 76.1356C159.697 75.5985 160.451 76.0336 160.451 77.108V77.7792C160.451 78.8535 159.697 80.159 158.767 80.6962L79.6855 126.357C78.7552 126.895 78.002 126.459 78.002 125.385V124.714C78.003 123.64 78.7572 122.334 79.6875 121.797Z" fill="#E0E0E0"/>
<path d="M79.6875 133.269L158.767 87.6075C159.697 87.0703 160.451 87.5054 160.451 88.5798V89.251C160.451 90.3254 159.697 91.6308 158.767 92.168L79.6855 137.829C78.7552 138.366 78.002 137.931 78.002 136.857V136.186C78.003 135.111 78.7572 133.806 79.6875 133.269Z" fill="#E0E0E0"/>
<path d="M79.6875 144.656L158.767 98.9953C159.697 98.4581 160.451 98.8932 160.451 99.9676V100.639C160.451 101.713 159.697 103.019 158.767 103.556L79.6855 149.217C78.7552 149.754 78.002 149.319 78.002 148.245V147.573C78.003 146.5 78.7572 145.194 79.6875 144.656Z" fill="#E0E0E0"/>
<path d="M79.6875 156.044L158.767 110.383C159.697 109.846 160.451 110.281 160.451 111.355V112.027C160.451 113.101 159.697 114.406 158.767 114.944L79.6855 160.605C78.7552 161.142 78.002 160.707 78.002 159.632V158.961C78.003 157.888 78.7572 156.581 79.6875 156.044Z" fill="#E0E0E0"/>
<path d="M79.6875 167.433L158.767 121.772C159.697 121.235 160.451 121.67 160.451 122.744V123.415C160.451 124.49 159.697 125.795 158.767 126.332L79.6855 171.994C78.7552 172.531 78.002 172.096 78.002 171.021V170.35C78.003 169.276 78.7572 167.97 79.6875 167.433Z" fill="#E0E0E0"/>
<path d="M79.6875 178.821L158.767 133.16C159.697 132.622 160.451 133.058 160.451 134.132V134.803C160.451 135.878 159.697 137.183 158.767 137.72L79.6855 183.381C78.7552 183.919 78.002 183.483 78.002 182.409V181.738C78.003 180.664 78.7572 179.358 79.6875 178.821Z" fill="#E0E0E0"/>
<path d="M79.6875 190.26L158.767 144.598C159.697 144.061 160.451 144.496 160.451 145.571V146.242C160.451 147.316 159.697 148.622 158.767 149.159L79.6855 194.82C78.7552 195.357 78.002 194.922 78.002 193.848V193.177C78.003 192.102 78.7572 190.797 79.6875 190.26Z" fill="#E0E0E0"/>
<path d="M79.6875 201.647L158.767 155.986C159.697 155.449 160.451 155.884 160.451 156.959V157.63C160.451 158.704 159.697 160.01 158.767 160.547L79.6855 206.208C78.7552 206.745 78.002 206.31 78.002 205.236V204.564C78.003 203.49 78.7572 202.185 79.6875 201.647Z" fill="#E0E0E0"/>
<path d="M79.6875 213.035L158.767 167.374C159.697 166.837 160.451 167.272 160.451 168.346V169.018C160.451 170.092 159.697 171.397 158.767 171.935L79.6855 217.596C78.7552 218.133 78.002 217.698 78.002 216.623V215.952C78.003 214.879 78.7572 213.572 79.6875 213.035Z" fill="#E0E0E0"/>
<path d="M69.037 235.087C67.9867 235.573 66.4992 235.563 65.5859 235.029C64.5945 234.454 63.7973 233.006 63.7973 231.791V71.109C63.7973 70.4968 64.0113 69.8256 64.3515 69.2224L67.9397 71.293C67.5895 71.8862 67.3755 72.5665 67.3755 73.1697V233.861C67.3745 234.98 68.1037 235.486 69.037 235.087Z" fill="#E0E0E0"/>
<path d="M203.972 44.9652L177.32 160.375L174.862 170.99C174.283 173.504 172.002 176.588 169.77 177.878L11.6348 269.177C10.5885 269.784 9.24305 270.12 7.8966 270.176C6.4011 270.241 4.8966 269.961 3.79423 269.317L4.6075 265.794C4.63551 265.682 4.66352 265.57 4.69153 265.448L5.57882 261.588L9.44812 244.843L33.9503 138.741C33.9783 138.61 34.0343 138.479 34.1003 138.349C34.1654 138.228 34.2404 138.106 34.3154 137.994C34.3244 137.975 34.3434 137.956 34.3524 137.938C34.5395 137.695 34.7546 137.49 34.9696 137.359L170.013 59.395L199.57 42.3313C200.019 42.0692 200.748 42.0692 201.196 42.3313L203.374 43.5838C203.813 43.8438 204.084 44.46 203.972 44.9652Z" fill="#3F72AF"/>
<path opacity="0.3" d="M203.972 44.9652L177.32 160.375L174.862 170.99C174.283 173.504 172.002 176.588 169.77 177.878L11.6348 269.177C10.5885 269.784 9.24305 270.12 7.8966 270.176C6.4011 270.241 4.8966 269.961 3.79423 269.317L4.6075 265.794C4.63551 265.682 4.66352 265.57 4.69153 265.448L5.57882 261.588L9.44812 244.843L33.9503 138.741C33.9783 138.61 34.0343 138.479 34.1003 138.349C34.1654 138.228 34.2404 138.106 34.3154 137.994C34.3244 137.975 34.3434 137.956 34.3524 137.938C34.5395 137.695 34.7546 137.49 34.9696 137.359L170.013 59.395L199.57 42.3313C200.019 42.0692 200.748 42.0692 201.196 42.3313L203.374 43.5838C203.813 43.8438 204.084 44.46 203.972 44.9652Z" fill="black"/>
<path d="M204 44.7312C203.981 44.4041 203.738 44.301 203.374 44.5161L38.7639 139.554C38.5488 139.676 38.3247 139.89 38.1467 140.133L34.3524 137.937C34.5395 137.694 34.7545 137.489 34.9696 137.358L199.57 42.3304C200.019 42.0683 200.748 42.0683 201.196 42.3304L203.374 43.5828C203.747 43.8059 204 44.283 204 44.7312Z" fill="#3F72AF"/>
<path opacity="0.2" d="M204 44.7312C203.981 44.4041 203.738 44.301 203.374 44.5161L38.7639 139.554C38.5488 139.676 38.3247 139.89 38.1467 140.133L34.3524 137.937C34.5395 137.694 34.7545 137.489 34.9696 137.358L199.57 42.3304C200.019 42.0683 200.748 42.0683 201.196 42.3304L203.374 43.5828C203.747 43.8059 204 44.283 204 44.7312Z" fill="black"/>
<path d="M38.1468 140.133C38.0347 140.282 37.9417 140.441 37.8667 140.591C37.8107 140.712 37.7737 140.825 37.7456 140.927L14.3178 242.394H14.3088L9.3752 263.775L8.75798 266.448V266.457L7.8977 270.176C6.4022 270.241 4.8977 269.961 3.79533 269.317L4.6086 265.794C4.63661 265.682 4.66462 265.57 4.69263 265.448L5.57992 261.588L9.44921 244.843L33.9514 138.742C33.9794 138.61 34.0354 138.479 34.1014 138.349C34.1664 138.228 34.2415 138.106 34.3165 137.994C34.3255 137.975 34.3445 137.956 34.3535 137.938L38.1468 140.133Z" fill="#3F72AF"/>
<path opacity="0.5" d="M38.1468 140.133C38.0347 140.282 37.9417 140.441 37.8667 140.591C37.8107 140.712 37.7737 140.825 37.7456 140.927L14.3178 242.394H14.3088L9.3752 263.775L8.75798 266.448V266.457L7.8977 270.176C6.4022 270.241 4.8977 269.961 3.79533 269.317L4.6086 265.794C4.63661 265.682 4.66462 265.57 4.69263 265.448L5.57992 261.588L9.44921 244.843L33.9514 138.742C33.9794 138.61 34.0354 138.479 34.1014 138.349C34.1664 138.228 34.2415 138.106 34.3165 137.994C34.3255 137.975 34.3445 137.956 34.3535 137.938L38.1468 140.133Z" fill="black"/>
<path d="M9.5922 259.518C9.99233 259.749 10.1954 260.215 10.0914 260.665L8.75692 266.448V266.457L8.0867 269.355C7.97166 269.854 7.5125 270.199 7.00133 270.173C5.81594 270.114 4.67657 269.832 3.79427 269.316C1.70057 268.111 0 265.036 0 262.457V255.802C0 254.991 0.877295 254.485 1.57853 254.891L3.26909 255.869C3.5942 256.057 3.79427 256.406 3.79427 256.782V260.089C3.79427 261.34 5.58987 261.545 5.87096 260.326L6.15405 259.103C6.3131 258.413 7.09237 258.075 7.70457 258.428L9.5922 259.518Z" fill="#3F72AF"/>
<path opacity="0.5" d="M9.5922 259.518C9.99233 259.749 10.1954 260.215 10.0914 260.665L8.75692 266.448V266.457L8.0867 269.355C7.97166 269.854 7.5125 270.199 7.00133 270.173C5.81594 270.114 4.67657 269.832 3.79427 269.316C1.70057 268.111 0 265.036 0 262.457V255.802C0 254.991 0.877295 254.485 1.57853 254.891L3.26909 255.869C3.5942 256.057 3.79427 256.406 3.79427 256.782V260.089C3.79427 261.34 5.58987 261.545 5.87096 260.326L6.15405 259.103C6.3131 258.413 7.09237 258.075 7.70457 258.428L9.5922 259.518Z" fill="black"/>
</svg>
