<svg width="5" height="4" viewBox="0 0 5 4" fill="none" xmlns="http://www.w3.org/2000/svg">
<path opacity="0.1" d="M4.74899 2.45296C5.08362 2.64773 5.08362 2.96371 4.74899 3.15847C4.41437 3.35324 3.87047 3.35324 3.53377 3.15847C3.19604 2.96371 3.19604 2.64773 3.53377 2.45296C3.87047 2.2582 4.41437 2.2582 4.74899 2.45296Z" fill="black"/>
<path d="M0 2.0707C0 2.26961 0.0145031 2.4737 0.0445469 2.67779L0.471362 2.43124C0.455822 2.31106 0.450654 2.19088 0.450654 2.0707C0.450654 1.34033 0.676501 0.790223 1.06707 0.564377C1.19968 0.489786 1.34679 0.450417 1.5053 0.450417C1.73425 0.450417 1.986 0.529146 2.25121 0.679364C3.0624 1.15178 3.76686 2.19503 4.08491 3.30147C4.23823 3.31079 4.39468 3.29214 4.53246 3.24759C4.18644 2.00544 3.39286 0.821296 2.476 0.288797C1.88342 -0.0510086 1.30328 -0.0934849 0.840194 0.174837C0.306658 0.483562 0 1.17561 0 2.0707Z" fill="#3F72AF"/>
</svg>
