<svg width="56" height="264" viewBox="0 0 56 264" fill="none" xmlns="http://www.w3.org/2000/svg">
<path d="M49.2153 223.218L35.5359 263.132C35.1378 264.292 33.4952 264.287 33.105 263.124L19.6027 222.892L49.2153 223.218Z" fill="#FFA8A7"/>
<path d="M33.105 263.125C33.4951 264.288 35.1388 264.293 35.5359 263.133L38.207 255.341C35.8601 256.599 33.006 256.441 30.8131 254.93L30.2169 254.519L33.105 263.125Z" fill="#263238"/>
<path d="M20.1199 44.9065L20.1109 48.811L20.0809 53.5239L19.5987 222.888C22.7279 226.466 27.3647 228.283 32.0686 228.756C39.2294 229.501 46.5732 227.155 49.1962 223.215L49.6734 53.953L49.6974 44.9445C49.3583 50.7768 19.8588 50.7608 20.1199 44.9065Z" fill="#3F72AF"/>
<path opacity="0.25" d="M20.1199 44.9065L20.1109 48.811L20.0809 53.5239L19.5987 222.888C22.7279 226.466 27.3647 228.283 32.0686 228.756C39.2294 229.501 46.5732 227.155 49.1962 223.215L49.6734 53.953L49.6974 44.9445C49.3583 50.7768 19.8588 50.7608 20.1199 44.9065Z" fill="black"/>
<path d="M20.0298 59.7743L20.0208 68.4957C19.9338 71.0237 25.3189 72.6563 31.5363 73.2286C39.7915 74.0099 49.5113 71.773 49.6324 68.4237L49.6504 61.9962L49.6164 59.6973C49.4953 63.0466 39.7755 65.2905 31.5193 64.5092C25.563 63.9529 20.3499 62.4053 20.0528 60.0484L20.0518 60.0224C20.0238 59.9434 20.0208 59.8653 20.0298 59.7743Z" fill="#EBEBEB"/>
<path d="M20.0468 61.9512C19.8337 67.8215 49.4263 67.7474 49.6384 61.8771L49.6754 53.1477C49.4623 59.018 19.8747 59.092 20.0868 53.2208L20.0468 61.9512Z" fill="#3F72AF"/>
<path d="M20.1199 44.9065L20.0809 53.5248C19.8298 59.2871 48.3839 59.4562 49.6734 53.954C49.7085 53.861 49.7174 53.7439 49.7264 53.6269L49.6984 44.9465C49.3583 50.7768 19.8588 50.7608 20.1199 44.9065Z" fill="#EBEBEB"/>
<path d="M49.8365 7.98009C49.8365 7.91806 49.8365 7.67597 49.8365 7.61494C49.8365 3.40931 43.2129 0.000976943 35.0427 0.000976943C26.8725 0.000976943 20.2489 3.41031 20.2489 7.61494V11.5795L20.1199 44.9075C20.0058 47.4105 25.3269 49.0581 31.4923 49.6583C39.7485 50.4656 49.5113 48.2858 49.6974 44.9465C49.7104 44.9335 49.7104 44.9335 49.7094 44.9075L49.8385 8.21918C49.8385 8.16415 49.8365 8.0071 49.8365 7.98009Z" fill="#F28F8F"/>
<path opacity="0.2" d="M35.0428 15.2279C43.2131 15.2279 49.8365 11.819 49.8365 7.61397C49.8365 3.40889 43.2131 0 35.0428 0C26.8724 0 20.249 3.40889 20.249 7.61397C20.249 11.819 26.8724 15.2279 35.0428 15.2279Z" fill="white"/>
<path opacity="0.1" d="M49.6735 53.954L49.8365 7.97912C49.6365 11.5815 43.5041 14.9859 36.8055 15.228L36.3283 228.894L35.5359 263.132L49.2153 223.218H49.1953L49.1963 223.217L49.6735 53.954Z" fill="black"/>
<path d="M1.04945 74.0929C6.67064 73.2755 12.4189 75.7505 17.2478 82.5372C22.0766 89.3238 39.0353 105.577 40.877 110.831C42.2205 114.665 42.7567 125.287 34.8346 121.913C27.1616 118.644 0.77435 92.2549 0.77435 92.2549L1.04945 74.0929Z" fill="#FFA8A7"/>
<path d="M0.775327 73.5947C3.90054 72.8364 8.56535 73.9068 10.9363 75.5125C13.3072 77.1181 17.972 82.4712 23.3251 88.5125C28.6782 94.5539 31.2782 98.2803 31.2782 98.2803C31.2782 98.2803 31.0611 107.747 20.9982 112.392L0 94.7059L0.775327 73.5947Z" fill="#E0E0E0"/>
<path d="M35.7169 104.91L49.5363 92.5031L49.5733 79.3459C49.5733 79.3459 52.2974 80.2573 53.3798 84.4969C54.4622 88.7376 55.8148 93.6725 55.2736 97.2919C54.7323 100.911 43.3139 121.039 38.9012 122.429C33.5981 124.1 35.7169 104.91 35.7169 104.91Z" fill="#FFA8A7"/>
</svg>
