<svg width="411" height="300" viewBox="0 0 411 300" fill="none" xmlns="http://www.w3.org/2000/svg">
<path d="M163.222 299.766V294.922H154.83V290.078H146.441V285.235H138.051V280.392H129.661V275.547H121.271V270.703H112.881L112.88 264.637L303.204 154.753L303.205 160.163L311.593 160.164V165.009H319.985V169.853H328.374V174.697H336.765V179.54H345.153V184.385H353.544V189.228H364.05L172.592 299.766H163.222Z" fill="#E0E0E0"/>
<path d="M409.671 52.9894L346.069 89.6563C344.298 90.6777 341.426 90.6767 339.655 89.6543L267.861 48.204C266.091 47.1817 263.826 44.9167 262.803 43.1463L260.49 39.1389C259.468 37.3686 260.073 35.1006 261.841 34.0742L319.218 0.771785C320.986 -0.254583 323.856 -0.257591 325.626 0.764772L409.671 49.2885C411.443 50.3108 411.442 51.9681 409.671 52.9894Z" fill="#E0E0E0"/>
<path d="M129.786 235.099L8.01564 164.655C3.04 161.782 3.04 157.081 8.01564 154.208L206.855 39.4233C208.903 38.2407 212.256 38.2407 214.305 39.4233L347.623 109.832C349.104 110.687 349.104 112.826 347.622 113.681L137.236 235.099C135.187 236.282 131.835 236.282 129.786 235.099Z" fill="#E0E0E0"/>
<path d="M30.8842 226.816C47.941 226.816 61.7684 218.833 61.7684 208.985C61.7684 199.138 47.941 191.155 30.8842 191.155C13.8273 191.155 0 199.138 0 208.985C0 218.833 13.8273 226.816 30.8842 226.816Z" fill="#E0E0E0"/>
<path d="M49.5261 220.024C37.465 226.987 37.465 238.277 49.5261 245.241C61.5871 252.204 81.1412 252.204 93.2023 245.241C105.263 238.277 105.263 226.987 93.2023 220.024C81.1412 213.061 61.5861 213.061 49.5261 220.024Z" fill="#E0E0E0"/>
</svg>
