<svg width="99" height="83" viewBox="0 0 99 83" fill="none" xmlns="http://www.w3.org/2000/svg">
<path d="M54.411 38.5856C53.1188 36.4061 50.9715 34.3576 47.9591 32.6192C37.4111 26.5289 20.3095 26.5289 9.76145 32.6192C6.75003 34.3586 4.60176 36.4061 3.30957 38.5856H1.85019V44.1039H1.86933C2.06371 47.9402 4.68938 51.7432 9.76145 54.672C20.3095 60.7623 37.4111 60.7623 47.9591 54.672C53.0311 51.7432 55.6759 47.9402 55.8703 44.1039V38.5856H54.411Z" fill="#3F72AF"/>
<g opacity="0.25">
<path d="M54.411 38.5856C53.1188 36.4061 50.9715 34.3576 47.9591 32.6192C37.4111 26.5289 20.3095 26.5289 9.76145 32.6192C6.75003 34.3586 4.60176 36.4061 3.30957 38.5856H1.85019V44.1039H1.86933C2.06371 47.9402 4.68938 51.7432 9.76145 54.672C20.3095 60.7623 37.4111 60.7623 47.9591 54.672C53.0311 51.7432 55.6759 47.9402 55.8703 44.1039V38.5856H54.411Z" fill="black"/>
</g>
<g opacity="0.1">
<path d="M28.8622 28.0517C21.9491 28.0517 15.0369 29.5735 9.76243 32.6192C6.75102 34.3586 4.60274 36.4061 3.31055 38.5856H1.85118V44.1039H1.87031C2.06469 47.9402 4.69037 51.7432 9.76243 54.672C15.0369 57.7167 21.9501 59.2395 28.8622 59.2395V28.0517Z" fill="black"/>
</g>
<g opacity="0.1">
<path d="M14.1093 30.5837C12.5724 31.1638 11.112 31.8396 9.76243 32.6192C6.75102 34.3585 4.60274 36.4061 3.31055 38.5856H1.85118V44.1038H1.87031C2.06469 47.9401 4.69037 51.7431 9.76243 54.672C11.113 55.4515 12.5724 56.1284 14.1093 56.7075V30.5837Z" fill="black"/>
</g>
<g opacity="0.5">
<path d="M43.6121 30.5837C45.1491 31.1638 46.6094 31.8396 47.959 32.6192C50.9715 34.3585 53.1187 36.4061 54.4109 38.5856H55.8703V44.1038C55.6759 47.9401 53.0311 51.7442 47.959 54.672C46.6084 55.4515 45.1491 56.1284 43.6121 56.7075V30.5837Z" fill="#3F72AF"/>
</g>
<path d="M47.9591 27.5622C37.4111 21.4729 20.3094 21.4729 9.76144 27.5622C-0.786563 33.6515 -0.786563 43.5257 9.76144 49.615C20.3094 55.7053 37.4111 55.7053 47.9591 49.615C58.5071 43.5257 58.5071 33.6515 47.9591 27.5622Z" fill="#3F72AF"/>
<g opacity="0.2">
<path d="M47.9591 27.5622C37.4111 21.4729 20.3094 21.4729 9.76144 27.5622C-0.786563 33.6515 -0.786563 43.5257 9.76144 49.615C20.3094 55.7053 37.4111 55.7053 47.9591 49.615C58.5071 43.5257 58.5071 33.6515 47.9591 27.5622Z" fill="black"/>
</g>
<path d="M41.2987 31.5969C37.9579 29.8867 33.5435 28.944 28.8592 28.944C24.18 28.944 19.7615 29.8878 16.4248 31.5969C12.8887 33.4088 10.9418 35.8955 10.9418 38.5906C10.9418 41.2858 12.8887 43.7674 16.4248 45.5793C19.7615 47.2935 24.18 48.2372 28.8592 48.2372C33.5435 48.2372 37.9579 47.2945 41.2987 45.5793C44.8298 43.7674 46.7766 41.2858 46.7766 38.5906C46.7776 35.8955 44.8298 33.4088 41.2987 31.5969Z" fill="#3F72AF"/>
<g opacity="0.4">
<path d="M41.2987 31.5969C37.9579 29.8867 33.5435 28.944 28.8592 28.944C24.18 28.944 19.7615 29.8878 16.4248 31.5969C12.8887 33.4088 10.9418 35.8955 10.9418 38.5906C10.9418 41.2858 12.8887 43.7674 16.4248 45.5793C19.7615 47.2935 24.18 48.2372 28.8592 48.2372C33.5435 48.2372 37.9579 47.2945 41.2987 45.5793C44.8298 43.7674 46.7766 41.2858 46.7766 38.5906C46.7776 35.8955 44.8298 33.4088 41.2987 31.5969Z" fill="black"/>
</g>
<path d="M47.3729 28.5814C42.4479 25.7372 35.8711 24.1681 28.8593 24.1681C21.8474 24.1681 15.2777 25.7372 10.3527 28.5814C5.62707 31.3088 3.0296 34.8581 3.0296 38.5906C3.0296 42.3171 5.62707 45.8724 10.3527 48.5998C15.2777 51.439 21.8484 53.0071 28.8593 53.0071C35.8711 53.0071 42.4469 51.438 47.3729 48.5998C52.0925 45.8734 54.696 42.3171 54.696 38.5906C54.695 34.8581 52.0915 31.3088 47.3729 28.5814ZM41.2987 45.5793C37.958 47.2935 33.5436 48.2372 28.8593 48.2372C24.18 48.2372 19.7616 47.2945 16.4249 45.5793C12.8887 43.7674 10.9419 41.2858 10.9419 38.5906C10.9419 35.8955 12.8887 33.4098 16.4249 31.5969C19.7616 29.8867 24.18 28.944 28.8593 28.944C33.5436 28.944 37.958 29.8878 41.2987 31.5969C44.8298 33.4088 46.7767 35.8955 46.7767 38.5906C46.7777 41.2858 44.8298 43.7664 41.2987 45.5793Z" fill="#3F72AF"/>
<g opacity="0.2">
<path d="M40.8727 44.7514C47.5069 41.3472 47.5069 35.827 40.8727 32.4228C34.2385 29.0186 23.4831 29.0186 16.8489 32.4228C10.2147 35.827 10.2147 41.3472 16.8489 44.7514C23.4831 48.1567 34.2385 48.1567 40.8727 44.7514Z" fill="black"/>
</g>
<path d="M40.8727 44.7514C47.5069 41.3472 47.5069 35.827 40.8727 32.4228C34.2385 29.0186 23.4831 29.0186 16.8489 32.4228C10.2147 35.827 10.2147 41.3472 16.8489 44.7514C23.4831 48.1567 34.2385 48.1567 40.8727 44.7514Z" fill="#3F72AF"/>
<g opacity="0.6">
<path d="M40.8727 44.7514C47.5069 41.3472 47.5069 35.827 40.8727 32.4228C34.2385 29.0186 23.4831 29.0186 16.8489 32.4228C10.2147 35.827 10.2147 41.3472 16.8489 44.7514C23.4831 48.1567 34.2385 48.1567 40.8727 44.7514Z" fill="black"/>
</g>
<path d="M40.8727 34.7322C34.2385 31.328 23.4831 31.328 16.8489 34.7322C14.1054 36.1402 12.4999 37.9098 12.0256 39.7419C12.4999 41.5739 14.1054 43.3435 16.8489 44.7515C23.4831 48.1557 34.2385 48.1557 40.8727 44.7515C43.6162 43.3435 45.2216 41.5739 45.696 39.7419C45.2216 37.9098 43.6162 36.1402 40.8727 34.7322Z" fill="#3F72AF"/>
<g opacity="0.5">
<path d="M40.8727 34.7322C34.2385 31.328 23.4831 31.328 16.8489 34.7322C14.1054 36.1402 12.4999 37.9098 12.0256 39.7419C12.4999 41.5739 14.1054 43.3435 16.8489 44.7515C23.4831 48.1557 34.2385 48.1557 40.8727 44.7515C43.6162 43.3435 45.2216 41.5739 45.696 39.7419C45.2216 37.9098 43.6162 36.1402 40.8727 34.7322Z" fill="black"/>
</g>
<path d="M30.4697 32.5557V35.0464L29.6197 35.9448L28.0465 37.5915V34.9991L30.4697 32.5557Z" fill="#3F72AF"/>
<g opacity="0.3">
<path d="M30.4697 32.5557V35.0464L29.6197 35.9448L28.0465 37.5915V34.9991L30.4697 32.5557Z" fill="black"/>
</g>
<path d="M28.0465 34.9971V36.4676C27.0212 36.8251 26.2477 37.0668 25.6283 37.1544C25.2416 37.2028 24.9031 37.2028 24.5929 37.1152C24.4187 37.0668 24.2646 36.9993 24.0994 36.9127C23.5002 36.5552 23.4025 36.0224 24.5446 35.3647C25.7542 34.6587 27.0021 34.5902 28.0465 34.9971Z" fill="#3F72AF"/>
<g opacity="0.45">
<path d="M28.0465 34.9971V36.4676C27.0212 36.8251 26.2477 37.0668 25.6283 37.1544C25.2416 37.2028 24.9031 37.2028 24.5929 37.1152C24.4187 37.0668 24.2646 36.9993 24.0994 36.9127C23.5002 36.5552 23.4025 36.0224 24.5446 35.3647C25.7542 34.6587 27.0021 34.5902 28.0465 34.9971Z" fill="black"/>
</g>
<path d="M39.3217 42.0714V44.2217L36.5973 45.7939L34.582 44.6286C32.4417 45.5552 29.6479 46.0739 26.7795 44.9811V42.8288L28.0173 41.601L26.7795 41.9425C24.8256 42.3927 22.779 42.4471 20.7023 41.2475C19.4806 40.5435 18.9136 39.772 18.9166 38.9784V36.8855L19.1371 35.97L18.3939 35.5369V33.3846L20.4092 34.5499C19.4252 35.3123 18.9025 36.0979 18.9156 36.8603V36.8845C18.9377 37.658 19.5098 38.4083 20.7013 39.0972C23.3511 40.6271 25.9758 40.1225 28.3809 39.351C30.6178 38.6209 32.2464 37.7637 33.5355 38.507C34.3362 38.9703 34.0935 39.5323 33.1941 40.053C31.7599 40.8789 30.2038 40.6281 29.3528 40.2756L26.7775 42.8288C27.2539 43.0121 27.7302 43.148 28.2006 43.2467C30.5574 43.7412 32.7963 43.2508 34.58 42.4793L36.5953 43.6446L39.3217 42.0714Z" fill="#3F72AF"/>
<g opacity="0.35">
<path d="M18.9167 36.8593V36.8835C18.9388 37.657 19.5109 38.4073 20.7024 39.0962C23.3522 40.6261 25.9769 40.1215 28.382 39.35C30.6189 38.6198 32.2475 37.7627 33.5366 38.506C34.3373 38.9693 34.0946 39.5313 33.1952 40.052C31.761 40.8779 30.2049 40.6271 29.3539 40.2746L26.7786 42.8277C27.255 43.011 27.7313 43.147 28.2017 43.2457C30.5584 43.7402 32.7974 43.2497 34.581 42.4782L36.5964 43.6435L39.3207 42.0714V44.2217L36.5964 45.7938L34.581 44.6285C32.4408 45.5551 29.647 46.0738 26.7786 44.981V42.8288L28.0164 41.601L26.7786 41.9424C24.8247 42.3926 22.7781 42.447 20.7013 41.2475C19.4797 40.5435 18.9126 39.772 18.9156 38.9784V36.8855L19.1362 35.97" fill="black"/>
</g>
<g opacity="0.45">
<path d="M18.3939 33.3836V35.5359L19.1371 35.969L19.1331 35.976C19.3718 35.4996 19.8029 35.0202 20.4092 34.5499L18.3939 33.3836Z" fill="black"/>
</g>
<path d="M38.8705 40.6654C38.8705 41.0622 38.7939 41.4097 38.667 41.6907L37.3033 40.9071C37.3033 40.9071 38.6771 40.3461 38.8514 38.8374C38.8604 39.4266 38.8705 40.607 38.8705 40.6654Z" fill="#3F72AF"/>
<g opacity="0.3">
<path d="M38.8705 40.6654C38.8705 41.0622 38.7939 41.4097 38.667 41.6907L37.3033 40.9071C37.3033 40.9071 38.6771 40.3461 38.8514 38.8374C38.8604 39.4266 38.8705 40.607 38.8705 40.6654Z" fill="black"/>
</g>
<path d="M38.8665 41.8095L37.3074 40.9051C37.3074 40.9051 38.8665 40.2635 38.8665 38.5161C38.8665 38.4416 38.8594 38.3741 38.8534 38.3066C38.7859 37.5643 38.239 36.8422 37.112 36.1936C37.112 36.1865 37.112 36.1865 37.112 36.1865C35.9104 35.4977 34.6817 35.2418 33.4872 35.2418C33.3865 35.2418 33.2777 35.2489 33.177 35.2489H33.1428C33.035 35.2559 32.9262 35.262 32.8185 35.269C32.7238 35.2761 32.6291 35.2821 32.5344 35.2962C32.4941 35.3033 32.4539 35.3033 32.4196 35.3093C32.3451 35.3164 32.2716 35.3224 32.2041 35.3365C31.5968 35.4171 31.0096 35.552 30.4426 35.7011C30.1656 35.7756 29.8896 35.8562 29.6187 35.9438C29.2269 36.0657 28.8422 36.1936 28.4776 36.3144C28.3295 36.3688 28.1875 36.4162 28.0455 36.4625C27.0192 36.82 26.2497 37.0698 25.6293 37.1514C25.2375 37.2058 24.9001 37.1987 24.5899 37.1111C24.4217 37.0638 24.2596 36.9963 24.1035 36.9087C23.4962 36.5572 23.4015 36.0244 24.5426 35.3627C25.7572 34.6607 27.0001 34.5861 28.0455 34.9981L30.4687 32.5547C28.1402 31.7993 25.6354 31.9273 23.1588 32.9596L21.1404 31.7983L18.3929 33.3846L20.4112 34.5459C19.4252 35.3083 18.8995 36.0979 18.9126 36.8613V36.8815C18.9398 37.658 19.5068 38.4073 20.7013 39.0952C23.3542 40.6271 25.9798 40.1215 28.3829 39.345C30.6168 38.6158 32.2434 37.7587 33.5335 38.501C34.3362 38.9663 34.0935 39.5273 33.1961 40.047C31.765 40.8769 30.2059 40.6271 29.3558 40.2696L26.7775 42.8278C27.2569 43.0101 27.7363 43.145 28.2016 43.2457C29.0507 43.423 29.8846 43.4734 30.6873 43.428C32.1124 43.3475 33.4399 42.9688 34.58 42.4773L36.5983 43.6446L39.3187 42.0724L38.8665 41.8095Z" fill="#3F72AF"/>
<path d="M34.582 42.4783V44.6286L36.5993 45.7929V43.6426L34.582 42.4783Z" fill="#3F72AF"/>
<g opacity="0.45">
<path d="M34.582 42.4783V44.6286L36.5993 45.7929V43.6426L34.582 42.4783Z" fill="black"/>
</g>
<path d="M18.3939 33.3856L21.1414 31.8003L23.1597 32.9606L21.1595 32.1237L18.3939 33.3856Z" fill="#F5F5F5"/>
<path d="M24.5435 35.3637C25.7582 34.6617 27.001 34.5872 28.0465 34.9991L30.4697 32.5557L28.0465 34.7473C28.0465 34.7473 26.1137 34.0101 24.5435 35.3637Z" fill="#F5F5F5"/>
<path d="M26.7774 42.8288C27.2569 43.0111 27.7363 43.146 28.2016 43.2467C29.0506 43.424 29.8845 43.4744 30.6873 43.429C30.6873 43.429 28.7485 43.4804 27.1843 42.7281L29.3558 40.2696L26.7774 42.8288Z" fill="#F5F5F5"/>
<path d="M34.582 42.4783L36.5993 43.3877L39.3186 42.0734L36.5993 43.6426L34.582 42.4783Z" fill="#F5F5F5"/>
<path d="M10.5591 28.944C17.71 24.6001 28.8593 24.1681 28.8593 24.1681C21.8474 24.1681 15.2777 25.7372 10.3527 28.5814C5.62707 31.3088 3.0296 34.8581 3.0296 38.5906C3.0296 38.5906 3.28542 33.3625 10.5591 28.944Z" fill="#F5F5F5"/>
<path d="M26.7765 54.1361C34.3654 54.4735 42.1548 52.9658 47.9591 49.615C53.995 46.1302 56.5774 41.4056 55.7042 36.8613C55.7042 36.8613 56.8312 44.268 47.5029 49.337C38.1745 54.4061 26.7765 54.1361 26.7765 54.1361Z" fill="#F5F5F5"/>
<path d="M52.5597 30.7832C51.2676 28.6037 49.1193 26.5551 46.1079 24.8167C35.5599 18.7274 18.4583 18.7274 7.91126 24.8167C4.89984 26.5551 2.75157 28.6037 1.45938 30.7832H0V36.3014H0.0191361C0.213518 40.1377 2.83919 43.9417 7.91126 46.8696C18.4593 52.9589 35.5609 52.9589 46.1079 46.8696C51.1799 43.9417 53.8247 40.1377 54.0191 36.3014V30.7832H52.5597Z" fill="#3F72AF"/>
<g opacity="0.25">
<path d="M52.5597 30.7832C51.2676 28.6037 49.1193 26.5551 46.1079 24.8167C35.5599 18.7274 18.4583 18.7274 7.91126 24.8167C4.89984 26.5551 2.75157 28.6037 1.45938 30.7832H0V36.3014H0.0191361C0.213518 40.1377 2.83919 43.9417 7.91126 46.8696C18.4593 52.9589 35.5609 52.9589 46.1079 46.8696C51.1799 43.9417 53.8247 40.1377 54.0191 36.3014V30.7832H52.5597Z" fill="black"/>
</g>
<g opacity="0.1">
<path d="M27.0111 20.2493C20.0979 20.2493 13.1848 21.7721 7.91126 24.8168C4.89984 26.5551 2.75157 28.6037 1.45938 30.7832H0V36.3014H0.0191361C0.213518 40.1377 2.83919 43.9418 7.91126 46.8696C13.1858 49.9142 20.0989 51.4371 27.0111 51.4371V20.2493Z" fill="black"/>
</g>
<g opacity="0.1">
<path d="M12.2582 22.7802C10.7212 23.3603 9.26085 24.0361 7.91126 24.8157C4.89984 26.554 2.75157 28.6026 1.45938 30.7821H0V36.3003H0.0191361C0.213518 40.1366 2.83919 43.9407 7.91126 46.8685C9.26186 47.648 10.7212 48.3248 12.2582 48.904V22.7802Z" fill="black"/>
</g>
<g opacity="0.5">
<path d="M41.76 22.7802C43.2969 23.3603 44.7573 24.0361 46.1069 24.8157C49.1183 26.554 51.2666 28.6026 52.5587 30.7821H54.0181V36.3003C53.8237 40.1376 51.1789 43.9407 46.1069 46.8685C44.7563 47.648 43.2969 48.3248 41.76 48.904V22.7802Z" fill="#3F72AF"/>
</g>
<path d="M46.1079 19.7588C35.5599 13.6685 18.4582 13.6685 7.91125 19.7588C-2.63676 25.8481 -2.63676 35.7223 7.91125 41.8116C18.4593 47.9009 35.5609 47.9009 46.1079 41.8116C56.6559 35.7223 56.6559 25.8491 46.1079 19.7588Z" fill="#3F72AF"/>
<g opacity="0.2">
<path d="M46.1079 19.7588C35.5599 13.6685 18.4582 13.6685 7.91125 19.7588C-2.63676 25.8481 -2.63676 35.7223 7.91125 41.8116C18.4593 47.9009 35.5609 47.9009 46.1079 41.8116C56.6559 35.7223 56.6559 25.8491 46.1079 19.7588Z" fill="black"/>
</g>
<path d="M39.4475 23.7944C36.1068 22.0843 31.6924 21.1415 27.0081 21.1415C22.3288 21.1415 17.9094 22.0843 14.5736 23.7944C11.0375 25.6063 9.09064 28.092 9.09064 30.7871C9.09064 33.4823 11.0375 35.963 14.5736 37.7759C17.9104 39.49 22.3288 40.4337 27.0081 40.4337C31.6924 40.4337 36.1057 39.491 39.4475 37.7759C42.9786 35.964 44.9255 33.4823 44.9255 30.7871C44.9255 28.092 42.9786 25.6063 39.4475 23.7944Z" fill="#3F72AF"/>
<g opacity="0.4">
<path d="M39.4475 23.7944C36.1068 22.0843 31.6924 21.1415 27.0081 21.1415C22.3288 21.1415 17.9094 22.0843 14.5736 23.7944C11.0375 25.6063 9.09064 28.092 9.09064 30.7871C9.09064 33.4823 11.0375 35.963 14.5736 37.7759C17.9104 39.49 22.3288 40.4337 27.0081 40.4337C31.6924 40.4337 36.1057 39.491 39.4475 37.7759C42.9786 35.964 44.9255 33.4823 44.9255 30.7871C44.9255 28.092 42.9786 25.6063 39.4475 23.7944Z" fill="black"/>
</g>
<path d="M45.5206 20.779C40.5956 17.9348 34.0188 16.3646 27.008 16.3646C19.9971 16.3646 13.4254 17.9338 8.50039 20.779C3.77479 23.5054 1.17732 27.0556 1.17732 30.7881C1.17732 34.5146 3.77479 38.0699 8.50039 40.7973C13.4254 43.6355 19.9961 45.2047 27.008 45.2047C34.0199 45.2047 40.5956 43.6355 45.5206 40.7973C50.2402 38.0699 52.8437 34.5146 52.8437 30.7881C52.8437 27.0556 50.2402 23.5054 45.5206 20.779ZM39.4475 37.7759C36.1067 39.49 31.6923 40.4337 27.008 40.4337C22.3287 40.4337 17.9093 39.491 14.5736 37.7759C11.0374 35.964 9.09059 33.4823 9.09059 30.7871C9.09059 28.092 11.0374 25.6063 14.5736 23.7944C17.9103 22.0843 22.3287 21.1415 27.008 21.1415C31.6923 21.1415 36.1057 22.0843 39.4475 23.7944C42.9786 25.6063 44.9254 28.092 44.9254 30.7871C44.9254 33.4823 42.9786 35.964 39.4475 37.7759Z" fill="#3F72AF"/>
<g opacity="0.2">
<path d="M39.0215 36.949C45.6557 33.5447 45.6557 28.0245 39.0215 24.6203C32.3874 21.2161 21.6319 21.2161 14.9977 24.6203C8.36353 28.0245 8.36353 33.5447 14.9977 36.949C21.6309 40.3532 32.3874 40.3532 39.0215 36.949Z" fill="black"/>
</g>
<path d="M39.0215 36.949C45.6557 33.5447 45.6557 28.0245 39.0215 24.6203C32.3874 21.2161 21.6319 21.2161 14.9977 24.6203C8.36353 28.0245 8.36353 33.5447 14.9977 36.949C21.6309 40.3532 32.3874 40.3532 39.0215 36.949Z" fill="#3F72AF"/>
<g opacity="0.6">
<path d="M39.0215 36.949C45.6557 33.5447 45.6557 28.0245 39.0215 24.6203C32.3874 21.2161 21.6319 21.2161 14.9977 24.6203C8.36353 28.0245 8.36353 33.5447 14.9977 36.949C21.6309 40.3532 32.3874 40.3532 39.0215 36.949Z" fill="black"/>
</g>
<path d="M39.0215 26.9297C32.3874 23.5255 21.6319 23.5255 14.9977 26.9297C12.2542 28.3377 10.6498 30.1073 10.1744 31.9393C10.6488 33.7713 12.2542 35.5409 14.9977 36.9489C21.6319 40.3531 32.3874 40.3531 39.0215 36.9489C41.765 35.5409 43.3705 33.7713 43.8448 31.9393C43.3705 30.1073 41.764 28.3377 39.0215 26.9297Z" fill="#3F72AF"/>
<g opacity="0.5">
<path d="M39.0215 26.9297C32.3874 23.5255 21.6319 23.5255 14.9977 26.9297C12.2542 28.3377 10.6498 30.1073 10.1744 31.9393C10.6488 33.7713 12.2542 35.5409 14.9977 36.9489C21.6319 40.3531 32.3874 40.3531 39.0215 36.9489C41.765 35.5409 43.3705 33.7713 43.8448 31.9393C43.3705 30.1073 41.764 28.3377 39.0215 26.9297Z" fill="black"/>
</g>
<path d="M28.6174 24.7532V27.244L27.7674 28.1413L26.1942 29.7881V27.1966L28.6174 24.7532Z" fill="#3F72AF"/>
<g opacity="0.3">
<path d="M28.6174 24.7532V27.244L27.7674 28.1413L26.1942 29.7881V27.1966L28.6174 24.7532Z" fill="black"/>
</g>
<path d="M26.1942 27.1936V28.664C25.169 29.0215 24.3955 29.2633 23.7761 29.3509C23.3893 29.3992 23.0509 29.3992 22.7407 29.3116C22.5665 29.2633 22.4124 29.1958 22.2472 29.1082C21.6479 28.7506 21.5512 28.2179 22.6923 27.5602C23.9019 26.8552 25.1498 26.7877 26.1942 27.1936Z" fill="#3F72AF"/>
<g opacity="0.45">
<path d="M26.1942 27.1936V28.664C25.169 29.0215 24.3955 29.2633 23.7761 29.3509C23.3893 29.3992 23.0509 29.3992 22.7407 29.3116C22.5665 29.2633 22.4124 29.1958 22.2472 29.1082C21.6479 28.7506 21.5512 28.2179 22.6923 27.5602C23.9019 26.8552 25.1498 26.7877 26.1942 27.1936Z" fill="black"/>
</g>
<path d="M37.4704 34.2689V36.4192L34.746 37.9914L32.7307 36.8261C30.5905 37.7527 27.7966 38.2714 24.9282 37.1776V35.0253L26.167 33.7976L24.9282 34.139C22.9743 34.5892 20.9277 34.6436 18.851 33.444C17.6293 32.74 17.0623 31.9685 17.0653 31.1749V29.082L17.2858 28.1665L16.5426 27.7334V25.5811L18.5579 26.7464C17.5739 27.5088 17.0522 28.2944 17.0643 29.0568V29.081C17.0864 29.8545 17.6585 30.6049 18.85 31.2938C21.4998 32.8236 24.1255 32.319 26.5296 31.5475C28.7665 30.8174 30.3951 29.9603 31.6842 30.7036C32.4839 31.1669 32.2412 31.7288 31.3428 32.2485C29.9086 33.0754 28.3525 32.8236 27.5015 32.4711L24.9262 35.0243C25.4026 35.2076 25.8789 35.3435 26.3493 35.4422C28.7061 35.9358 30.945 35.4463 32.7287 34.6748L34.744 35.8401L37.4704 34.2689Z" fill="#3F72AF"/>
<g opacity="0.35">
<path d="M17.0642 29.0568V29.081C17.0864 29.8545 17.6585 30.6049 18.8499 31.2938C21.4998 32.8236 24.1255 32.319 26.5296 31.5475C28.7665 30.8174 30.395 29.9603 31.6842 30.7036C32.4839 31.1669 32.2412 31.7288 31.3428 32.2485C29.9086 33.0754 28.3525 32.8236 27.5015 32.4711L24.9262 35.0243C25.4025 35.2076 25.8789 35.3435 26.3493 35.4422C28.706 35.9358 30.945 35.4463 32.7286 34.6748L34.744 35.8401L37.4683 34.2679V36.4182L34.744 37.9904L32.7286 36.8251C30.5884 37.7517 27.7946 38.2704 24.9262 37.1766V35.0243L26.165 33.7965L24.9262 34.138C22.9723 34.5882 20.9257 34.6426 18.8489 33.443C17.6273 32.739 17.0602 31.9675 17.0632 31.1739L17.0642 29.081L17.2838 28.1655" fill="black"/>
</g>
<g opacity="0.45">
<path d="M16.5426 25.5811V27.7334L17.2858 28.1665L17.2818 28.1735C17.5205 27.6962 17.9516 27.2178 18.5579 26.7474L16.5426 25.5811Z" fill="black"/>
</g>
<path d="M37.0192 32.8619C37.0192 33.2587 36.9416 33.6062 36.8157 33.8872L35.452 33.1036C35.452 33.1036 36.8258 32.5426 36.999 31.0339C37.0091 31.6241 37.0192 32.8045 37.0192 32.8619Z" fill="#3F72AF"/>
<g opacity="0.3">
<path d="M37.0192 32.8619C37.0192 33.2587 36.9416 33.6062 36.8157 33.8872L35.452 33.1036C35.452 33.1036 36.8258 32.5426 36.999 31.0339C37.0091 31.6241 37.0192 32.8045 37.0192 32.8619Z" fill="black"/>
</g>
<path d="M37.0142 34.007L35.4551 33.1026C35.4551 33.1026 37.0142 32.4611 37.0142 30.7126C37.0142 30.6381 37.0071 30.5706 37.0011 30.5031C36.9336 29.7609 36.3867 29.0387 35.2597 28.3901C35.2597 28.3831 35.2597 28.383 35.2597 28.383C34.0581 27.6941 32.8304 27.4383 31.6349 27.4383C31.5342 27.4383 31.4254 27.4454 31.3247 27.4454H31.2905C31.1827 27.4524 31.0739 27.4585 30.9661 27.4655C30.8715 27.4726 30.7768 27.4786 30.6821 27.4927C30.6418 27.4998 30.6016 27.4998 30.5673 27.5068C30.4928 27.5139 30.4193 27.5199 30.3518 27.534C29.7445 27.6156 29.1573 27.7506 28.5903 27.8986C28.3133 27.9731 28.0363 28.0537 27.7664 28.1413C27.3746 28.2632 26.9899 28.3911 26.6253 28.513C26.4772 28.5674 26.3352 28.6137 26.1932 28.661C25.1669 29.0186 24.3974 29.2683 23.777 29.3499C23.3852 29.4043 23.0478 29.3973 22.7376 29.3096C22.5694 29.2623 22.4073 29.1948 22.2522 29.1072C21.6449 28.7567 21.5502 28.2229 22.6913 27.5612C23.9059 26.8592 25.1478 26.7847 26.1942 27.1966L28.6174 24.7532C26.2889 23.9968 23.7841 24.1258 21.3075 25.1581L19.2891 23.9969L16.5416 25.5831L18.5599 26.7444C17.5739 27.5068 17.0482 28.2964 17.0613 29.0599V29.08C17.0885 29.8565 17.6555 30.6059 18.85 31.2938C21.5029 32.8256 24.1285 32.32 26.5316 31.5435C28.7665 30.8143 30.3931 29.9573 31.6822 30.6995C32.486 31.1648 32.2422 31.7258 31.3448 32.2455C29.9137 33.0754 28.3546 32.8256 27.5045 32.4681L24.9262 35.0263C25.4056 35.2086 25.885 35.3436 26.3503 35.4443C27.1994 35.6215 28.0333 35.6709 28.836 35.6266C30.2611 35.546 31.5896 35.1673 32.7287 34.6748L34.747 35.8421L37.4674 34.2699L37.0142 34.007Z" fill="#3F72AF"/>
<path d="M32.7297 34.6748V36.8261L34.747 37.9904V35.8401L32.7297 34.6748Z" fill="#3F72AF"/>
<g opacity="0.45">
<path d="M32.7297 34.6748V36.8261L34.747 37.9904V35.8401L32.7297 34.6748Z" fill="black"/>
</g>
<path d="M16.5426 25.5831L19.2891 23.9969L21.3074 25.1581L19.3072 24.3212L16.5426 25.5831Z" fill="#F5F5F5"/>
<path d="M22.6913 27.5612C23.9059 26.8592 25.1477 26.7847 26.1942 27.1966L28.6174 24.7532L26.1942 26.9448C26.1942 26.9448 24.2614 26.2066 22.6913 27.5612Z" fill="#F5F5F5"/>
<path d="M24.9261 35.0263C25.4056 35.2086 25.885 35.3436 26.3503 35.4443C27.1993 35.6215 28.0332 35.6709 28.836 35.6266C28.836 35.6266 26.8972 35.6779 25.333 34.9256L27.5045 32.4671L24.9261 35.0263Z" fill="#F5F5F5"/>
<path d="M32.7297 34.6748L34.747 35.5852L37.4674 34.2699L34.747 35.84L32.7297 34.6748Z" fill="#F5F5F5"/>
<path d="M8.70686 21.1405C15.8577 16.7966 27.008 16.3646 27.008 16.3646C19.9961 16.3646 13.4254 17.9338 8.50039 20.779C3.77479 23.5054 1.17732 27.0556 1.17732 30.7881C1.17732 30.7881 1.43314 25.559 8.70686 21.1405Z" fill="#F5F5F5"/>
<path d="M24.9252 46.3337C32.5141 46.6711 40.3035 45.1634 46.1078 41.8126C52.1437 38.3278 54.7261 33.6032 53.8539 29.0589C53.8539 29.0589 54.9809 36.4656 45.6526 41.5346C36.3222 46.6037 24.9252 46.3337 24.9252 46.3337Z" fill="#F5F5F5"/>
<path d="M56.4233 23.2315C55.1311 21.052 52.9828 19.0044 49.9714 17.265C39.4234 11.1747 22.3218 11.1747 11.7748 17.265C8.76337 19.0044 6.6151 21.052 5.32291 23.2315H3.86353V28.7497H3.88267C4.07705 32.586 6.70272 36.389 11.7748 39.3178C22.3228 45.4081 39.4244 45.4081 49.9714 39.3178C55.0435 36.389 57.6883 32.586 57.8827 28.7497V23.2315H56.4233Z" fill="#3F72AF"/>
<g opacity="0.25">
<path d="M56.4233 23.2315C55.1311 21.052 52.9828 19.0044 49.9714 17.265C39.4234 11.1747 22.3218 11.1747 11.7748 17.265C8.76337 19.0044 6.6151 21.052 5.32291 23.2315H3.86353V28.7497H3.88267C4.07705 32.586 6.70272 36.389 11.7748 39.3178C22.3228 45.4081 39.4244 45.4081 49.9714 39.3178C55.0435 36.389 57.6883 32.586 57.8827 28.7497V23.2315H56.4233Z" fill="black"/>
</g>
<g opacity="0.1">
<path d="M30.8746 12.6975C23.9614 12.6975 17.0493 14.2194 11.7748 17.265C8.76337 19.0044 6.61409 21.052 5.32291 23.2315H3.86353V28.7497H3.88267C4.07705 32.586 6.70272 36.389 11.7748 39.3178C17.0493 42.3625 23.9625 43.8853 30.8746 43.8853V12.6975Z" fill="black"/>
</g>
<g opacity="0.1">
<path d="M16.1217 15.2296C14.5848 15.8097 13.1244 16.4855 11.7748 17.265C8.76337 19.0044 6.61409 21.052 5.32291 23.2315H3.86353V28.7497H3.88267C4.07705 32.586 6.70272 36.389 11.7748 39.3179C13.1244 40.0974 14.5848 40.7742 16.1217 41.3533V15.2296Z" fill="black"/>
</g>
<g opacity="0.5">
<path d="M45.6245 15.2296C47.1614 15.8097 48.6218 16.4855 49.9714 17.265C52.9838 19.0044 55.1311 21.052 56.4233 23.2315H57.8826V28.7497C57.6883 32.587 55.0435 36.39 49.9714 39.3179C48.6218 40.0974 47.1614 40.7742 45.6245 41.3533V15.2296Z" fill="#3F72AF"/>
</g>
<path d="M49.9714 12.2071C39.4234 6.11776 22.3218 6.11776 11.7748 12.2071C1.22678 18.2974 1.22678 28.1706 11.7748 34.2599C22.3228 40.3502 39.4244 40.3502 49.9714 34.2599C60.5194 28.1706 60.5194 18.2974 49.9714 12.2071Z" fill="#3F72AF"/>
<g opacity="0.2">
<path d="M49.9714 12.2071C39.4234 6.11776 22.3218 6.11776 11.7748 12.2071C1.22678 18.2974 1.22678 28.1706 11.7748 34.2599C22.3228 40.3502 39.4244 40.3502 49.9714 34.2599C60.5194 28.1706 60.5194 18.2974 49.9714 12.2071Z" fill="black"/>
</g>
<path d="M43.311 16.2428C39.9703 14.5326 35.5559 13.5899 30.8716 13.5899C26.1923 13.5899 21.7729 14.5336 18.4372 16.2428C14.901 18.0547 12.9542 20.5414 12.9542 23.2365C12.9542 25.9317 14.901 28.4123 18.4372 30.2252C21.7739 31.9394 26.1923 32.8831 30.8716 32.8831C35.5549 32.8831 39.9693 31.9394 43.311 30.2252C46.8421 28.4133 48.789 25.9317 48.789 23.2365C48.789 20.5403 46.8421 18.0547 43.311 16.2428Z" fill="#3F72AF"/>
<g opacity="0.4">
<path d="M43.311 16.2428C39.9703 14.5326 35.5559 13.5899 30.8716 13.5899C26.1923 13.5899 21.7729 14.5336 18.4372 16.2428C14.901 18.0547 12.9542 20.5414 12.9542 23.2365C12.9542 25.9317 14.901 28.4123 18.4372 30.2252C21.7739 31.9394 26.1923 32.8831 30.8716 32.8831C35.5549 32.8831 39.9693 31.9394 43.311 30.2252C46.8421 28.4133 48.789 25.9317 48.789 23.2365C48.789 20.5403 46.8421 18.0547 43.311 16.2428Z" fill="black"/>
</g>
<path d="M49.3842 13.2273C44.4592 10.3831 37.8824 8.81396 30.8715 8.81396C23.8597 8.81396 17.2889 10.3831 12.3639 13.2273C7.63832 15.9547 5.04085 19.504 5.04085 23.2365C5.04085 26.963 7.63832 30.5183 12.3639 33.2457C17.2889 36.0849 23.8597 37.653 30.8715 37.653C37.8824 37.653 44.4592 36.0839 49.3842 33.2457C54.1037 30.5183 56.7072 26.963 56.7072 23.2365C56.7072 19.504 54.1037 15.9537 49.3842 13.2273ZM43.311 30.2242C39.9702 31.9384 35.5558 32.8821 30.8715 32.8821C26.1923 32.8821 21.7728 31.9384 18.4371 30.2242C14.901 28.4123 12.9541 25.9307 12.9541 23.2355C12.9541 20.5403 14.901 18.0547 18.4371 16.2418C21.7738 14.5316 26.1923 13.5889 30.8715 13.5889C35.5548 13.5889 39.9692 14.5326 43.311 16.2418C46.8421 18.0537 48.7889 20.5403 48.7889 23.2355C48.7889 25.9307 46.8421 28.4123 43.311 30.2242Z" fill="#3F72AF"/>
<g opacity="0.2">
<path d="M42.8851 29.3973C49.5192 25.9931 49.5192 20.4728 42.8851 17.0686C36.2509 13.6644 25.4944 13.6644 18.8612 17.0686C12.2271 20.4728 12.2271 25.9931 18.8612 29.3973C25.4954 32.8015 36.2509 32.8015 42.8851 29.3973Z" fill="black"/>
</g>
<path d="M42.8851 29.3973C49.5192 25.9931 49.5192 20.4728 42.8851 17.0686C36.2509 13.6644 25.4944 13.6644 18.8612 17.0686C12.2271 20.4728 12.2271 25.9931 18.8612 29.3973C25.4954 32.8015 36.2509 32.8015 42.8851 29.3973Z" fill="#3F72AF"/>
<g opacity="0.6">
<path d="M42.8851 29.3973C49.5192 25.9931 49.5192 20.4728 42.8851 17.0686C36.2509 13.6644 25.4944 13.6644 18.8612 17.0686C12.2271 20.4728 12.2271 25.9931 18.8612 29.3973C25.4954 32.8015 36.2509 32.8015 42.8851 29.3973Z" fill="black"/>
</g>
<path d="M42.8851 19.3781C36.2509 15.9738 25.4944 15.9738 18.8612 19.3781C16.1177 20.7861 14.5133 22.5557 14.0379 24.3877C14.5123 26.2197 16.1177 27.9893 18.8612 29.3973C25.4954 32.8015 36.2509 32.8015 42.8851 29.3973C45.6286 27.9893 47.234 26.2197 47.7084 24.3877C47.234 22.5557 45.6286 20.7861 42.8851 19.3781Z" fill="#3F72AF"/>
<g opacity="0.5">
<path d="M42.8851 19.3781C36.2509 15.9738 25.4944 15.9738 18.8612 19.3781C16.1177 20.7861 14.5133 22.5557 14.0379 24.3877C14.5123 26.2197 16.1177 27.9893 18.8612 29.3973C25.4954 32.8015 36.2509 32.8015 42.8851 29.3973C45.6286 27.9893 47.234 26.2197 47.7084 24.3877C47.234 22.5557 45.6286 20.7861 42.8851 19.3781Z" fill="black"/>
</g>
<path d="M32.4819 17.2016V19.6923L31.6309 20.5897L30.0587 22.2374V19.645L32.4819 17.2016Z" fill="#3F72AF"/>
<g opacity="0.3">
<path d="M32.4819 17.2016V19.6923L31.6309 20.5897L30.0587 22.2374V19.645L32.4819 17.2016Z" fill="black"/>
</g>
<path d="M30.0588 19.6419V21.1124C29.0335 21.4699 28.26 21.7117 27.6406 21.7993C27.2538 21.8476 26.9154 21.8476 26.6052 21.761C26.431 21.7127 26.2769 21.6452 26.1117 21.5575C25.5124 21.2 25.4158 20.6672 26.5569 20.0095C27.7665 19.3035 29.0133 19.2361 30.0588 19.6419Z" fill="#3F72AF"/>
<g opacity="0.45">
<path d="M30.0588 19.6419V21.1124C29.0335 21.4699 28.26 21.7117 27.6406 21.7993C27.2538 21.8476 26.9154 21.8476 26.6052 21.761C26.431 21.7127 26.2769 21.6452 26.1117 21.5575C25.5124 21.2 25.4158 20.6672 26.5569 20.0095C27.7665 19.3035 29.0133 19.2361 30.0588 19.6419Z" fill="black"/>
</g>
<path d="M41.3339 26.7173V28.8676L38.6105 30.4397L36.5952 29.2745C34.455 30.201 31.6611 30.7197 28.7927 29.627V27.4746L30.0315 26.2469L28.7927 26.5884C26.8388 27.0386 24.7923 27.0929 22.7155 25.8934C21.4938 25.1894 20.9268 24.4179 20.9298 23.6243V21.5314L21.1504 20.6159L20.4071 20.1828V18.0305L22.4224 19.1958C21.4384 19.9582 20.9157 20.7438 20.9288 21.5062V21.5304C20.9509 22.3039 21.523 23.0542 22.7145 23.7431C25.3643 25.273 27.99 24.7684 30.3941 23.9969C32.631 23.2667 34.2596 22.4096 35.5487 23.1529C36.3494 23.6162 36.1067 24.1782 35.2073 24.6989C33.7731 25.5248 32.2171 25.274 31.366 24.9215L28.7907 27.4746C29.2671 27.6579 29.7435 27.7939 30.2138 27.8926C32.5706 28.3871 34.8095 27.8967 36.5932 27.1252L38.6085 28.2904L41.3339 26.7173Z" fill="#3F72AF"/>
<g opacity="0.35">
<path d="M20.9289 21.5052V21.5293C20.951 22.3028 21.5231 23.0532 22.7146 23.7421C25.3644 25.2719 27.9901 24.7674 30.3942 23.9959C32.6311 23.2657 34.2597 22.4086 35.5488 23.1519C36.3495 23.6152 36.1068 24.1772 35.2074 24.6979C33.7732 25.5237 32.2172 25.273 31.3661 24.9205L28.7908 27.4736C29.2672 27.6569 29.7436 27.7929 30.2139 27.8916C32.5707 28.3861 34.8096 27.8956 36.5933 27.1241L38.6086 28.2894L41.332 26.7172V28.8675L38.6086 30.4397L36.5933 29.2744C34.4531 30.201 31.6592 30.7197 28.7908 29.6269V27.4736L30.0296 26.2469L28.7908 26.5883C26.8369 27.0385 24.7903 27.0929 22.7136 25.8934C21.4919 25.1894 20.9249 24.4179 20.9279 23.6242V21.5313L21.1485 20.6158" fill="black"/>
</g>
<g opacity="0.45">
<path d="M20.4061 18.0295V20.1817L21.1494 20.6138L21.1454 20.6209C21.384 20.1435 21.8151 19.6651 22.4214 19.1948L20.4061 18.0295Z" fill="black"/>
</g>
<path d="M40.8827 25.3102C40.8827 25.707 40.8052 26.0555 40.6793 26.3355L39.3156 25.5519C39.3156 25.5519 40.6893 24.991 40.8626 23.4822C40.8727 24.0724 40.8827 25.2528 40.8827 25.3102Z" fill="#3F72AF"/>
<g opacity="0.3">
<path d="M40.8827 25.3102C40.8827 25.707 40.8052 26.0555 40.6793 26.3355L39.3156 25.5519C39.3156 25.5519 40.6893 24.991 40.8626 23.4822C40.8727 24.0724 40.8827 25.2528 40.8827 25.3102Z" fill="black"/>
</g>
<path d="M40.8787 26.4554L39.3196 25.551C39.3196 25.551 40.8787 24.9094 40.8787 23.162C40.8787 23.0874 40.8716 23.0199 40.8646 22.9525C40.7971 22.2102 40.2502 21.4881 39.1232 20.8394C39.1232 20.8324 39.1232 20.8324 39.1232 20.8324C37.9217 20.1435 36.6929 19.8877 35.4984 19.8877C35.3967 19.8877 35.2889 19.8947 35.1882 19.8947H35.154C35.0462 19.9018 34.9374 19.9078 34.8297 19.9149C34.735 19.9219 34.6403 19.928 34.5467 19.9421C34.5064 19.9491 34.4651 19.9491 34.4319 19.9561C34.3573 19.9632 34.2838 19.9692 34.2163 19.9833C33.609 20.0639 33.0218 20.1989 32.4548 20.3479C32.1778 20.4225 31.9019 20.503 31.6309 20.5907C31.2391 20.7125 30.8544 20.8405 30.4898 20.9623C30.3418 21.0167 30.1998 21.064 30.0577 21.1114C29.0314 21.4689 28.262 21.7187 27.6416 21.8003C27.2498 21.8547 26.9124 21.8476 26.6022 21.76C26.433 21.7127 26.2718 21.6452 26.1157 21.5575C25.5084 21.206 25.4137 20.6733 26.5548 20.0116C27.7695 19.3096 29.0123 19.235 30.0577 19.647L32.481 17.2036C30.1524 16.4472 27.6476 16.5761 25.171 17.6085L23.1526 16.4472L20.4051 18.0335L22.4235 19.1948C21.4375 19.9572 20.9117 20.7468 20.9248 21.5102V21.5304C20.952 22.3069 21.519 23.0562 22.7135 23.7441C25.3664 25.276 27.9921 24.7694 30.3951 23.9939C32.629 23.2647 34.2556 22.4076 35.5448 23.1499C36.3485 23.6152 36.1047 24.1762 35.2074 24.6959C33.7762 25.5258 32.2171 25.276 31.3671 24.9184L28.7887 27.4766C29.2681 27.6589 29.7475 27.7939 30.2129 27.8946C31.0619 28.0719 31.8958 28.1212 32.6985 28.0769C34.1237 27.9963 35.4511 27.6176 36.5912 27.1251L38.6096 28.2924L41.3299 26.7202L40.8787 26.4554Z" fill="#3F72AF"/>
<path d="M36.5932 27.1241V29.2734L38.6106 30.4387V28.2884L36.5932 27.1241Z" fill="#3F72AF"/>
<g opacity="0.45">
<path d="M36.5932 27.1241V29.2734L38.6106 30.4387V28.2884L36.5932 27.1241Z" fill="black"/>
</g>
<path d="M20.4061 18.0315L23.1536 16.4452L25.172 17.6065L23.1708 16.7695L20.4061 18.0315Z" fill="#F5F5F5"/>
<path d="M26.5548 20.0096C27.7694 19.3076 29.0123 19.233 30.0577 19.645L32.4809 17.2016L30.0577 19.3932C30.0577 19.3932 28.125 18.6549 26.5548 20.0096Z" fill="#F5F5F5"/>
<path d="M28.7887 27.4746C29.2681 27.6569 29.7475 27.7918 30.2128 27.8926C31.0619 28.0698 31.8958 28.1192 32.6985 28.0749C32.6985 28.0749 30.7597 28.1262 29.1956 27.3739L31.367 24.9154L28.7887 27.4746Z" fill="#F5F5F5"/>
<path d="M36.5932 27.1241L38.6106 28.0336L41.3309 26.7192L38.6106 28.2884L36.5932 27.1241Z" fill="#F5F5F5"/>
<path d="M12.5704 13.5889C19.7212 9.24499 30.8715 8.81291 30.8715 8.81291C23.8597 8.81291 17.2889 10.3821 12.3639 13.2263C7.63832 15.9537 5.04085 19.5029 5.04085 23.2355C5.04085 23.2355 5.29667 18.0083 12.5704 13.5889Z" fill="#F5F5F5"/>
<path d="M28.7887 38.782C36.3777 39.1194 44.1671 37.6117 49.9713 34.2609C56.0072 30.7761 58.5896 26.0515 57.7174 21.5072C57.7174 21.5072 58.8444 28.9138 49.5151 33.9829C40.1857 39.0519 28.7887 38.782 28.7887 38.782Z" fill="#F5F5F5"/>
<path d="M53.7855 15.5922C52.4933 13.4127 50.346 11.3651 47.3336 9.62571C36.7856 3.53641 19.685 3.53641 9.13701 9.62571C6.1256 11.3651 3.97732 13.4127 2.68514 15.5922H1.22576V21.1104H1.24489C1.43928 24.9466 4.06495 28.7497 9.13701 31.6785C19.685 37.7678 36.7866 37.7678 47.3336 31.6785C52.4057 28.7497 55.0505 24.9466 55.2449 21.1104V15.5922H53.7855Z" fill="#3F72AF"/>
<g opacity="0.25">
<path d="M53.7855 15.5922C52.4933 13.4127 50.346 11.3651 47.3336 9.62571C36.7856 3.53641 19.685 3.53641 9.13701 9.62571C6.1256 11.3651 3.97732 13.4127 2.68514 15.5922H1.22576V21.1104H1.24489C1.43928 24.9466 4.06495 28.7497 9.13701 31.6785C19.685 37.7678 36.7866 37.7678 47.3336 31.6785C52.4057 28.7497 55.0505 24.9466 55.2449 21.1104V15.5922H53.7855Z" fill="black"/>
</g>
<g opacity="0.1">
<path d="M28.2368 5.05825C21.3237 5.05825 14.4115 6.58007 9.13701 9.62573C6.1256 11.3651 3.97732 13.4127 2.68514 15.5922H1.22576V21.1104H1.24489C1.43928 24.9477 4.06495 28.7507 9.13701 31.6785C14.4115 34.7232 21.3247 36.246 28.2368 36.246V5.05825Z" fill="black"/>
</g>
<g opacity="0.1">
<path d="M13.4839 7.59023C11.947 8.17035 10.4866 8.84616 9.13701 9.6257C6.1256 11.3651 3.97732 13.4126 2.68514 15.5921H1.22576V21.1103H1.24489C1.43928 24.9476 4.06495 28.7507 9.13701 31.6785C10.4866 32.4581 11.947 33.1339 13.4839 33.714V7.59023Z" fill="black"/>
</g>
<g opacity="0.5">
<path d="M42.9867 7.59023C44.5236 8.17035 45.984 8.84616 47.3336 9.6257C50.346 11.3651 52.4933 13.4126 53.7855 15.5921H55.2449V21.1103C55.0505 24.9466 52.4057 28.7507 47.3336 31.6785C45.983 32.4581 44.5236 33.1339 42.9867 33.714V7.59023Z" fill="#3F72AF"/>
</g>
<path d="M47.3336 4.56773C36.7856 -1.52258 19.685 -1.52258 9.13701 4.56773C-1.411 10.657 -1.411 20.5312 9.13701 26.6205C19.685 32.7108 36.7866 32.7108 47.3336 26.6205C57.8816 20.5312 57.8816 10.658 47.3336 4.56773Z" fill="#3F72AF"/>
<g opacity="0.2">
<path d="M47.3336 4.56773C36.7856 -1.52258 19.685 -1.52258 9.13701 4.56773C-1.411 10.657 -1.411 20.5312 9.13701 26.6205C19.685 32.7108 36.7866 32.7108 47.3336 26.6205C57.8816 20.5312 57.8816 10.658 47.3336 4.56773Z" fill="black"/>
</g>
<path d="M40.6733 8.60345C37.3325 6.89328 32.9181 5.95058 28.2338 5.95058C23.5545 5.95058 19.1351 6.89429 15.7994 8.60345C12.2632 10.4153 10.3164 12.902 10.3164 15.5962C10.3164 18.2914 12.2632 20.773 15.7994 22.5849C19.1361 24.3001 23.5545 25.2428 28.2338 25.2428C32.9181 25.2428 37.3315 24.3001 40.6733 22.5849C44.2044 20.773 46.1522 18.2914 46.1522 15.5962C46.1512 12.901 44.2044 10.4153 40.6733 8.60345Z" fill="#3F72AF"/>
<g opacity="0.4">
<path d="M40.6733 8.60345C37.3325 6.89328 32.9181 5.95058 28.2338 5.95058C23.5545 5.95058 19.1351 6.89429 15.7994 8.60345C12.2632 10.4153 10.3164 12.902 10.3164 15.5962C10.3164 18.2914 12.2632 20.773 15.7994 22.5849C19.1361 24.3001 23.5545 25.2428 28.2338 25.2428C32.9181 25.2428 37.3315 24.3001 40.6733 22.5849C44.2044 20.773 46.1522 18.2914 46.1522 15.5962C46.1512 12.901 44.2044 10.4153 40.6733 8.60345Z" fill="black"/>
</g>
<path d="M46.7464 5.58798C41.8214 2.74376 35.2446 1.17461 28.2338 1.17461C21.2219 1.17461 14.6512 2.74376 9.72615 5.58798C5.00054 8.31437 2.40307 11.8646 2.40307 15.5962C2.40307 19.3227 5.00054 22.8779 9.72615 25.6053C14.6512 28.4435 21.2219 30.0127 28.2338 30.0127C35.2456 30.0127 41.8214 28.4435 46.7464 25.6053C51.466 22.8779 54.0695 19.3227 54.0695 15.5962C54.0695 11.8646 51.466 8.31437 46.7464 5.58798ZM40.6732 22.5849C37.3325 24.3 32.9181 25.2428 28.2338 25.2428C23.5545 25.2428 19.1351 24.3 15.7993 22.5849C12.2632 20.773 10.3163 18.2913 10.3163 15.5962C10.3163 12.901 12.2632 10.4153 15.7993 8.60341C19.1361 6.89325 23.5545 5.95055 28.2338 5.95055C32.9181 5.95055 37.3314 6.89426 40.6732 8.60341C44.2043 10.4153 46.1522 12.902 46.1522 15.5962C46.1512 18.2913 44.2043 20.773 40.6732 22.5849Z" fill="#3F72AF"/>
<g opacity="0.2">
<path d="M40.2473 21.7579C46.8815 18.3537 46.8815 12.8335 40.2473 9.42926C33.6131 6.02505 22.8576 6.02505 16.2235 9.42926C9.58929 12.8335 9.58929 18.3537 16.2235 21.7579C22.8576 25.1621 33.6131 25.1621 40.2473 21.7579Z" fill="black"/>
</g>
<path d="M40.2473 21.7579C46.8815 18.3537 46.8815 12.8335 40.2473 9.42926C33.6131 6.02505 22.8576 6.02505 16.2235 9.42926C9.58929 12.8335 9.58929 18.3537 16.2235 21.7579C22.8576 25.1621 33.6131 25.1621 40.2473 21.7579Z" fill="#3F72AF"/>
<g opacity="0.6">
<path d="M40.2473 21.7579C46.8815 18.3537 46.8815 12.8335 40.2473 9.42926C33.6131 6.02505 22.8576 6.02505 16.2235 9.42926C9.58929 12.8335 9.58929 18.3537 16.2235 21.7579C22.8576 25.1621 33.6131 25.1621 40.2473 21.7579Z" fill="black"/>
</g>
<path d="M40.2473 11.7387C33.6131 8.33444 22.8576 8.33444 16.2235 11.7387C13.4799 13.1467 11.8755 14.9162 11.4002 16.7483C11.8745 18.5803 13.4799 20.3499 16.2235 21.7579C22.8576 25.1621 33.6131 25.1621 40.2473 21.7579C42.9908 20.3499 44.5962 18.5803 45.0706 16.7483C44.5962 14.9162 42.9908 13.1467 40.2473 11.7387Z" fill="#3F72AF"/>
<g opacity="0.5">
<path d="M40.2473 11.7387C33.6131 8.33444 22.8576 8.33444 16.2235 11.7387C13.4799 13.1467 11.8755 14.9162 11.4002 16.7483C11.8745 18.5803 13.4799 20.3499 16.2235 21.7579C22.8576 25.1621 33.6131 25.1621 40.2473 21.7579C42.9908 20.3499 44.5962 18.5803 45.0706 16.7483C44.5962 14.9162 42.9908 13.1467 40.2473 11.7387Z" fill="black"/>
</g>
<path d="M29.8442 9.56226V12.053L28.9931 12.9503L27.4209 14.5971V12.0056L29.8442 9.56226Z" fill="#3F72AF"/>
<g opacity="0.3">
<path d="M29.8442 9.56226V12.053L28.9931 12.9503L27.4209 14.5971V12.0056L29.8442 9.56226Z" fill="black"/>
</g>
<path d="M27.421 12.0026V13.4731C26.3957 13.8306 25.6222 14.0733 25.0028 14.1599C24.616 14.2083 24.2776 14.2083 23.9674 14.1207C23.7932 14.0723 23.6391 14.0048 23.4739 13.9172C22.8747 13.5597 22.778 13.0269 23.9191 12.3692C25.1287 11.6642 26.3766 11.5967 27.421 12.0026Z" fill="#3F72AF"/>
<g opacity="0.45">
<path d="M27.421 12.0026V13.4731C26.3957 13.8306 25.6222 14.0733 25.0028 14.1599C24.616 14.2083 24.2776 14.2083 23.9674 14.1207C23.7932 14.0723 23.6391 14.0048 23.4739 13.9172C22.8747 13.5597 22.778 13.0269 23.9191 12.3692C25.1287 11.6642 26.3766 11.5967 27.421 12.0026Z" fill="black"/>
</g>
<path d="M38.6961 19.0779V21.2282L35.9718 22.7993L33.9564 21.6341C31.8162 22.5607 29.0223 23.0793 26.1539 21.9856V19.8333L27.3917 18.6055L26.1539 18.947C24.2001 19.3972 22.1535 19.4515 20.0767 18.252C18.855 17.548 18.288 16.7765 18.291 15.9829V13.89L18.5116 12.9745L17.7683 12.5424V10.3901L19.7836 11.5554C18.7996 12.3188 18.2779 13.1034 18.29 13.8658L18.291 13.89C18.3132 14.6635 18.8843 15.4138 20.0757 16.1027C22.7256 17.6326 25.3512 17.128 27.7553 16.3565C29.9922 15.6263 31.6208 14.7692 32.91 15.5125C33.7097 15.9758 33.4669 16.5378 32.5686 17.0585C31.1344 17.8844 29.5783 17.6336 28.7272 17.2811L26.1519 19.8342C26.6283 20.0175 27.1047 20.1535 27.575 20.2522C29.9318 20.7467 32.1707 20.2563 33.9544 19.4848L35.9697 20.65L38.6961 19.0779Z" fill="#3F72AF"/>
<g opacity="0.35">
<path d="M18.2911 13.8658V13.89C18.3133 14.6635 18.8853 15.4139 20.0768 16.1028C22.7267 17.6326 25.3523 17.128 27.7564 16.3565C29.9933 15.6264 31.6219 14.7693 32.9111 15.5126C33.7108 15.9759 33.468 16.5379 32.5696 17.0586C31.1354 17.8844 29.5794 17.6336 28.7283 17.2811L26.153 19.8343C26.6294 20.0176 27.1058 20.1536 27.5761 20.2523C29.9329 20.7468 32.1718 20.2563 33.9555 19.4848L35.9708 20.6501L38.6952 19.0779V21.2282L35.9708 22.7994L33.9555 21.6341C31.8153 22.5607 29.0214 23.0794 26.153 21.9856V19.8343L27.3908 18.6055L26.153 18.947C24.1991 19.3972 22.1526 19.4516 20.0758 18.252C18.8541 17.548 18.2871 16.7766 18.2901 15.9829L18.2911 13.89L18.5107 12.9745" fill="black"/>
</g>
<g opacity="0.45">
<path d="M17.7683 10.3901V12.5424L18.5116 12.9755L18.5076 12.9825C18.7463 12.5052 19.1773 12.0267 19.7836 11.5564L17.7683 10.3901Z" fill="black"/>
</g>
<path d="M38.2449 17.6709C38.2449 18.0678 38.1674 18.4152 38.0415 18.6962L36.6778 17.9127C36.6778 17.9127 38.0516 17.3517 38.2248 15.8429C38.2349 16.4331 38.2449 17.6135 38.2449 17.6709Z" fill="#3F72AF"/>
<g opacity="0.3">
<path d="M38.2449 17.6709C38.2449 18.0678 38.1674 18.4152 38.0415 18.6962L36.6778 17.9127C36.6778 17.9127 38.0516 17.3517 38.2248 15.8429C38.2349 16.4331 38.2449 17.6135 38.2449 17.6709Z" fill="black"/>
</g>
<path d="M38.2409 18.8161L36.6818 17.9116C36.6818 17.9116 38.2409 17.2701 38.2409 15.5226C38.2409 15.4481 38.2339 15.3806 38.2278 15.3131C38.1603 14.5709 37.6135 13.8487 36.4864 13.2001C36.4864 13.1931 36.4864 13.1931 36.4864 13.1931C35.2849 12.5042 34.0562 12.2484 32.8617 12.2484C32.7599 12.2484 32.6522 12.2554 32.5515 12.2554H32.5172C32.4095 12.2624 32.3007 12.2685 32.1929 12.2756C32.0982 12.2826 32.0036 12.2886 31.9099 12.3027C31.8696 12.3098 31.8293 12.3098 31.7951 12.3168C31.7206 12.3239 31.647 12.3299 31.5785 12.344C30.9712 12.4246 30.384 12.5596 29.817 12.7086C29.54 12.7832 29.2631 12.8637 28.9932 12.9513C28.6014 13.0732 28.2166 13.2011 27.852 13.323C27.704 13.3764 27.562 13.4237 27.42 13.471C26.3937 13.8286 25.6242 14.0783 25.0038 14.1599C24.612 14.2133 24.2746 14.2073 23.9644 14.1197C23.7952 14.0723 23.6341 14.0048 23.4779 13.9172C22.8706 13.5667 22.7759 13.0329 23.9171 12.3712C25.1317 11.6692 26.3735 11.5947 27.42 12.0066L29.8432 9.56324C27.5146 8.80686 25.0098 8.93579 22.5332 9.96813L20.5149 8.80689L17.7673 10.3931L19.7857 11.5544C18.7997 12.3168 18.2739 13.1064 18.287 13.8699V13.89C18.3142 14.6666 18.8813 15.4159 20.0757 16.1038C22.7286 17.6357 25.3543 17.1301 27.7574 16.3535C29.9913 15.6243 31.6178 14.7673 32.908 15.5095C33.7107 15.9759 33.468 16.5358 32.5706 17.0555C31.1394 17.8854 29.5803 17.6356 28.7303 17.2781L26.152 19.8363C26.6314 20.0186 27.1108 20.1535 27.5761 20.2553C28.4251 20.4325 29.2591 20.4819 30.0618 20.4376C31.4869 20.357 32.8153 19.9783 33.9544 19.4858L35.9728 20.6531L38.6931 19.0809L38.2409 18.8161Z" fill="#3F72AF"/>
<path d="M33.9554 19.4838V21.6341L35.9728 22.7994V20.6491L33.9554 19.4838Z" fill="#3F72AF"/>
<g opacity="0.45">
<path d="M33.9554 19.4838V21.6341L35.9728 22.7994V20.6491L33.9554 19.4838Z" fill="black"/>
</g>
<path d="M17.7683 10.3921L20.5159 8.80584L22.5342 9.96708L20.534 9.13014L17.7683 10.3921Z" fill="#F5F5F5"/>
<path d="M23.9181 12.3702C25.1328 11.6682 26.3746 11.5936 27.421 12.0056L29.8443 9.5622L27.421 11.7538C27.421 11.7538 25.4873 11.0155 23.9181 12.3702Z" fill="#F5F5F5"/>
<path d="M26.1519 19.8353C26.6313 20.0176 27.1107 20.1526 27.576 20.2543C28.4251 20.4315 29.259 20.4809 30.0617 20.4366C30.0617 20.4366 28.1229 20.4879 26.5588 19.7356L28.7302 17.2771L26.1519 19.8353Z" fill="#F5F5F5"/>
<path d="M33.9554 19.4838L35.9728 20.3942L38.6931 19.0799L35.9728 20.6491L33.9554 19.4838Z" fill="#F5F5F5"/>
<path d="M9.93262 5.94953C17.0835 1.60564 28.2338 1.17357 28.2338 1.17357C21.2219 1.17357 14.6512 2.74271 9.72615 5.58694C5.00054 8.31333 2.40307 11.8636 2.40307 15.5951C2.40307 15.5951 2.65889 10.369 9.93262 5.94953Z" fill="#F5F5F5"/>
<path d="M26.1509 31.1427C33.7399 31.4801 41.5293 29.9724 47.3335 26.6215C53.3695 23.1367 55.9518 18.4122 55.0796 13.8678C55.0796 13.8678 56.2066 21.2745 46.8773 26.3435C37.548 31.4126 26.1509 31.1427 26.1509 31.1427Z" fill="#F5F5F5"/>
<path d="M95.9271 62.0757C94.6349 59.8962 92.4866 57.8476 89.4752 56.1092C78.9272 50.0189 61.8256 50.0189 51.2786 56.1092C48.2672 57.8476 46.1189 59.8962 44.8267 62.0757H43.3673V67.5939H43.3865C43.5809 71.4302 46.2065 75.2342 51.2786 78.1621C61.8266 84.2514 78.9282 84.2514 89.4752 78.1621C94.5473 75.2332 97.1921 71.4302 97.3865 67.5939V62.0757H95.9271Z" fill="#3F72AF"/>
<g opacity="0.25">
<path d="M95.9271 62.0757C94.6349 59.8962 92.4866 57.8476 89.4752 56.1092C78.9272 50.0189 61.8256 50.0189 51.2786 56.1092C48.2672 57.8476 46.1189 59.8962 44.8267 62.0757H43.3673V67.5939H43.3865C43.5809 71.4302 46.2065 75.2342 51.2786 78.1621C61.8266 84.2514 78.9282 84.2514 89.4752 78.1621C94.5473 75.2332 97.1921 71.4302 97.3865 67.5939V62.0757H95.9271Z" fill="black"/>
</g>
<g opacity="0.1">
<path d="M70.3784 51.5417C63.4653 51.5417 56.5521 53.0645 51.2786 56.1092C48.2672 57.8476 46.1189 59.8961 44.8267 62.0756H43.3673V67.5939H43.3865C43.5809 71.4302 46.2065 75.2342 51.2786 78.162C56.5531 81.2067 63.4663 82.7295 70.3784 82.7295V51.5417Z" fill="black"/>
</g>
<g opacity="0.1">
<path d="M55.6255 54.0727C54.0886 54.6529 52.6282 55.3287 51.2786 56.1082C48.2672 57.8466 46.1189 59.8951 44.8267 62.0746H43.3673V67.5929H43.3865C43.5809 71.4291 46.2065 75.2332 51.2786 78.161C52.6292 78.9406 54.0886 79.6174 55.6255 80.1965V54.0727Z" fill="black"/>
</g>
<g opacity="0.5">
<path d="M85.1283 54.0727C86.6652 54.6529 88.1256 55.3287 89.4752 56.1082C92.4876 57.8466 94.6349 59.8951 95.9271 62.0746H97.3865V67.5929C97.1921 71.4301 94.5473 75.2332 89.4752 78.161C88.1256 78.9406 86.6652 79.6174 85.1283 80.1965V54.0727Z" fill="#3F72AF"/>
</g>
<path d="M89.4752 51.0513C78.9272 44.962 61.8256 44.962 51.2786 51.0513C40.7306 57.1406 40.7306 67.0148 51.2786 73.1041C61.8266 79.1934 78.9282 79.1934 89.4752 73.1041C100.023 67.0148 100.023 57.1406 89.4752 51.0513Z" fill="#3F72AF"/>
<g opacity="0.2">
<path d="M89.4752 51.0513C78.9272 44.962 61.8256 44.962 51.2786 51.0513C40.7306 57.1406 40.7306 67.0148 51.2786 73.1041C61.8266 79.1934 78.9282 79.1934 89.4752 73.1041C100.023 67.0148 100.023 57.1406 89.4752 51.0513Z" fill="black"/>
</g>
<path d="M82.8148 55.0859C79.4741 53.3757 75.0597 52.433 70.3754 52.433C65.6961 52.433 61.2767 53.3767 57.941 55.0859C54.4048 56.8978 52.458 59.3845 52.458 62.0796C52.458 64.7748 54.4048 67.2564 57.941 69.0683C61.2777 70.7825 65.6961 71.7262 70.3754 71.7262C75.0587 71.7262 79.4741 70.7825 82.8148 69.0683C86.347 67.2564 88.2938 64.7748 88.2938 62.0796C88.2928 59.3845 86.346 56.8988 82.8148 55.0859Z" fill="#3F72AF"/>
<g opacity="0.4">
<path d="M82.8148 55.0859C79.4741 53.3757 75.0597 52.433 70.3754 52.433C65.6961 52.433 61.2767 53.3767 57.941 55.0859C54.4048 56.8978 52.458 59.3845 52.458 62.0796C52.458 64.7748 54.4048 67.2564 57.941 69.0683C61.2777 70.7825 65.6961 71.7262 70.3754 71.7262C75.0587 71.7262 79.4741 70.7825 82.8148 69.0683C86.347 67.2564 88.2938 64.7748 88.2938 62.0796C88.2928 59.3845 86.346 56.8988 82.8148 55.0859Z" fill="black"/>
</g>
<path d="M88.8881 52.0705C83.9631 49.2262 77.3863 47.6571 70.3754 47.6571C63.3636 47.6571 56.7939 49.2262 51.8688 52.0705C47.1432 54.7969 44.5458 58.3471 44.5458 62.0796C44.5458 65.8061 47.1432 69.3614 51.8688 72.0888C56.7939 74.928 63.3646 76.4961 70.3754 76.4961C77.3873 76.4961 83.9631 74.927 88.8881 72.0888C93.6076 69.3614 96.2112 65.8061 96.2112 62.0796C96.2112 58.3471 93.6076 54.7979 88.8881 52.0705ZM82.8149 69.0683C79.4741 70.7825 75.0597 71.7262 70.3754 71.7262C65.6962 71.7262 61.2767 70.7825 57.941 69.0683C54.4049 67.2564 52.458 64.7748 52.458 62.0796C52.458 59.3845 54.4049 56.8988 57.941 55.0859C61.2777 53.3757 65.6962 52.433 70.3754 52.433C75.0587 52.433 79.4741 53.3767 82.8149 55.0859C86.347 56.8978 88.2939 59.3845 88.2939 62.0796C88.2928 64.7748 86.346 67.2554 82.8149 69.0683Z" fill="#3F72AF"/>
<g opacity="0.2">
<path d="M82.3889 68.2415C89.0231 64.8373 89.0231 59.317 82.3889 55.9128C75.7547 52.5086 64.9982 52.5086 58.365 55.9128C51.7309 59.317 51.7309 64.8373 58.365 68.2415C64.9992 71.6457 75.7547 71.6457 82.3889 68.2415Z" fill="black"/>
</g>
<path d="M82.3889 68.2415C89.0231 64.8373 89.0231 59.317 82.3889 55.9128C75.7547 52.5086 64.9982 52.5086 58.365 55.9128C51.7309 59.317 51.7309 64.8373 58.365 68.2415C64.9992 71.6457 75.7547 71.6457 82.3889 68.2415Z" fill="#3F72AF"/>
<g opacity="0.6">
<path d="M82.3889 68.2415C89.0231 64.8373 89.0231 59.317 82.3889 55.9128C75.7547 52.5086 64.9982 52.5086 58.365 55.9128C51.7309 59.317 51.7309 64.8373 58.365 68.2415C64.9992 71.6457 75.7547 71.6457 82.3889 68.2415Z" fill="black"/>
</g>
<path d="M82.3889 58.2223C75.7547 54.8181 64.9992 54.8181 58.365 58.2223C55.6215 59.6303 54.0161 61.3999 53.5417 63.2319C54.0161 65.0639 55.6215 66.8335 58.365 68.2415C64.9992 71.6457 75.7547 71.6457 82.3889 68.2415C85.1324 66.8335 86.7378 65.0639 87.2122 63.2319C86.7378 61.3999 85.1324 59.6303 82.3889 58.2223Z" fill="#3F72AF"/>
<g opacity="0.5">
<path d="M82.3889 58.2223C75.7547 54.8181 64.9992 54.8181 58.365 58.2223C55.6215 59.6303 54.0161 61.3999 53.5417 63.2319C54.0161 65.0639 55.6215 66.8335 58.365 68.2415C64.9992 71.6457 75.7547 71.6457 82.3889 68.2415C85.1324 66.8335 86.7378 65.0639 87.2122 63.2319C86.7378 61.3999 85.1324 59.6303 82.3889 58.2223Z" fill="black"/>
</g>
<path d="M71.9859 56.0458V58.5365L71.1348 59.4339L69.5626 61.0805V58.4891L71.9859 56.0458Z" fill="#3F72AF"/>
<g opacity="0.3">
<path d="M71.9859 56.0458V58.5365L71.1348 59.4339L69.5626 61.0805V58.4891L71.9859 56.0458Z" fill="black"/>
</g>
<path d="M69.5627 58.4861V59.9565C68.5374 60.3141 67.7639 60.5558 67.1445 60.6434C66.7578 60.6918 66.4193 60.6918 66.1091 60.6052C65.9349 60.5568 65.7808 60.4893 65.6156 60.4017C65.0164 60.0442 64.9197 59.5114 66.0608 58.8537C67.2704 58.1477 68.5183 58.0802 69.5627 58.4861Z" fill="#3F72AF"/>
<g opacity="0.45">
<path d="M69.5627 58.4861V59.9565C68.5374 60.3141 67.7639 60.5558 67.1445 60.6434C66.7578 60.6918 66.4193 60.6918 66.1091 60.6052C65.9349 60.5568 65.7808 60.4893 65.6156 60.4017C65.0164 60.0442 64.9197 59.5114 66.0608 58.8537C67.2704 58.1477 68.5183 58.0802 69.5627 58.4861Z" fill="black"/>
</g>
<path d="M80.8378 65.5604V67.7107L78.1144 69.2829L76.0991 68.1176C73.9589 69.0441 71.165 69.5628 68.2966 68.4691V66.3168L69.5354 65.089L68.2966 65.4304C66.3417 65.8806 64.2962 65.935 62.2194 64.7355C60.9977 64.0315 60.4307 63.26 60.4337 62.4664V60.3735L60.6543 59.458L59.911 59.0249V56.8726L61.9263 58.0379C60.9423 58.8003 60.4196 59.5859 60.4337 60.3483V60.3725C60.4559 61.146 61.0279 61.8963 62.2194 62.5852C64.8693 64.1151 67.4949 63.6105 69.899 62.839C72.1359 62.1088 73.7645 61.2518 75.0537 61.995C75.8544 62.4583 75.6106 63.0203 74.7123 63.54C73.2781 64.3659 71.722 64.1151 70.8709 63.7626L68.2956 66.3157C68.772 66.499 69.2484 66.635 69.7187 66.7327C72.0755 67.2272 74.3144 66.7367 76.0981 65.9653L78.1134 67.1306L80.8378 65.5604Z" fill="#3F72AF"/>
<g opacity="0.35">
<path d="M60.4327 60.3484V60.3725C60.4549 61.146 61.0269 61.8964 62.2184 62.5853C64.8682 64.1151 67.4939 63.6105 69.898 62.8391C72.1349 62.1089 73.7635 61.2518 75.0527 61.9951C75.8533 62.4584 75.6096 63.0204 74.7112 63.5401C73.277 64.3659 71.721 64.1151 70.8699 63.7626L68.2946 66.3158C68.771 66.4991 69.2474 66.635 69.7177 66.7327C72.0745 67.2273 74.3134 66.7368 76.0971 65.9653L78.1124 67.1306L80.8358 65.5584V67.7087L78.1124 69.2809L76.0971 68.1156C73.9569 69.0422 71.163 69.5609 68.2946 68.4671V66.3158L69.5334 65.087L68.2946 65.4285C66.3397 65.8787 64.2942 65.9331 62.2174 64.7335C60.9957 64.0295 60.4287 63.2581 60.4317 62.4644V60.3715L60.6523 59.456" fill="black"/>
</g>
<g opacity="0.45">
<path d="M59.91 56.8726V59.0249L60.6533 59.458L60.6493 59.465C60.888 58.9876 61.319 58.5092 61.9254 58.0389L59.91 56.8726Z" fill="black"/>
</g>
<path d="M80.3866 64.1544C80.3866 64.5513 80.3091 64.8997 80.1842 65.1797L78.8205 64.3962C78.8205 64.3962 80.1943 63.8352 80.3675 62.3264C80.3766 62.9166 80.3866 64.096 80.3866 64.1544Z" fill="#3F72AF"/>
<g opacity="0.3">
<path d="M80.3866 64.1544C80.3866 64.5513 80.3091 64.8997 80.1842 65.1797L78.8205 64.3962C78.8205 64.3962 80.1943 63.8352 80.3675 62.3264C80.3766 62.9166 80.3866 64.096 80.3866 64.1544Z" fill="black"/>
</g>
<path d="M80.3826 65.2995L78.8235 64.3951C78.8235 64.3951 80.3826 63.7536 80.3826 62.0061C80.3826 61.9316 80.3755 61.8641 80.3695 61.7966C80.302 61.0544 79.7551 60.3322 78.6281 59.6836C78.6281 59.6766 78.6281 59.6766 78.6281 59.6766C77.4266 58.9877 76.1978 58.7318 75.0033 58.7318C74.9026 58.7318 74.7938 58.7389 74.6931 58.7389H74.6589C74.5511 58.746 74.4433 58.753 74.3346 58.759C74.2399 58.7661 74.1452 58.7721 74.0516 58.7862C74.0113 58.7933 73.971 58.7933 73.9367 58.7993C73.8622 58.8064 73.7887 58.8124 73.7212 58.8265C73.1139 58.9071 72.5267 59.0421 71.9597 59.1911C71.6827 59.2657 71.4057 59.3462 71.1358 59.4339C70.744 59.5557 70.3593 59.6836 69.9947 59.8055C69.8467 59.8599 69.7046 59.9072 69.5626 59.9546C68.5363 60.3121 67.7669 60.5619 67.1465 60.6434C66.7547 60.6968 66.4173 60.6908 66.1071 60.6032C65.9379 60.5558 65.7767 60.4883 65.6216 60.4007C65.0143 60.0492 64.9196 59.5164 66.0607 58.8547C67.2754 58.1527 68.5172 58.0782 69.5636 58.4901L71.9869 56.0468C69.6583 55.2904 67.1545 55.4193 64.6769 56.4517L62.6585 55.2904L59.911 56.8767L61.9294 58.0379C60.9433 58.8003 60.4176 59.59 60.4307 60.3534V60.3735C60.4579 61.15 61.0249 61.8994 62.2194 62.5873C64.8723 64.1192 67.498 63.6136 69.901 62.8371C72.1349 62.1079 73.7615 61.2508 75.0517 61.993C75.8554 62.4584 75.6117 63.0193 74.7143 63.539C73.2831 64.3689 71.724 64.1192 70.874 63.7616L68.2956 66.3198C68.775 66.5021 69.2544 66.6371 69.7198 66.7378C70.5688 66.915 71.4027 66.9644 72.2054 66.9201C73.6306 66.8395 74.958 66.4608 76.0981 65.9683L78.1165 67.1356L80.8368 65.5634L80.3826 65.2995Z" fill="#3F72AF"/>
<path d="M76.0971 65.9673V68.1176L78.1145 69.2829V67.1326L76.0971 65.9673Z" fill="#3F72AF"/>
<g opacity="0.45">
<path d="M76.0971 65.9673V68.1176L78.1145 69.2829V67.1326L76.0971 65.9673Z" fill="black"/>
</g>
<path d="M59.91 56.8756L62.6576 55.2893L64.6759 56.4506L62.6757 55.6126L59.91 56.8756Z" fill="#F5F5F5"/>
<path d="M66.0597 58.8527C67.2743 58.1507 68.5162 58.0761 69.5626 58.4881L71.9859 56.0447L69.5626 58.2363C69.5626 58.2363 67.6289 57.499 66.0597 58.8527Z" fill="#F5F5F5"/>
<path d="M68.2936 66.3188C68.773 66.5011 69.2524 66.636 69.7177 66.7367C70.5668 66.914 71.4007 66.9633 72.2034 66.919C72.2034 66.919 70.2646 66.9704 68.7005 66.2181L70.8719 63.7606L68.2936 66.3188Z" fill="#F5F5F5"/>
<path d="M76.0971 65.9673L78.1145 66.8767L80.8348 65.5624L78.1145 67.1326L76.0971 65.9673Z" fill="#F5F5F5"/>
<path d="M52.0753 52.433C59.2261 48.0891 70.3764 47.6571 70.3764 47.6571C63.3646 47.6571 56.7948 49.2262 51.8698 52.0705C47.1442 54.7969 44.5468 58.3471 44.5468 62.0796C44.5468 62.0796 44.8006 56.8514 52.0753 52.433Z" fill="#F5F5F5"/>
<path d="M68.2926 77.6252C75.8816 77.9626 83.671 76.4549 89.4753 73.1041C95.5112 69.6193 98.0935 64.8947 97.2203 60.3503C97.2203 60.3503 98.3473 67.757 89.019 72.8261C79.6897 77.8951 68.2926 77.6252 68.2926 77.6252Z" fill="#F5F5F5"/>
<path d="M97.5406 54.4917C96.2484 52.3122 94.1002 50.2636 91.0887 48.5252C80.5407 42.4359 63.4391 42.4359 52.8921 48.5252C49.8807 50.2646 47.7324 52.3122 46.4402 54.4917H44.9809V60.0099H45C45.1944 63.8462 47.8201 67.6493 52.8921 70.5781C63.4401 76.6674 80.5417 76.6674 91.0887 70.5781C96.1608 67.6493 98.8056 63.8462 99 60.0099V54.4917H97.5406Z" fill="#3F72AF"/>
<g opacity="0.25">
<path d="M97.5406 54.4917C96.2484 52.3122 94.1002 50.2636 91.0887 48.5252C80.5407 42.4359 63.4391 42.4359 52.8921 48.5252C49.8807 50.2646 47.7324 52.3122 46.4402 54.4917H44.9809V60.0099H45C45.1944 63.8462 47.8201 67.6493 52.8921 70.5781C63.4401 76.6674 80.5417 76.6674 91.0887 70.5781C96.1608 67.6493 98.8056 63.8462 99 60.0099V54.4917H97.5406Z" fill="black"/>
</g>
<g opacity="0.1">
<path d="M71.9919 43.9578C65.0788 43.9578 58.1656 45.4796 52.8921 48.5252C49.8797 50.2646 47.7324 52.3122 46.4402 54.4917H44.9809V60.0099H45C45.1944 63.8462 47.8201 67.6492 52.8921 70.5781C58.1666 73.6227 65.0798 75.1455 71.9919 75.1455V43.9578Z" fill="black"/>
</g>
<g opacity="0.1">
<path d="M57.239 46.4888C55.7021 47.0689 54.2417 47.7447 52.8921 48.5243C49.8797 50.2636 47.7324 52.3112 46.4402 54.4907H44.9809V60.0089H45C45.1944 63.8452 47.8201 67.6483 52.8921 70.5771C54.2417 71.3566 55.7021 72.0324 57.239 72.6126V46.4888Z" fill="black"/>
</g>
<g opacity="0.5">
<path d="M86.7408 46.4888C88.2778 47.0689 89.7381 47.7447 91.0877 48.5243C94.0992 50.2636 96.2474 52.3112 97.5396 54.4907H98.999V60.0089C98.8046 63.8452 96.1598 67.6493 91.0877 70.5771C89.7381 71.3566 88.2778 72.0324 86.7408 72.6126V46.4888Z" fill="#3F72AF"/>
</g>
<path d="M91.0887 43.4673C80.5407 37.378 63.4391 37.378 52.8921 43.4673C42.3441 49.5576 42.3441 59.4309 52.8921 65.5202C63.4401 71.6095 80.5417 71.6095 91.0887 65.5202C101.637 59.4309 101.637 49.5566 91.0887 43.4673Z" fill="#3F72AF"/>
<g opacity="0.2">
<path d="M91.0887 43.4673C80.5407 37.378 63.4391 37.378 52.8921 43.4673C42.3441 49.5576 42.3441 59.4309 52.8921 65.5202C63.4401 71.6095 80.5417 71.6095 91.0887 65.5202C101.637 59.4309 101.637 49.5566 91.0887 43.4673Z" fill="black"/>
</g>
<path d="M84.4284 47.502C81.0876 45.7918 76.6732 44.8491 71.9889 44.8491C67.3096 44.8491 62.8902 45.7928 59.5545 47.502C56.0184 49.3139 54.0715 51.8006 54.0715 54.4947C54.0715 57.1899 56.0184 59.6715 59.5545 61.4834C62.8912 63.1976 67.3096 64.1413 71.9889 64.1413C76.6722 64.1413 81.0876 63.1986 84.4284 61.4834C87.9595 59.6715 89.9063 57.1899 89.9063 54.4947C89.9063 51.8006 87.9595 49.3139 84.4284 47.502Z" fill="#3F72AF"/>
<g opacity="0.4">
<path d="M84.4284 47.502C81.0876 45.7918 76.6732 44.8491 71.9889 44.8491C67.3096 44.8491 62.8902 45.7928 59.5545 47.502C56.0184 49.3139 54.0715 51.8006 54.0715 54.4947C54.0715 57.1899 56.0184 59.6715 59.5545 61.4834C62.8912 63.1976 67.3096 64.1413 71.9889 64.1413C76.6722 64.1413 81.0876 63.1986 84.4284 61.4834C87.9595 59.6715 89.9063 57.1899 89.9063 54.4947C89.9063 51.8006 87.9595 49.3139 84.4284 47.502Z" fill="black"/>
</g>
<path d="M90.5016 44.4866C85.5766 41.6423 78.9998 40.0722 71.989 40.0722C64.9781 40.0722 58.4074 41.6413 53.4824 44.4866C48.7568 47.213 46.1593 50.7632 46.1593 54.4947C46.1593 58.2212 48.7568 61.7765 53.4824 64.5039C58.4074 67.3421 64.9781 68.9112 71.989 68.9112C78.9998 68.9112 85.5766 67.3421 90.5016 64.5039C95.2212 61.7765 97.8247 58.2212 97.8247 54.4947C97.8247 50.7632 95.2212 47.214 90.5016 44.4866ZM84.4284 61.4844C81.0877 63.1986 76.6733 64.1423 71.989 64.1423C67.3097 64.1423 62.8903 63.1996 59.5545 61.4844C56.0184 59.6725 54.0715 57.1909 54.0715 54.4957C54.0715 51.8006 56.0184 49.3149 59.5545 47.503C62.8913 45.7929 67.3097 44.8501 71.989 44.8501C76.6723 44.8501 81.0877 45.7939 84.4284 47.503C87.9595 49.3149 89.9064 51.8016 89.9064 54.4957C89.9064 57.1909 87.9595 59.6715 84.4284 61.4844Z" fill="#3F72AF"/>
<g opacity="0.2">
<path d="M84.0024 60.6565C90.6366 57.2523 90.6366 51.7321 84.0024 48.3279C77.3682 44.9237 66.6117 44.9237 59.9786 48.3279C53.3444 51.7321 53.3444 57.2523 59.9786 60.6565C66.6127 64.0618 77.3682 64.0618 84.0024 60.6565Z" fill="black"/>
</g>
<path d="M84.0024 60.6565C90.6366 57.2523 90.6366 51.7321 84.0024 48.3279C77.3682 44.9237 66.6117 44.9237 59.9786 48.3279C53.3444 51.7321 53.3444 57.2523 59.9786 60.6565C66.6127 64.0618 77.3682 64.0618 84.0024 60.6565Z" fill="#3F72AF"/>
<g opacity="0.6">
<path d="M84.0024 60.6565C90.6366 57.2523 90.6366 51.7321 84.0024 48.3279C77.3682 44.9237 66.6117 44.9237 59.9786 48.3279C53.3444 51.7321 53.3444 57.2523 59.9786 60.6565C66.6127 64.0618 77.3682 64.0618 84.0024 60.6565Z" fill="black"/>
</g>
<path d="M84.0024 50.6383C77.3682 47.2341 66.6127 47.2341 59.9786 50.6383C57.2351 52.0463 55.6306 53.8159 55.1553 55.6479C55.6296 57.48 57.2351 59.2495 59.9786 60.6576C66.6127 64.0618 77.3692 64.0618 84.0024 60.6576C86.7459 59.2495 88.3513 57.48 88.8257 55.6479C88.3513 53.8159 86.7459 52.0453 84.0024 50.6383Z" fill="#3F72AF"/>
<g opacity="0.5">
<path d="M84.0024 50.6383C77.3682 47.2341 66.6127 47.2341 59.9786 50.6383C57.2351 52.0463 55.6306 53.8159 55.1553 55.6479C55.6296 57.48 57.2351 59.2495 59.9786 60.6576C66.6127 64.0618 77.3692 64.0618 84.0024 60.6576C86.7459 59.2495 88.3513 57.48 88.8257 55.6479C88.3513 53.8159 86.7459 52.0453 84.0024 50.6383Z" fill="black"/>
</g>
<path d="M73.5993 48.4609V50.9516L72.7482 51.85L71.176 53.4967V50.9053L73.5993 48.4609Z" fill="#3F72AF"/>
<g opacity="0.3">
<path d="M73.5993 48.4609V50.9516L72.7482 51.85L71.176 53.4967V50.9053L73.5993 48.4609Z" fill="black"/>
</g>
<path d="M71.1761 50.9022V52.3726C70.1508 52.7302 69.3773 52.9729 68.7579 53.0595C68.3712 53.1079 68.0327 53.1079 67.7225 53.0213C67.5483 52.9729 67.3942 52.9055 67.229 52.8178C66.6298 52.4603 66.5331 51.9275 67.6742 51.2698C68.8838 50.5638 70.1307 50.4953 71.1761 50.9022Z" fill="#3F72AF"/>
<g opacity="0.45">
<path d="M71.1761 50.9022V52.3726C70.1508 52.7302 69.3773 52.9729 68.7579 53.0595C68.3712 53.1079 68.0327 53.1079 67.7225 53.0213C67.5483 52.9729 67.3942 52.9055 67.229 52.8178C66.6298 52.4603 66.5331 51.9275 67.6742 51.2698C68.8838 50.5638 70.1307 50.4953 71.1761 50.9022Z" fill="black"/>
</g>
<path d="M82.4512 57.9765V60.1268L79.7269 61.699L77.7115 60.5337C75.5713 61.4613 72.7775 61.979 69.9091 60.8862V58.7339L71.1469 57.5062L69.9091 57.8476C67.9542 58.2978 65.9086 58.3522 63.8318 57.1527C62.6102 56.4486 62.0441 55.6772 62.0461 54.8835V52.7906L62.2667 51.8751L61.5234 51.443V49.2907L63.5388 50.456C62.5548 51.2195 62.033 52.004 62.0461 52.7665V52.7906C62.0683 53.5641 62.6404 54.3145 63.8318 55.0034C66.4817 56.5332 69.1074 56.0287 71.5114 55.2572C73.7484 54.527 75.3769 53.6699 76.6661 54.4132C77.4658 54.8765 77.2231 55.4385 76.3247 55.9582C74.8905 56.784 73.3344 56.5333 72.4834 56.1807L69.9091 58.7339C70.3854 58.9172 70.8608 59.0532 71.3312 59.1509C73.6879 59.6454 75.9268 59.1549 77.7105 58.3834L79.7259 59.5487L82.4512 57.9765Z" fill="#3F72AF"/>
<g opacity="0.35">
<path d="M62.0462 52.7644V52.7886C62.0684 53.5621 62.6404 54.3124 63.8319 55.0013C66.4818 56.5312 69.1074 56.0266 71.5115 55.2551C73.7484 54.5249 75.377 53.6679 76.6662 54.4111C77.4659 54.8744 77.2231 55.4364 76.3247 55.9561C74.8906 56.782 73.3345 56.5312 72.4834 56.1787L69.9081 58.7318C70.3845 58.9151 70.8609 59.0511 71.3312 59.1488C73.688 59.6433 75.9269 59.1528 77.7106 58.3814L79.7259 59.5467L82.4503 57.9745V60.1247L79.7259 61.6969L77.7106 60.5317C75.5704 61.4593 72.7765 61.9769 69.9081 60.8842V58.7318L71.1459 57.5041L69.9081 57.8455C67.9532 58.2957 65.9077 58.3502 63.8309 57.1506C62.6092 56.4466 62.0432 55.6751 62.0452 54.8815L62.0462 52.7886L62.2658 51.8731" fill="black"/>
</g>
<g opacity="0.45">
<path d="M61.5234 49.2888V51.4411L62.2667 51.8742L62.2627 51.8812C62.5014 51.4038 62.9324 50.9254 63.5388 50.4551L61.5234 49.2888Z" fill="black"/>
</g>
<path d="M82.0001 56.5705C82.0001 56.9673 81.9225 57.3148 81.7966 57.5958L80.4329 56.8122C80.4329 56.8122 81.8067 56.2512 81.9799 54.7425C81.99 55.3327 82.0001 56.5121 82.0001 56.5705Z" fill="#3F72AF"/>
<g opacity="0.3">
<path d="M82.0001 56.5705C82.0001 56.9673 81.9225 57.3148 81.7966 57.5958L80.4329 56.8122C80.4329 56.8122 81.8067 56.2512 81.9799 54.7425C81.99 55.3327 82.0001 56.5121 82.0001 56.5705Z" fill="black"/>
</g>
<path d="M81.996 57.7156L80.4369 56.8112C80.4369 56.8112 81.996 56.1697 81.996 54.4222C81.996 54.3477 81.989 54.2802 81.9819 54.2127C81.9145 53.4705 81.3676 52.7483 80.2405 52.0997C80.2405 52.0927 80.2405 52.0927 80.2405 52.0927C79.039 51.4038 77.8113 51.1479 76.6158 51.1479C76.5151 51.1479 76.4063 51.155 76.3056 51.155H76.2713C76.1635 51.1621 76.0558 51.1681 75.947 51.1752C75.8523 51.1822 75.7577 51.1883 75.663 51.2024C75.6227 51.2094 75.5824 51.2094 75.5482 51.2164C75.4736 51.2235 75.4001 51.2295 75.3316 51.2436C74.7243 51.3242 74.1371 51.4602 73.5701 51.6082C73.2931 51.6828 73.0172 51.7633 72.7473 51.8509C72.3555 51.9728 71.9707 52.1007 71.6061 52.2226C71.4581 52.277 71.3161 52.3233 71.1741 52.3707C70.1478 52.7282 69.3783 52.978 68.7579 53.0596C68.3661 53.1139 68.0287 53.1069 67.7185 53.0193C67.5503 52.9719 67.3881 52.9045 67.233 52.8168C66.6257 52.4653 66.5311 51.9325 67.6722 51.2708C68.8868 50.5688 70.1286 50.4943 71.1751 50.9062L73.5983 48.4629C71.2698 47.7065 68.7649 47.8354 66.2883 48.8678L64.27 47.7065L61.5224 49.2928L63.5408 50.454C62.5548 51.2164 62.029 52.0071 62.0421 52.7695V52.7896C62.0693 53.5661 62.6364 54.3155 63.8309 55.0034C66.4837 56.5353 69.1094 56.0297 71.5125 55.2532C73.7464 54.524 75.3729 53.6669 76.6631 54.4091C77.4658 54.8745 77.2231 55.4354 76.3257 55.9551C74.8945 56.785 73.3354 56.5353 72.4854 56.1777L69.9071 58.7359C70.3865 58.9182 70.8659 59.0532 71.3312 59.1549C72.1802 59.3322 73.0142 59.3825 73.8169 59.3372C75.242 59.2566 76.5694 58.8779 77.7095 58.3854L79.7279 59.5527L82.4482 57.9805L81.996 57.7156Z" fill="#3F72AF"/>
<path d="M77.7106 58.3834V60.5337L79.7279 61.698V59.5477L77.7106 58.3834Z" fill="#3F72AF"/>
<g opacity="0.45">
<path d="M77.7106 58.3834V60.5337L79.7279 61.698V59.5477L77.7106 58.3834Z" fill="black"/>
</g>
<path d="M61.5235 49.2917L64.2711 47.7054L66.2884 48.8657L64.2882 48.0288L61.5235 49.2917Z" fill="#F5F5F5"/>
<path d="M67.6723 51.2688C68.8869 50.5668 70.1287 50.4923 71.1752 50.9042L73.5984 48.4608L71.1752 50.6524C71.1752 50.6524 69.2424 49.9151 67.6723 51.2688Z" fill="#F5F5F5"/>
<path d="M69.9071 58.7349C70.3865 58.9172 70.866 59.0521 71.3313 59.1539C72.1803 59.3311 73.0142 59.3815 73.8169 59.3361C73.8169 59.3361 71.8782 59.3875 70.314 58.6352L72.4855 56.1767L69.9071 58.7349Z" fill="#F5F5F5"/>
<path d="M77.7107 58.3834L79.728 59.2928L82.4474 57.9785L79.728 59.5476L77.7107 58.3834Z" fill="#F5F5F5"/>
<path d="M53.6878 44.8491C60.8387 40.5052 71.989 40.0732 71.989 40.0732C64.9771 40.0732 58.4074 41.6423 53.4824 44.4876C48.7568 47.2139 46.1593 50.7642 46.1593 54.4957C46.1593 54.4957 46.4141 49.2675 53.6878 44.8491Z" fill="#F5F5F5"/>
<path d="M69.9062 70.0412C77.4951 70.3786 85.2845 68.8709 91.0888 65.5201C97.1247 62.0353 99.7071 57.3107 98.8339 52.7664C98.8339 52.7664 99.9609 60.1731 90.6315 65.2421C81.3032 70.3112 69.9062 70.0412 69.9062 70.0412Z" fill="#F5F5F5"/>
</svg>
