<svg width="53" height="161" viewBox="0 0 53 161" fill="none" xmlns="http://www.w3.org/2000/svg">
<path d="M52.7906 92.1449C52.2586 80.5031 49.76 75.4396 49.76 75.4396C49.76 75.4396 50.3633 61.0351 51.9454 43.3812C54.3546 16.5057 52.2244 12.5224 46.6921 0.564392C46.6921 0.564392 2.12862 -4.29331 1.12877 14.494C-0.118025 37.8911 -0.320817 82.5319 0.465209 90.7726C1.25023 99.0133 1.79834 102.204 4.13834 118.869C5.98947 132.05 10.2258 159.727 10.2258 159.727C16.2811 162.845 21.8887 159.254 21.8887 159.254C21.8887 159.254 24.7035 115.526 24.1253 106.01C23.4186 94.3915 22.7008 91.4452 22.7008 91.4452C22.7008 91.4452 27.2242 53.6969 27.9189 47.6205C27.9189 47.6205 28.8716 58.4522 29.6566 66.6929C30.4426 74.9336 30.5239 81.5822 32.6049 98.6188C34.2372 111.981 38.1211 140.823 38.1211 140.823C43.5038 142.97 47.951 139.901 47.951 139.901C47.951 139.901 53.2203 101.564 52.7906 92.1449Z" fill="#455A64"/>
</svg>
