<svg width="59" height="37" viewBox="0 0 59 37" fill="none" xmlns="http://www.w3.org/2000/svg">
<path d="M26.4429 0L58.7373 18.6584L58.9992 19.0241V21.7599C58.9992 21.8919 58.9116 22.0249 58.7373 22.1256L33.5616 36.6218C33.212 36.8233 32.6449 36.8233 32.2954 36.6218L0 17.9634V15.2275L26.4429 0Z" fill="#F0F0F0"/>
<path d="M0 15.2275L0.31832 15.4118L4.46641 17.8062L5.238 18.2535L32.2944 33.8849C32.6449 34.0864 33.212 34.0864 33.5606 33.8849L58.7393 19.3887C59.0868 19.1872 59.0868 18.8599 58.7393 18.6574L58.3998 18.462L26.4439 0.000983702L0.316291 15.0442L0.24073 15.0905L0 15.2275Z" fill="#EBEBEB"/>
<path d="M32.9289 34.0371V36.7729C33.1566 36.7729 33.3883 36.7236 33.5605 36.6208L58.7393 22.1246C58.9115 22.0249 58.9991 21.8939 58.9991 21.7589V19.0231C58.9991 19.155 58.9115 19.286 58.7393 19.3887L33.5605 33.885C33.3883 33.9867 33.1576 34.0371 32.9289 34.0371Z" fill="#E0E0E0"/>
</svg>
